<?xml version="1.0" standalone="no"?>
<!DOCTYPE svg PUBLIC "-//W3C//DTD SVG 20010904//EN"
 "http://www.w3.org/TR/2001/REC-SVG-20010904/DTD/svg10.dtd">
<svg version="1.0" xmlns="http://www.w3.org/2000/svg"
 width="700.000000pt" height="700.000000pt" viewBox="0 0 700.000000 700.000000"
 preserveAspectRatio="xMidYMid meet">
<metadata>
Created by potrace 1.14, written by Peter Selinger 2001-2017
</metadata>
<g transform="translate(0.000000,700.000000) scale(0.100000,-0.100000)"
fill="#000000" stroke="none">
<path d="M1050 6988 c0 -5 -4 -6 -10 -3 -5 3 -10 1 -10 -5 0 -11 31 -10 40 2
3 4 12 3 20 -2 12 -8 12 -10 -4 -10 -16 0 -17 -2 -5 -17 12 -16 12 -17 -2 -5
-13 10 -18 10 -28 -1 -6 -8 -9 -17 -6 -21 3 -3 -1 -1 -7 4 -10 9 -10 13 0 19
10 6 9 9 -6 13 -11 3 -26 1 -33 -4 -11 -8 -10 -9 3 -4 11 3 15 1 12 -8 -5 -14
-34 -18 -34 -4 0 4 -11 7 -24 6 -19 -2 -22 -5 -14 -15 14 -17 10 -20 -27 -26
-16 -2 -46 -11 -65 -21 -29 -14 -31 -16 -10 -14 14 2 28 7 31 11 3 5 9 1 13
-9 4 -10 4 -15 0 -12 -3 4 -14 -2 -24 -14 -12 -15 -19 -18 -24 -9 -4 7 -2 10
5 9 6 -2 14 3 16 10 4 11 1 12 -15 3 -10 -6 -21 -8 -24 -6 -3 3 -5 -2 -5 -10
0 -8 5 -15 10 -15 6 0 7 -3 4 -6 -4 -4 -14 -1 -24 7 -9 8 -14 9 -10 3 4 -7 -7
-19 -26 -29 -21 -11 -24 -15 -10 -12 12 3 30 -2 40 -10 17 -13 16 -13 -3 -4
-24 11 -35 6 -28 -14 3 -7 1 -16 -5 -20 -7 -3 -8 0 -5 9 3 9 2 16 -3 16 -11 0
-37 -50 -35 -65 1 -5 -5 -1 -14 10 -16 20 -16 20 -9 -4 6 -18 4 -22 -6 -15 -9
5 -8 -2 4 -19 9 -15 13 -27 7 -27 -5 0 -10 5 -10 11 0 5 -10 9 -22 7 -15 -2
-22 2 -20 10 1 8 -2 11 -8 7 -16 -10 9 -37 27 -31 8 4 11 1 7 -5 -3 -6 -14 -9
-24 -6 -12 3 -17 -1 -16 -17 1 -12 -4 -20 -11 -18 -18 3 -16 -15 2 -22 8 -3
14 -2 13 2 -2 13 14 42 25 42 5 0 2 -9 -8 -20 -10 -11 -15 -20 -10 -20 4 0 2
-7 -5 -15 -10 -12 -16 -13 -27 -4 -7 7 -16 9 -20 5 -3 -3 -1 -6 5 -6 7 0 12
-10 12 -22 0 -17 -3 -19 -9 -10 -6 10 -10 8 -16 -10 -4 -12 -7 -33 -7 -45 1
-12 -4 -21 -11 -19 -7 1 -9 1 -4 -1 9 -6 9 -30 0 -36 -5 -2 -2 -2 4 -1 7 2 12
-2 10 -9 -1 -7 4 -11 11 -9 8 1 11 -2 7 -8 -3 -6 -11 -8 -16 -5 -5 4 -9 1 -9
-5 0 -7 -9 -9 -22 -5 l-23 6 23 -14 c12 -7 19 -16 16 -20 -4 -4 -1 -7 7 -7 12
0 12 -2 0 -9 -8 -5 -21 -7 -30 -4 -10 3 -12 1 -6 -4 15 -12 19 -47 4 -37 -8 4
-10 3 -5 -5 4 -6 2 -20 -6 -29 -12 -16 -11 -16 6 -2 18 14 19 13 13 -2 -3 -10
-3 -20 2 -22 4 -3 7 15 6 39 -1 24 3 42 7 39 5 -3 6 -13 4 -22 -3 -10 -1 -24
4 -32 11 -18 -6 -41 -26 -33 -8 3 -14 1 -14 -5 0 -5 12 -9 27 -8 14 0 27 -5
29 -12 1 -7 0 -8 -3 -2 -7 15 -23 2 -17 -15 4 -8 9 -13 13 -10 4 2 8 -2 8 -10
0 -18 -9 -19 -23 -5 -7 7 -11 6 -11 -4 0 -8 5 -14 11 -13 6 1 10 -4 9 -10 -2
-7 2 -13 7 -13 6 0 10 -9 10 -20 0 -11 5 -19 11 -17 6 1 14 -5 16 -13 4 -12 3
-12 -5 -1 -7 10 -11 10 -17 1 -9 -14 12 -30 31 -23 6 2 15 0 19 -6 4 -7 0 -8
-10 -4 -14 5 -13 -1 5 -37 13 -26 17 -40 8 -35 -7 3 -5 0 5 -8 23 -19 22 -30
-3 -17 -11 6 -20 7 -20 2 0 -18 40 -21 51 -4 10 16 10 16 5 0 -3 -10 2 -22 12
-28 13 -8 11 -9 -13 -5 -30 5 -30 5 -5 -6 14 -7 28 -11 33 -11 4 1 7 -3 7 -9
0 -6 -7 -9 -15 -5 -8 3 -15 1 -15 -4 0 -6 5 -10 10 -10 6 0 10 -5 10 -11 0 -5
-4 -8 -9 -4 -5 3 -12 1 -15 -4 -7 -11 13 -9 32 2 7 5 12 3 12 -7 0 -9 -6 -16
-12 -16 -7 0 -5 -5 5 -11 9 -6 15 -14 12 -19 -3 -5 -1 -11 5 -15 6 -4 7 -11 4
-17 -4 -6 -2 -8 4 -4 6 3 13 2 17 -4 3 -5 0 -10 -7 -10 -9 0 -9 -3 -2 -8 6 -4
14 -14 18 -22 3 -8 4 -5 2 8 -2 12 -1 22 4 22 11 0 19 -48 8 -54 -5 -2 -3 -3
4 -2 7 2 12 14 11 27 -1 15 0 17 3 6 3 -10 11 -14 17 -11 8 5 8 2 0 -7 -16
-16 -17 -33 -3 -24 6 4 10 3 9 -2 -1 -4 0 -10 1 -13 7 -19 7 -39 -1 -34 -5 3
-6 10 -3 16 4 7 2 8 -4 4 -7 -4 -12 -2 -12 3 0 6 -5 11 -12 11 -6 0 -1 -11 12
-25 13 -14 29 -24 36 -21 7 3 20 -5 31 -16 10 -12 12 -18 4 -13 -11 6 -13 4
-7 -10 5 -14 4 -16 -7 -7 -10 9 -14 8 -14 -3 0 -8 3 -13 6 -11 3 2 17 -1 31
-6 l25 -9 -25 -14 c-23 -13 -23 -14 -4 -15 11 0 25 5 30 10 7 7 10 2 10 -15 0
-17 -3 -22 -10 -15 -5 5 -15 10 -20 10 -6 0 -4 -5 4 -10 8 -5 15 -13 16 -17 2
-22 17 -42 28 -36 6 4 6 1 -2 -9 -10 -13 -10 -17 3 -22 11 -4 14 -2 10 7 -4 6
0 4 8 -5 8 -10 17 -16 20 -13 4 3 5 2 2 -2 -3 -3 0 -12 6 -20 6 -7 8 -13 3
-13 -5 0 -2 -5 6 -11 13 -9 13 -10 0 -6 -8 2 -14 9 -13 15 3 15 -25 23 -33 9
-4 -7 -4 -9 0 -6 4 4 18 -4 32 -18 13 -13 29 -21 36 -17 6 4 8 3 4 -4 -3 -6 1
-15 10 -20 15 -8 15 -10 0 -15 -17 -7 -12 -37 6 -37 6 0 4 8 -3 18 -11 14 -10
13 9 -2 23 -20 30 -32 12 -21 -5 3 -10 1 -10 -5 0 -6 -5 -8 -12 -4 -7 4 -8 3
-4 -5 4 -6 12 -8 18 -5 6 4 8 -1 3 -15 -4 -13 -2 -21 5 -21 6 0 8 -5 4 -12 -4
-7 -3 -8 5 -4 8 6 9 12 2 20 -8 9 -7 13 2 13 13 0 15 -6 19 -47 1 -11 7 -19
13 -18 5 2 12 -2 13 -7 2 -6 9 -16 15 -24 9 -11 9 -13 1 -8 -21 12 -23 -21 -4
-38 11 -10 18 -21 15 -25 -2 -4 2 -7 10 -7 11 0 12 4 3 14 -8 11 -7 12 6 7 21
-8 20 -20 -1 -33 -12 -7 -14 -10 -4 -11 11 0 11 -3 0 -17 -13 -16 -12 -17 3
-4 10 7 15 17 12 22 -3 5 0 9 6 9 7 0 10 -7 6 -15 -3 -9 3 -20 14 -27 15 -10
17 -15 7 -27 -10 -12 -9 -13 2 -7 10 7 12 3 6 -15 -5 -19 -4 -21 4 -9 9 13 11
13 11 -1 0 -8 -6 -21 -12 -28 -7 -8 -1 -6 14 3 28 18 43 10 27 -14 -6 -11 -9
-12 -9 -2 0 7 -5 10 -11 6 -8 -5 -6 -10 5 -16 12 -7 22 -5 33 4 15 12 15 11 3
-9 -8 -12 -18 -19 -24 -16 -5 4 -6 1 -1 -6 5 -9 10 -10 18 -2 6 6 15 11 21 11
5 0 -1 -8 -13 -19 -19 -16 -19 -19 -5 -25 14 -5 14 -9 3 -24 -13 -15 -12 -16
4 -3 13 11 20 11 32 1 8 -6 20 -8 26 -4 8 5 9 3 5 -5 -5 -7 -14 -10 -22 -7 -8
3 -14 1 -14 -4 0 -6 6 -10 13 -10 8 0 7 -4 -3 -10 -8 -5 -10 -10 -5 -10 6 0
16 5 23 12 9 9 12 9 12 1 0 -7 -4 -14 -10 -18 -6 -3 -5 -15 2 -31 8 -17 15
-21 22 -14 13 13 26 13 26 -1 0 -5 -4 -7 -10 -4 -5 3 -10 -1 -10 -9 0 -9 7
-13 18 -11 23 4 24 -41 2 -56 -13 -9 -12 -10 3 -5 11 3 17 0 17 -9 0 -8 -5
-15 -11 -15 -5 0 -7 -5 -3 -11 5 -8 10 -6 16 5 5 9 14 16 21 16 8 0 8 -3 2 -8
-16 -10 -12 -35 5 -39 13 -4 13 -3 0 6 -13 9 -13 11 2 11 10 0 16 -7 15 -19
-1 -12 -6 -17 -16 -13 -14 5 -14 4 -1 -10 12 -12 18 -13 29 -4 12 9 12 8 2
-11 -13 -25 -3 -31 18 -10 10 10 11 9 6 -4 -3 -9 -16 -22 -28 -28 l-22 -11 23
6 c12 3 22 1 22 -5 0 -5 9 -8 20 -6 12 2 18 0 15 -6 -4 -5 -10 -7 -15 -4 -5 3
-11 1 -15 -5 -3 -6 4 -10 17 -11 13 0 17 -3 11 -6 -16 -6 -17 -33 -2 -33 5 0
8 4 5 8 -3 5 1 9 9 9 8 0 13 -5 12 -11 -1 -6 3 -10 10 -9 7 2 10 -6 8 -17 -2
-10 3 -24 11 -31 8 -6 14 -17 14 -23 0 -6 -5 -4 -10 4 -8 12 -10 9 -10 -12 0
-28 29 -46 52 -32 9 6 9 3 -1 -9 -7 -9 -17 -15 -21 -12 -4 3 -11 -2 -14 -10
-4 -13 -2 -13 14 -5 28 15 34 12 19 -7 -7 -10 -9 -15 -5 -11 9 8 35 -19 36
-37 0 -5 -5 -3 -10 5 -8 13 -10 13 -10 -1 0 -9 11 -22 25 -29 25 -14 33 -36
15 -42 -6 -2 -2 -8 8 -15 15 -9 19 -8 19 3 0 7 -5 10 -10 7 -6 -3 -7 -1 -3 6
10 16 25 5 21 -17 -1 -10 -10 -16 -21 -15 -16 1 -16 -1 4 -15 18 -14 20 -20
10 -30 -7 -8 -8 -13 -3 -12 22 5 35 -1 35 -15 0 -8 4 -15 10 -15 5 0 7 -6 4
-14 -3 -7 2 -16 12 -20 14 -5 15 -4 4 9 -7 8 -8 15 -2 15 18 0 21 -29 4 -40
-16 -11 -16 -11 1 -6 11 3 17 1 16 -7 -3 -25 2 -37 23 -57 14 -13 17 -20 8
-20 -7 0 -10 -3 -7 -6 4 -4 13 -1 21 5 11 9 16 9 22 0 4 -8 3 -9 -4 -5 -7 4
-12 1 -12 -9 0 -12 6 -15 23 -11 12 3 16 3 9 0 -6 -3 -9 -11 -6 -16 4 -6 2 -8
-4 -4 -6 3 -14 2 -17 -4 -4 -6 -1 -9 7 -8 7 2 12 -3 10 -10 -1 -8 2 -11 8 -7
5 3 10 1 10 -5 0 -6 5 -8 12 -4 7 4 8 3 4 -5 -4 -6 -11 -9 -16 -6 -5 3 -12 0
-16 -6 -4 -7 -3 -9 3 -6 15 9 24 -18 11 -31 -10 -10 -5 -10 31 -3 2 1 -2 7 -8
15 -9 11 -9 16 0 22 7 4 9 3 5 -4 -3 -6 -2 -13 4 -17 5 -3 10 -15 10 -26 0
-10 5 -19 10 -19 6 0 10 -5 10 -11 0 -5 -4 -7 -10 -4 -6 4 -7 -1 -3 -11 5 -14
8 -13 19 7 18 33 17 17 -1 -29 -15 -37 -15 -37 4 -13 l18 24 17 -26 c14 -21
15 -30 6 -47 -9 -18 -8 -25 6 -41 9 -10 14 -19 11 -19 -4 0 3 -11 15 -25 14
-17 29 -24 42 -20 12 3 15 2 9 -1 -7 -3 -13 -15 -13 -25 0 -11 -4 -18 -8 -15
-5 3 -9 -1 -9 -9 0 -13 4 -12 19 2 10 9 21 13 25 10 3 -4 1 -7 -5 -7 -6 0 -9
-7 -6 -15 4 -8 10 -13 14 -10 4 3 10 -2 13 -10 4 -10 1 -12 -11 -9 -9 3 -6 -1
8 -9 14 -9 24 -19 23 -24 -1 -4 5 -7 14 -6 10 1 12 -2 5 -9 -7 -7 -18 -6 -33
2 -21 10 -22 10 -7 -3 10 -8 15 -17 11 -21 -4 -4 0 -4 10 0 10 3 18 1 18 -5 1
-6 2 -15 3 -21 0 -5 9 -15 20 -23 16 -12 16 -14 2 -14 -9 0 -16 4 -16 9 0 5
-5 6 -12 2 -7 -5 -8 -2 -3 7 5 8 4 11 -1 6 -11 -11 -14 -61 -2 -68 12 -8 -2
-40 -15 -32 -6 4 -7 1 -1 -8 5 -8 7 -22 6 -31 -2 -10 1 -18 6 -18 5 0 8 11 7
24 -2 13 2 29 7 37 8 11 9 10 4 -4 -4 -12 1 -21 17 -28 22 -9 22 -10 0 -5 -16
3 -21 -1 -20 -15 1 -11 5 -19 10 -19 4 0 6 -4 3 -9 -4 -5 0 -12 6 -14 10 -4
10 -6 0 -6 -7 -1 -10 -6 -6 -13 4 -7 3 -8 -4 -4 -7 4 -12 2 -12 -3 0 -6 5 -11
11 -11 6 0 9 -5 7 -11 -2 -6 -8 -9 -13 -7 -6 2 -9 6 -8 11 2 4 -2 7 -8 7 -6 0
-7 5 -2 13 13 20 14 47 1 47 -6 0 -8 -3 -5 -7 4 -3 -1 -12 -11 -20 -16 -12
-15 -13 3 -6 17 6 18 4 8 -8 -10 -13 -10 -19 2 -35 15 -20 21 -59 7 -50 -5 3
-9 -1 -9 -9 0 -7 9 -13 19 -12 10 1 18 6 18 11 0 5 3 6 6 3 4 -4 1 -14 -6 -23
-12 -13 -11 -17 1 -25 10 -6 11 -9 1 -9 -7 0 -10 -5 -6 -12 4 -7 3 -8 -4 -4
-7 4 -12 2 -12 -3 0 -6 4 -11 9 -11 6 0 9 -9 8 -20 -1 -11 -4 -20 -7 -20 -10
0 -8 -34 3 -47 5 -7 6 -13 2 -13 -4 0 -2 -6 4 -14 15 -17 1 -28 -19 -15 -9 5
-10 9 -3 9 6 0 10 7 9 15 -3 19 -13 29 -13 12 -1 -22 -8 -42 -18 -50 -6 -5 -2
-6 9 -3 13 5 17 2 13 -9 -4 -8 -1 -17 5 -21 6 -4 8 -3 4 4 -3 6 -2 13 3 16 10
7 9 -13 -2 -30 -3 -6 -3 -14 1 -18 10 -10 11 -67 1 -60 -4 2 -6 11 -2 19 6 17
-5 19 -25 6 -11 -7 -11 -9 2 -14 9 -4 16 -18 16 -32 0 -15 -4 -24 -8 -21 -5 3
-9 -1 -9 -9 0 -7 9 -13 19 -12 10 1 18 6 18 11 0 5 3 6 6 3 4 -4 1 -14 -6 -23
-12 -13 -11 -17 1 -25 10 -6 11 -9 1 -9 -7 0 -10 -5 -6 -12 4 -7 3 -8 -4 -4
-8 5 -12 -3 -12 -23 0 -36 15 -48 29 -24 6 10 11 13 11 7 0 -6 -6 -17 -14 -23
-7 -6 -12 -24 -10 -41 2 -17 -1 -30 -6 -30 -5 0 -7 11 -4 25 5 26 -2 30 -24
16 -11 -6 -10 -10 3 -15 14 -5 15 -9 5 -21 -7 -8 -9 -15 -4 -15 5 0 2 -5 -6
-11 -13 -9 -13 -10 0 -6 8 2 14 10 12 16 -1 7 2 10 8 6 6 -3 8 -11 4 -16 -3
-5 0 -16 6 -24 7 -8 9 -15 5 -15 -4 0 -2 -6 4 -14 15 -17 1 -28 -19 -15 -9 5
-10 9 -3 9 6 0 10 7 9 15 -3 19 -13 29 -13 12 -1 -22 -8 -42 -18 -50 -6 -5 -3
-7 7 -3 14 4 17 1 14 -17 -3 -12 -5 -26 -5 -30 -1 -5 -6 -5 -13 -1 -7 5 -8 3
-2 -7 5 -8 7 -22 6 -32 -2 -9 0 -17 5 -17 4 0 9 12 10 28 2 36 8 60 16 68 8 8
1 -32 -8 -46 -3 -6 4 -15 17 -20 22 -10 22 -10 1 -6 -16 3 -21 -1 -20 -15 1
-11 5 -19 10 -19 4 0 6 -4 3 -9 -4 -5 0 -12 6 -14 10 -4 10 -6 0 -6 -7 -1 -10
-6 -6 -13 4 -7 3 -8 -4 -4 -7 4 -12 2 -12 -3 0 -6 5 -11 11 -11 6 0 9 -5 7
-11 -2 -6 -8 -9 -13 -7 -6 2 -9 6 -8 11 2 4 -2 7 -8 7 -6 0 -7 5 -2 13 13 20
14 47 1 47 -6 0 -8 -3 -5 -7 4 -3 -1 -12 -11 -20 -16 -12 -15 -13 3 -6 17 6
18 4 8 -8 -10 -13 -10 -19 2 -35 15 -20 21 -59 7 -50 -5 3 -9 -1 -9 -9 0 -7 9
-13 19 -12 10 1 18 6 18 11 0 5 3 6 6 3 4 -4 1 -14 -6 -23 -12 -13 -11 -17 1
-25 10 -6 11 -9 1 -9 -7 0 -10 -5 -6 -12 4 -7 3 -8 -4 -4 -7 4 -12 2 -12 -3 0
-6 4 -11 9 -11 6 0 9 -9 8 -20 -1 -11 -4 -20 -7 -20 -10 0 -8 -34 3 -47 5 -7
6 -13 2 -13 -4 0 -2 -6 4 -14 15 -17 1 -28 -19 -15 -9 5 -10 9 -3 9 6 0 10 7
9 15 -3 19 -13 29 -13 12 -1 -22 -8 -42 -18 -50 -6 -5 -2 -6 9 -3 13 5 17 2
13 -9 -4 -8 -1 -17 5 -21 6 -4 8 -3 4 4 -3 6 -2 13 3 16 10 7 9 -13 -2 -30 -3
-6 -3 -14 1 -18 10 -10 11 -67 1 -60 -4 2 -6 11 -2 19 6 17 -5 19 -25 6 -11
-7 -11 -9 2 -14 15 -6 19 -47 4 -47 -4 0 -5 -7 -2 -15 8 -21 24 -9 19 15 -2
11 0 20 6 20 5 0 7 -11 5 -24 -2 -14 1 -27 7 -29 7 -2 4 -3 -5 -2 -21 4 -24
-11 -5 -18 7 -4 6 -6 -5 -6 -9 -1 -19 5 -22 12 -2 6 -4 2 -2 -10 1 -12 6 -26
11 -30 4 -5 5 -2 0 6 -5 9 -4 12 3 7 6 -4 9 -13 6 -21 -4 -8 -10 -12 -15 -9
-5 3 -9 1 -9 -4 0 -6 7 -12 15 -16 8 -3 14 -2 12 2 -2 8 6 12 25 12 6 0 3 -6
-7 -14 -11 -8 -23 -12 -26 -10 -4 2 -13 -4 -20 -14 -13 -15 -12 -16 4 -3 13
10 17 10 17 1 0 -10 3 -10 14 -1 11 9 16 9 22 0 4 -8 3 -9 -4 -5 -16 10 -15
-7 1 -23 10 -11 9 -13 -1 -7 -7 4 -15 1 -18 -8 -3 -9 -11 -13 -18 -9 -6 3 -5
0 2 -8 11 -12 14 -12 23 1 9 13 10 12 6 -2 -3 -9 -3 -19 1 -21 4 -2 2 -2 -5
-1 -7 2 -15 -2 -19 -8 -4 -7 -3 -8 4 -4 7 4 12 2 12 -4 0 -6 4 -9 8 -6 5 3 9
-1 9 -9 0 -8 -4 -12 -8 -10 -4 3 -10 -2 -13 -11 -3 -8 -2 -13 2 -10 4 2 14 1
22 -4 12 -7 11 -13 -5 -31 -11 -12 -15 -19 -9 -16 7 4 15 0 18 -9 4 -11 2 -15
-7 -11 -8 3 -14 -1 -14 -8 0 -10 7 -11 25 -4 14 5 27 7 30 4 3 -3 0 -5 -7 -5
-7 0 -3 -9 10 -21 13 -11 18 -18 12 -14 -8 3 -13 0 -13 -9 0 -8 -6 -17 -13
-20 -6 -3 -1 -3 12 0 15 4 21 2 17 -4 -3 -6 -3 -12 1 -15 5 -2 3 -2 -4 -1 -18
4 -27 -16 -14 -29 9 -9 11 -8 5 6 -6 17 -5 18 15 6 11 -8 21 -19 21 -26 0 -7
7 -10 18 -7 14 5 15 4 2 -5 -11 -8 -18 -7 -28 6 -6 9 -12 12 -12 6 0 -17 28
-35 42 -28 7 4 4 -1 -6 -9 -23 -18 -14 -21 16 -5 15 8 19 8 14 0 -4 -6 -2 -11
4 -11 6 0 8 -5 4 -11 -5 -8 -9 -8 -14 1 -5 9 -9 9 -14 1 -6 -10 6 -15 19 -8 2
1 11 -7 20 -18 9 -11 14 -14 10 -7 -8 16 0 15 14 -2 9 -11 9 -16 0 -22 -8 -5
-9 -3 -4 6 6 9 4 11 -4 6 -9 -6 -8 -13 6 -28 10 -11 16 -22 13 -23 -3 -2 -1
-7 4 -12 5 -4 6 -3 3 4 -4 6 -1 13 5 16 23 7 45 -4 59 -31 8 -15 22 -34 33
-42 10 -8 32 -27 49 -42 35 -33 34 -32 34 -13 0 8 -4 12 -8 9 -4 -2 -10 0 -13
5 -3 5 3 11 14 14 11 3 19 2 18 -2 -3 -25 5 -40 25 -43 13 -2 21 -9 19 -18 -3
-12 -1 -13 10 -2 11 11 10 15 -2 22 -11 8 -9 9 10 6 14 -3 26 -5 28 -7 1 -1 5
-2 10 -4 23 -6 42 -18 42 -27 0 -7 -5 -6 -13 1 -8 6 -18 7 -22 3 -5 -4 -5 -1
0 7 6 10 4 12 -5 6 -7 -4 -16 -2 -21 6 -6 10 -9 10 -9 2 0 -11 18 -25 45 -35
5 -1 9 -6 8 -10 -4 -11 15 -10 19 1 2 5 19 11 38 12 19 2 39 8 43 14 5 5 5 -1
2 -14 -5 -15 -3 -21 3 -17 6 3 14 2 17 -4 5 -8 11 -8 20 0 10 8 15 8 20 0 4
-7 11 -8 18 -2 7 5 20 8 30 7 10 -2 21 3 24 11 3 8 9 14 14 14 6 0 5 -10 -1
-23 -11 -22 -11 -22 7 -2 10 11 25 20 33 20 8 0 14 7 12 15 -3 12 -1 13 9 2
16 -15 33 -16 23 0 -4 7 -3 8 5 4 6 -4 8 -12 5 -18 -5 -8 -1 -9 12 -4 10 4 24
9 31 10 7 1 16 6 20 11 4 4 2 5 -6 0 -10 -6 -12 -4 -7 4 6 9 11 9 24 -1 13
-11 15 -10 9 4 -8 22 6 23 28 2 14 -15 15 -14 11 10 -2 14 0 28 5 32 5 3 9 2
8 -3 -3 -19 2 -30 16 -30 11 0 12 4 3 14 -6 7 -8 16 -4 20 3 3 6 2 6 -4 0 -6
7 -14 16 -17 8 -3 12 -2 9 4 -3 6 -1 10 5 10 7 0 10 6 7 13 -2 6 3 19 11 27
14 13 15 12 9 -3 -7 -19 0 -21 23 -7 9 5 19 5 27 -1 9 -8 11 -5 8 11 -3 17 0
20 12 16 10 -4 14 -2 10 8 -3 8 1 22 9 33 14 17 15 17 10 -7 -3 -14 -3 -19 0
-12 3 6 10 10 14 7 5 -3 7 3 5 15 -3 18 13 24 25 9 3 -4 12 0 20 9 13 14 12
15 -3 9 -9 -3 -17 -2 -17 4 0 6 -4 8 -8 5 -5 -3 -9 1 -9 9 0 9 4 11 11 6 17
-13 43 -9 43 6 0 9 -4 10 -14 2 -8 -7 -13 -8 -13 -1 0 18 29 21 40 4 9 -14 10
-13 4 7 -5 18 -3 22 7 15 12 -6 12 -5 1 8 -8 9 -9 19 -4 22 13 8 34 -18 24
-29 -4 -5 -1 -5 5 -1 10 5 10 11 1 26 -10 15 -10 22 0 32 11 11 12 9 7 -7 -5
-15 -4 -17 3 -6 6 8 8 20 5 28 -3 8 3 13 17 13 11 0 19 4 15 9 -3 5 0 13 5 16
8 5 5 14 -7 27 -18 20 -18 21 4 9 32 -16 41 -14 15 5 -17 11 -20 19 -13 28 6
7 7 17 3 21 -4 5 -1 5 6 1 7 -4 10 -12 7 -17 -3 -5 1 -6 10 -3 12 5 13 9 4 20
-6 8 -8 14 -4 14 4 0 2 7 -5 16 -11 12 -11 15 0 12 8 -2 14 3 15 10 0 14 13
17 23 6 4 -4 2 -4 -5 0 -8 4 -11 0 -8 -14 2 -11 0 -18 -4 -16 -4 3 -8 -1 -8
-9 0 -17 16 -21 18 -5 3 20 4 25 12 37 4 6 2 17 -5 25 -17 18 -22 42 -7 32 9
-5 10 -2 6 9 -3 10 -2 17 3 17 5 0 7 7 4 15 -4 8 -11 12 -17 8 -6 -3 -7 -1 -3
6 4 6 11 9 16 6 4 -3 11 2 14 11 4 11 2 15 -8 11 -10 -4 -13 -1 -9 8 4 11 10
12 23 5 32 -17 37 -11 7 8 -31 21 -26 37 7 21 21 -9 21 -9 1 5 -51 38 -59 46
-44 41 12 -4 15 1 13 23 -1 18 3 29 12 29 7 0 11 -4 8 -9 -3 -4 -1 -8 5 -8 5
0 9 9 8 20 -1 15 -7 19 -22 15 -11 -3 -14 -2 -7 1 10 5 9 9 -5 20 -17 13 -17
14 2 7 11 -3 17 -3 13 2 -4 4 -2 17 4 29 10 18 9 19 -4 9 -12 -10 -15 -10 -15
0 0 8 6 14 14 15 7 1 19 3 27 4 11 1 12 6 4 24 -6 13 -16 20 -21 17 -8 -5 -7
-8 1 -11 20 -6 14 -18 -10 -19 -18 -2 -20 0 -8 7 8 5 11 10 6 10 -4 0 -1 12 9
26 16 26 16 26 -7 20 -22 -7 -22 -6 2 8 14 8 29 12 35 9 5 -4 7 -2 2 2 -10 11
-48 14 -41 3 3 -4 1 -8 -4 -8 -6 0 -9 10 -8 23 1 16 7 23 21 24 11 1 14 -1 7
-4 -6 -3 -12 -9 -12 -14 0 -5 9 -4 20 3 16 10 17 14 5 21 -8 4 -12 14 -9 22 4
8 1 15 -5 15 -6 0 -10 -5 -8 -11 1 -6 -4 -13 -11 -15 -7 -1 -8 0 -2 3 7 3 4
10 -7 19 -17 13 -17 14 0 8 10 -4 17 -3 16 2 -4 22 2 33 16 28 8 -4 15 -1 15
5 0 6 -5 10 -11 8 -6 -1 -14 4 -16 11 -3 7 -1 12 4 11 21 -4 34 2 27 12 -5 8
-9 8 -14 -1 -6 -9 -11 -6 -20 10 -11 20 -10 22 3 17 8 -3 18 0 21 8 3 9 0 12
-10 8 -7 -3 -14 0 -14 5 0 6 9 14 20 17 11 4 17 11 14 17 -4 7 -9 6 -14 -2 -4
-6 -11 -12 -15 -12 -13 0 -24 25 -17 37 13 20 13 47 0 39 -10 -6 -10 -4 0 8
10 13 10 17 0 22 -7 3 -4 4 7 1 14 -3 25 2 34 18 11 17 11 19 0 9 -19 -18 -34
-15 -18 5 10 11 10 14 2 9 -8 -4 -13 -2 -13 4 0 6 -5 8 -12 4 -10 -6 -10 -4 0
8 14 17 13 38 -3 51 -6 5 -4 7 5 4 8 -2 23 0 33 5 16 8 16 11 2 38 -9 17 -18
30 -21 30 -3 0 -3 -4 1 -9 3 -5 2 -12 -3 -15 -5 -3 -8 9 -8 27 1 27 -2 31 -19
29 -16 -2 -17 -1 -5 7 15 11 44 -5 35 -19 -3 -4 2 -11 10 -14 13 -4 14 -2 5
14 -7 14 -8 26 0 39 14 27 13 34 -4 19 -8 -7 -12 -16 -9 -20 2 -4 -3 -5 -13
-1 -14 5 -15 7 -1 15 10 5 14 15 10 25 -4 9 -2 14 3 10 6 -3 16 -2 23 2 9 6
10 11 2 15 -6 4 -11 2 -11 -4 0 -6 -4 -8 -10 -5 -6 4 -4 15 6 30 15 24 15 24
-13 20 -27 -5 -27 -4 7 16 32 18 28 19 -20 2 -8 -3 -4 3 10 13 29 21 40 35 39
49 0 6 -3 4 -6 -3 -8 -20 -40 -34 -40 -17 0 8 4 12 8 10 4 -3 10 2 13 11 5 12
1 14 -17 9 -20 -5 -20 -5 3 9 14 8 29 12 35 9 5 -4 7 -2 2 2 -10 11 -48 14
-41 3 3 -4 1 -8 -4 -8 -6 0 -9 10 -8 23 1 16 7 23 21 24 11 1 14 -1 7 -4 -6
-3 -12 -9 -12 -14 0 -5 9 -4 20 3 16 10 17 14 5 21 -8 4 -12 14 -9 22 4 8 1
15 -5 15 -6 0 -10 -5 -8 -11 1 -6 -4 -13 -11 -15 -7 -1 -8 0 -2 3 7 3 4 10 -7
19 -17 13 -17 14 0 8 10 -4 17 -3 16 2 -4 22 2 33 15 28 8 -3 17 -1 21 5 4 7
0 8 -11 4 -12 -5 -15 -3 -9 6 6 10 2 12 -16 7 l-24 -7 25 15 c14 8 29 12 35 9
5 -4 7 -2 2 2 -10 11 -48 14 -41 3 3 -4 1 -8 -4 -8 -6 0 -9 10 -8 23 1 16 7
23 21 24 11 1 14 -1 8 -4 -7 -3 -13 -9 -13 -14 0 -5 9 -4 20 3 16 10 17 14 5
21 -8 4 -12 14 -9 22 4 8 1 15 -5 15 -6 0 -10 -5 -8 -11 1 -6 -4 -13 -11 -15
-7 -1 -8 0 -2 3 7 3 4 10 -7 19 -17 13 -17 14 0 8 10 -4 17 -3 16 2 -4 22 2
33 16 28 8 -4 15 -1 15 5 0 6 -5 10 -11 8 -6 -1 -14 4 -16 11 -3 7 -1 12 4 11
21 -4 34 2 27 12 -5 8 -9 8 -14 -1 -6 -9 -11 -6 -20 10 -11 20 -10 22 3 17 8
-3 18 0 21 8 3 9 0 12 -10 8 -7 -3 -14 0 -14 5 0 6 9 14 20 17 11 4 17 11 14
17 -4 7 -9 6 -14 -2 -4 -6 -11 -12 -15 -12 -13 0 -24 25 -17 37 13 20 13 47 0
39 -10 -6 -10 -4 0 8 10 13 10 17 0 22 -7 3 -4 4 7 1 14 -3 25 2 34 18 11 17
11 19 0 10 -19 -19 -34 -16 -18 4 10 11 10 14 2 9 -8 -4 -13 -2 -13 4 0 6 -5
8 -12 4 -10 -6 -10 -4 0 8 7 9 12 20 11 24 -4 22 2 35 12 28 8 -4 7 -9 -2 -15
-8 -5 -9 -9 -4 -9 6 0 16 4 23 9 11 7 11 9 -2 14 -9 4 -13 13 -10 22 3 8 1 15
-6 15 -6 0 -8 -6 -4 -12 5 -10 4 -10 -5 -2 -7 6 -14 20 -16 30 -1 11 -9 18
-16 16 -8 -2 -10 0 -6 5 5 4 14 8 19 8 6 0 13 6 16 14 3 9 0 11 -9 5 -12 -6
-12 -5 -1 8 9 11 9 18 2 21 -7 4 -7 5 1 3 6 -1 11 -6 11 -11 0 -6 4 -18 10
-29 8 -14 7 -17 -3 -11 -8 5 -10 4 -5 -3 11 -19 29 -14 21 6 -13 33 -12 47 4
66 9 11 10 16 4 12 -9 -5 -12 1 -9 24 3 25 1 28 -10 19 -9 -7 -14 -8 -14 -1 0
13 29 24 42 16 6 -4 6 2 -1 14 -16 30 -14 35 13 30 22 -5 24 -3 15 21 -10 24
-9 24 9 8 15 -14 19 -14 19 -2 0 8 -4 12 -8 10 -4 -3 -10 2 -13 11 -4 12 -2
15 9 10 8 -3 15 -1 15 5 0 6 6 7 13 3 9 -6 9 -4 1 7 -14 18 -14 51 0 46 6 -2
10 -13 8 -23 -2 -14 -1 -16 6 -5 5 7 16 18 23 23 11 7 9 8 -5 4 -13 -5 -17 -2
-12 9 3 8 1 15 -5 15 -6 0 -3 7 5 16 9 8 13 21 10 27 -5 8 -2 8 7 0 7 -7 18
-13 23 -13 6 0 4 5 -4 10 -8 5 -10 10 -5 10 26 1 37 17 26 38 -8 14 -8 23 -1
27 6 4 8 16 5 28 -5 17 -2 15 14 -7 11 -17 17 -34 14 -39 -3 -6 -1 -7 5 -3 9
5 9 13 0 29 -17 30 -18 46 -6 54 7 3 8 1 4 -5 -4 -7 -2 -12 4 -12 6 0 8 -6 4
-12 -4 -7 1 -5 12 4 18 17 18 18 -1 33 -17 12 -17 14 -2 9 19 -7 24 11 5 20
-7 3 3 4 22 1 19 -3 28 -2 20 2 -8 3 -23 15 -35 26 l-20 19 22 -11 c31 -16 47
-14 31 3 -7 8 -16 12 -20 9 -4 -2 -5 4 -1 13 4 11 8 13 11 6 2 -7 9 -9 14 -6
6 4 8 3 5 -3 -3 -5 0 -10 7 -10 7 0 13 6 13 14 0 7 -4 13 -8 13 -4 0 -10 8
-14 18 -5 14 -4 15 6 5 22 -22 28 -14 17 18 -6 16 -8 33 -4 36 3 4 6 -1 6 -11
0 -9 4 -14 10 -11 6 3 7 -1 4 -12 -3 -10 2 -7 10 7 20 33 20 45 -1 29 -16 -13
-17 -12 -4 4 11 14 16 15 29 5 13 -11 14 -10 4 9 -9 16 -9 24 0 29 7 5 8 3 3
-6 -5 -9 -4 -11 4 -6 9 6 9 11 -1 24 -11 13 -10 15 5 9 9 -3 17 -2 17 4 0 6 4
8 9 5 5 -3 12 1 15 10 9 24 7 34 -6 30 -7 -1 -10 -1 -5 1 4 3 7 9 7 14 0 6 -5
7 -12 3 -7 -5 -8 -3 -3 5 5 9 10 10 18 2 6 -6 18 -11 27 -10 10 0 11 2 2 6 -7
2 -17 14 -23 25 -7 13 -7 18 -1 14 6 -3 13 0 16 6 3 7 3 2 0 -12 -4 -17 -3
-22 4 -15 6 6 12 22 14 37 2 15 8 31 13 35 4 4 5 2 1 -4 -4 -8 -1 -13 9 -13
12 0 14 4 6 18 -7 13 -6 23 1 30 9 9 9 12 -2 12 -9 0 -6 6 8 16 12 8 20 20 16
25 -3 5 0 8 8 7 8 -2 12 5 10 17 -2 16 -1 17 7 5 7 -10 6 -19 -5 -31 -8 -8
-11 -19 -7 -24 5 -4 1 -5 -7 0 -8 5 -12 5 -8 0 4 -4 3 -14 -3 -22 -15 -18 -1
-17 17 1 8 8 13 21 12 28 -2 7 2 12 8 11 6 -1 9 14 8 38 -1 21 2 42 7 45 5 3
7 10 4 15 -4 5 -2 9 4 9 5 0 9 -9 8 -19 0 -11 -5 -17 -11 -14 -5 3 -6 1 -2 -5
5 -9 12 -8 26 0 14 9 16 14 7 20 -7 4 -8 8 -3 8 5 0 2 7 -5 17 -13 15 -12 15
8 5 15 -8 24 -9 28 -2 4 6 3 9 -2 8 -4 -2 -9 1 -10 6 -1 5 -7 13 -15 18 -8 6
-5 7 12 2 22 -6 23 -5 12 9 -12 14 -11 16 10 12 21 -4 22 -3 5 9 -16 12 -16
14 -2 20 9 3 13 10 10 16 -3 5 2 10 11 10 16 0 16 -1 0 -19 -17 -19 -17 -19 1
-17 20 3 24 24 9 45 -9 12 -7 13 8 8 17 -7 17 -6 5 10 -12 15 -12 16 3 10 12
-4 21 0 28 14 6 11 15 17 20 14 4 -3 7 3 6 12 -2 10 -7 16 -12 13 -5 -3 -8 -9
-6 -13 1 -5 -2 -6 -8 -2 -8 5 -8 11 0 20 7 8 8 20 4 27 -6 10 -5 11 8 1 8 -7
18 -10 22 -6 4 4 -3 16 -16 26 -13 10 -17 16 -10 12 7 -3 25 -8 40 -10 15 -2
21 -2 14 1 -6 3 -10 10 -7 15 4 5 0 6 -8 3 -8 -3 -18 -1 -22 5 -4 7 0 8 11 4
12 -5 15 -3 9 6 -6 10 -3 11 15 1 13 -7 20 -8 16 -2 -3 6 -2 13 3 17 6 3 7 13
4 23 -6 15 -5 16 12 2 17 -14 17 -14 5 7 -8 12 -20 19 -29 16 -9 -2 -4 4 12
13 15 10 27 22 27 26 0 4 6 5 13 2 8 -3 14 2 14 10 0 8 -5 13 -11 12 -6 -2 -7
-1 -3 2 4 2 2 11 -5 20 -10 12 -10 14 0 8 6 -4 12 -2 12 3 0 6 5 11 11 11 8 0
8 -5 -1 -15 -7 -8 -8 -15 -3 -15 5 0 15 12 21 26 7 15 17 22 24 18 7 -4 8 -3
4 4 -5 9 -13 9 -29 1 -22 -10 -22 -10 -2 6 11 9 20 20 20 25 0 4 3 12 8 16 11
12 8 26 -5 18 -7 -4 -8 -3 -4 4 4 6 13 9 22 5 13 -5 13 -8 -2 -24 -16 -18 -16
-19 0 -19 9 0 15 4 12 8 -3 5 6 20 20 35 25 27 32 43 14 32 -12 -7 -8 31 5 42
4 5 5 3 2 -3 -4 -7 1 -18 11 -25 15 -13 16 -12 3 4 -7 9 -10 17 -7 17 4 0 2 8
-3 18 -7 14 -6 19 5 20 7 1 20 3 27 4 8 1 14 7 14 15 0 10 -3 10 -16 0 -10 -8
-13 -8 -8 0 4 6 1 14 -5 17 -7 2 -3 4 10 2 13 -1 27 -9 32 -16 5 -9 7 1 6 25
-4 44 2 67 14 60 5 -3 11 -1 15 5 4 6 11 8 16 5 5 -3 6 2 2 11 -5 13 -3 15 7
9 8 -5 11 -4 6 3 -3 6 2 15 11 21 10 6 12 11 6 11 -20 0 -28 -4 -25 -13 1 -5
-2 -6 -7 -2 -16 9 -1 35 20 35 10 0 19 5 19 11 0 5 5 7 12 3 7 -4 8 -3 4 4 -4
7 -2 12 5 12 8 0 5 5 -5 13 -17 12 -17 14 1 28 16 12 17 12 6 -2 -10 -12 -10
-16 0 -16 7 0 14 11 15 24 1 13 2 35 3 49 1 18 4 22 10 13 4 -7 5 -17 2 -23
-3 -5 -1 -6 5 -2 16 9 15 46 0 46 -6 0 -8 3 -5 6 4 4 13 1 22 -6 13 -11 14
-10 9 5 -6 14 -4 16 7 11 8 -4 6 -1 -4 7 -16 13 -16 15 -2 21 9 3 13 11 9 17
-4 8 -3 9 4 5 11 -7 17 6 13 27 -1 5 3 6 9 2 5 -3 10 1 10 10 0 9 5 13 10 10
6 -4 10 5 10 19 0 29 9 33 29 14 10 -9 12 -9 7 -1 -3 6 -2 14 3 18 6 3 8 12 4
21 -4 12 -8 12 -22 2 -14 -11 -14 -11 -3 4 8 9 23 15 35 13 19 -4 20 -3 6 8
-9 7 -16 19 -16 29 0 13 4 14 18 5 10 -6 15 -16 12 -22 -4 -5 -2 -6 3 -2 5 5
9 16 9 25 0 9 6 18 13 18 24 3 24 4 11 20 -18 22 -20 44 -3 37 8 -3 14 -10 14
-16 0 -6 3 -7 6 -4 4 4 2 13 -5 21 -9 11 -8 15 6 21 10 5 22 7 26 6 5 -1 5 4
2 10 -5 8 -10 8 -18 0 -6 -6 -16 -11 -22 -11 -5 0 -2 5 8 11 9 6 15 15 11 21
-4 6 1 6 14 -1 30 -16 39 -14 16 4 -10 8 -14 15 -9 15 6 0 3 5 -5 10 -13 8
-12 10 4 10 13 0 16 -5 12 -17 -4 -11 1 -8 13 7 11 13 17 28 15 32 -3 5 2 11
10 14 9 3 13 10 10 15 -3 5 -1 9 5 9 6 0 8 6 5 13 -3 8 2 20 11 27 12 10 13
16 4 26 -14 17 2 19 19 2 9 -9 15 -9 25 1 10 10 8 11 -7 5 -14 -5 -17 -3 -14
7 3 8 11 13 17 11 7 -1 10 2 7 7 -4 5 -2 12 4 16 6 4 8 10 6 14 -3 4 -7 19
-10 34 -6 35 27 57 44 30 9 -15 10 -14 4 6 -4 15 -2 21 4 17 6 -3 14 -1 18 5
5 8 3 9 -6 4 -10 -6 -12 -4 -7 9 4 10 1 19 -8 23 -13 4 -12 8 5 23 18 16 19
18 4 24 -13 5 -14 9 -4 21 7 8 9 15 5 15 -4 0 -2 7 5 15 10 12 10 15 -1 15
-11 0 -11 2 1 10 13 8 13 10 1 10 -11 0 -10 4 4 14 11 8 26 11 34 8 14 -5 14
-4 1 10 -9 10 -19 13 -25 7 -5 -5 -14 -9 -20 -9 -5 0 -2 5 8 11 18 10 18 11 0
31 -18 21 -18 21 9 4 26 -17 26 -17 21 5 -4 13 -2 20 3 16 6 -3 10 5 10 18 0
13 -4 21 -8 19 -5 -3 -6 -9 -3 -14 3 -4 -2 -13 -10 -20 -13 -11 -15 -9 -14 6
4 35 -1 55 -10 49 -5 -3 -12 -1 -15 4 -4 5 1 8 10 7 8 -1 20 -9 25 -17 7 -11
9 -11 9 -1 0 7 4 11 8 8 4 -2 8 4 8 15 0 19 -1 19 -13 3 -7 -10 -14 -15 -14
-11 -1 4 -2 11 -3 16 0 5 -5 13 -10 18 -5 5 -6 3 -2 -4 4 -7 2 -13 -3 -13 -16
0 -13 20 4 26 8 4 15 10 15 15 0 6 -8 5 -19 -1 -17 -9 -19 -7 -16 10 2 11 0
22 -4 24 -10 6 -8 37 4 55 5 10 4 12 -3 7 -7 -4 -12 -2 -12 4 0 6 -4 9 -8 6
-4 -2 -14 -1 -21 3 -10 6 -9 10 4 14 10 5 14 3 9 -5 -4 -7 -3 -8 5 -4 9 6 9
11 -1 23 -7 9 -12 19 -10 22 2 3 -2 7 -10 9 -8 2 -9 0 -3 -5 15 -13 15 -30 0
-30 -8 0 -12 4 -9 9 3 5 1 14 -4 21 -11 14 -10 46 3 67 7 12 6 13 -7 3 -8 -7
-19 -9 -24 -5 -4 4 -2 -2 6 -12 8 -11 10 -17 3 -13 -6 4 -13 4 -16 0 -2 -5 -3
-3 -1 3 1 6 -3 17 -9 24 -9 10 -9 11 1 6 6 -4 12 -2 12 3 0 10 -14 15 -33 12
-5 -1 -6 3 -2 9 3 6 -4 14 -17 19 -17 7 -19 10 -5 10 9 1 17 8 17 16 0 9 -6
12 -15 9 -17 -7 -45 12 -45 30 0 6 5 4 11 -4 9 -12 10 -12 5 3 -3 10 -6 21 -6
24 0 3 -6 0 -13 -6 -10 -8 -18 -7 -32 3 -18 13 -32 51 -14 40 22 -13 6 7 -20
26 -21 14 -32 17 -37 9 -5 -8 -3 -9 7 -4 12 8 12 6 0 -8 -7 -9 -14 -17 -16
-17 -6 0 -1 37 8 48 17 22 -4 13 -24 -10 l-19 -23 10 28 c6 16 6 26 1 22 -5
-3 -12 -1 -16 5 -4 6 -11 8 -16 5 -18 -12 -49 -14 -54 -4 -4 5 -11 6 -17 3 -6
-4 -6 1 1 14 18 33 13 40 -7 9 -10 -15 -22 -24 -25 -20 -10 10 -8 25 2 19 5
-3 11 2 13 12 5 16 -9 18 -197 20 -179 3 -203 1 -209 -13 -3 -9 -10 -13 -16
-10 -5 3 -10 2 -10 -2 0 -5 -6 -18 -14 -29 -14 -19 -14 -19 -13 1 2 22 27 46
39 39 5 -3 8 -1 8 4 0 5 -13 9 -29 8 -18 0 -28 -6 -27 -16 1 -8 -5 -14 -12
-12 -8 1 -11 -2 -7 -8 3 -6 11 -7 17 -4 6 4 8 2 5 -4 -4 -5 -17 -8 -30 -4 -20
5 -21 4 -7 -13 14 -17 14 -17 -15 -2 -26 13 -33 13 -49 2 -12 -9 -16 -20 -12
-31 5 -14 4 -15 -8 -5 -12 10 -16 8 -21 -10 -5 -16 -9 -18 -15 -8 -5 7 -6 17
-3 22 3 5 -4 4 -16 -2 -25 -14 -28 -23 -3 -14 15 6 16 5 2 -12 -13 -17 -13
-18 0 -10 13 8 13 7 1 -8 -18 -22 -32 -22 -25 1 5 14 4 15 -5 2 -6 -8 -11 -23
-11 -33 0 -10 -4 -16 -10 -12 -5 3 -7 13 -4 23 5 15 4 15 -6 -1 -6 -9 -16 -14
-22 -11 -7 4 -8 2 -4 -5 4 -6 12 -9 17 -6 5 4 8 -4 6 -16 -2 -13 -9 -25 -16
-27 -18 -6 -60 -50 -53 -56 3 -3 0 -6 -6 -6 -5 0 -13 6 -15 13 -3 7 -6 4 -6
-6 -1 -10 -5 -15 -11 -12 -6 3 -10 1 -10 -5 0 -7 9 -9 23 -5 22 7 22 7 2 -9
-11 -8 -16 -16 -11 -16 5 0 3 -7 -4 -15 -6 -8 -9 -19 -5 -24 3 -7 0 -8 -10 -5
-12 5 -13 9 -4 20 7 9 8 14 1 14 -12 0 -23 -26 -14 -34 10 -11 11 -37 1 -30
-5 3 -6 10 -3 16 4 7 2 8 -4 4 -7 -4 -12 -2 -12 5 0 7 -3 10 -6 7 -3 -4 -1
-15 5 -26 8 -16 7 -23 -7 -33 -16 -13 -16 -12 -2 6 13 18 13 19 0 8 -9 -6 -14
-26 -14 -45 1 -18 -4 -39 -10 -47 -9 -12 -7 -13 9 -8 19 7 19 7 1 -8 -23 -17
-42 -9 -25 11 7 8 7 14 1 14 -9 0 -24 -24 -27 -45 0 -5 -7 -9 -14 -7 -7 1 -10
-2 -6 -8 5 -8 11 -7 21 1 12 10 14 8 11 -9 -2 -12 -7 -25 -12 -29 -4 -5 -5 -3
-2 3 3 6 0 11 -7 11 -8 0 -11 -8 -8 -19 2 -10 8 -16 12 -13 5 3 12 0 16 -6 4
-7 3 -9 -4 -5 -6 3 -13 2 -17 -4 -4 -6 -11 -8 -16 -4 -5 3 -6 10 -3 16 4 6 2
8 -4 5 -16 -11 -7 -42 12 -39 9 2 16 -2 16 -8 0 -5 -3 -9 -7 -9 -21 3 -33 -2
-33 -16 0 -8 -4 -15 -9 -15 -5 0 -7 -9 -4 -20 4 -15 0 -20 -13 -21 -11 0 -14
-3 -7 -5 13 -6 6 -34 -9 -34 -5 0 -6 5 -2 12 4 6 3 8 -4 5 -5 -4 -8 -16 -5
-28 4 -15 8 -17 14 -8 4 8 11 10 15 6 10 -9 1 -17 -24 -22 -16 -3 -19 0 -15
13 3 9 3 14 -1 10 -4 -3 -8 -13 -10 -21 -1 -8 -8 -22 -16 -31 -9 -12 -10 -20
-3 -27 8 -8 13 -7 18 2 5 8 4 10 -3 5 -7 -4 -12 -3 -12 3 0 6 9 15 19 21 25
13 41 13 18 -1 -9 -6 -15 -14 -12 -18 2 -5 -2 -14 -10 -21 -21 -18 -19 -35 3
-19 15 13 16 12 3 -3 -7 -10 -17 -15 -22 -12 -16 10 -9 -9 9 -23 15 -13 15
-13 -6 -3 -16 8 -27 8 -40 0 -16 -11 -16 -11 0 -6 23 7 32 -9 13 -24 -7 -6
-11 -18 -8 -26 3 -8 -5 -17 -21 -24 -34 -13 -33 -20 2 -14 18 3 23 2 13 -5 -8
-5 -10 -14 -6 -21 5 -7 4 -11 -1 -7 -12 7 -50 -20 -41 -29 4 -4 14 -1 24 7 11
9 14 10 9 2 -4 -7 -16 -18 -28 -24 -13 -7 -18 -7 -14 -1 3 6 2 14 -4 17 -6 4
-10 3 -9 -2 4 -23 -2 -43 -12 -38 -6 4 -5 -2 2 -13 11 -17 16 -19 29 -9 13 10
13 10 3 -4 -7 -9 -9 -20 -5 -25 4 -4 0 -3 -10 4 -11 9 -18 10 -23 2 -3 -6 -11
-8 -16 -5 -5 4 -9 1 -9 -5 0 -7 8 -9 19 -5 14 4 19 1 17 -9 -1 -9 -6 -19 -11
-23 -4 -5 -5 -2 0 6 6 11 4 13 -7 8 -9 -3 -22 0 -29 6 -8 7 -3 -1 11 -17 24
-27 24 -28 3 -17 -14 7 -24 8 -28 1 -6 -10 -5 -11 14 -14 5 0 13 -5 18 -10 5
-5 3 -6 -5 -2 -7 4 -15 1 -18 -8 -3 -9 -11 -13 -18 -9 -8 5 -8 3 0 -8 6 -8 11
-25 12 -38 1 -22 0 -23 -14 -5 -9 11 -12 13 -8 5 5 -11 3 -13 -9 -8 -9 3 -19
1 -23 -5 -4 -6 -3 -8 2 -5 6 3 16 2 24 -3 11 -7 11 -12 2 -23 -7 -7 -9 -16 -6
-19 3 -3 -3 -5 -13 -5 -14 2 -17 -4 -14 -23 1 -14 8 -28 15 -32 8 -6 8 -8 -1
-8 -6 0 -19 7 -27 16 -22 21 -20 5 2 -19 9 -11 11 -17 5 -13 -7 4 -22 1 -33
-7 -18 -12 -18 -15 -5 -20 17 -7 21 -27 4 -27 -5 0 -7 5 -3 12 4 6 3 8 -2 5
-5 -3 -11 -20 -12 -37 -2 -19 1 -29 8 -25 5 3 10 2 10 -3 0 -6 -7 -12 -15 -16
-8 -3 -12 -12 -9 -21 4 -10 0 -15 -10 -15 -9 0 -16 5 -16 11 0 5 5 7 12 3 7
-5 8 -3 3 6 -4 7 -2 16 6 21 9 5 9 9 2 9 -16 0 -54 -68 -42 -75 5 -4 7 -11 4
-16 -3 -5 2 -6 12 -3 16 5 16 4 -1 -6 -14 -10 -20 -9 -28 1 -8 11 -9 10 -4 -3
8 -25 -3 -48 -28 -58 -16 -7 -17 -9 -4 -9 9 -1 24 9 34 22 10 13 14 16 11 5
-3 -9 -3 -19 1 -21 4 -2 1 -2 -6 -1 -7 2 -15 -3 -18 -11 -4 -8 -12 -15 -19
-15 -8 0 -17 -5 -21 -11 -4 -8 1 -9 17 -5 21 6 22 6 7 -6 -12 -11 -14 -18 -6
-32 8 -14 7 -17 -1 -12 -8 5 -10 0 -7 -18 5 -26 -8 -44 -18 -27 -4 5 -2 12 4
16 6 4 8 11 4 16 -10 16 -22 0 -20 -25 2 -19 -1 -23 -15 -21 -10 2 -21 0 -23
-4 -3 -4 1 -8 9 -9 8 -1 22 -3 30 -4 8 -1 12 -5 9 -9 -2 -5 -11 -6 -19 -2 -8
3 -15 0 -15 -6 0 -6 6 -11 13 -11 9 0 8 -3 -2 -9 -7 -5 -11 -14 -7 -20 5 -7 1
-9 -9 -5 -11 5 -13 10 -5 19 8 9 8 15 0 20 -6 4 -10 3 -9 -2 1 -4 0 -10 -1
-13 -1 -3 -3 -14 -5 -25 -1 -11 -6 -29 -11 -40 -7 -18 -6 -18 9 -6 9 7 14 17
11 22 -3 5 0 9 5 9 16 0 13 -12 -8 -37 -21 -25 -32 -30 -29 -12 2 6 -4 14 -12
16 -10 3 -11 2 -4 -4 14 -10 9 -46 -7 -52 -7 -2 -2 -10 12 -18 21 -12 22 -13
4 -12 -37 2 -44 -1 -40 -21 2 -12 -2 -23 -10 -26 -11 -5 -12 -9 -2 -19 7 -7
16 -10 21 -7 5 3 6 0 2 -7 -6 -9 -11 -9 -21 -1 -9 7 -16 6 -24 -4 -9 -11 -9
-16 0 -22 7 -4 9 -3 5 4 -3 6 -2 14 4 17 7 4 9 -3 6 -22 -2 -15 -5 -32 -5 -36
-1 -5 -5 -5 -11 -2 -5 3 -10 -1 -10 -10 0 -10 5 -13 12 -9 7 5 8 3 3 -5 -4 -7
-21 -22 -39 -33 -28 -18 -29 -19 -6 -14 24 5 24 4 6 -9 -14 -11 -16 -15 -5
-15 8 -1 3 -7 -11 -15 -14 -8 -21 -14 -16 -15 4 0 1 -11 -8 -25 -19 -28 -22
-60 -4 -49 7 4 8 3 4 -5 -4 -6 -12 -9 -17 -6 -5 4 -9 1 -9 -5 0 -6 -4 -9 -9
-6 -9 6 -7 -37 4 -53 3 -7 0 -8 -9 -5 -8 3 -17 11 -19 17 -2 7 -2 1 -1 -13 2
-14 -5 -36 -16 -50 -11 -14 -19 -19 -18 -11 2 7 -3 16 -11 19 -9 3 -11 0 -6
-7 5 -9 1 -9 -14 1 -14 8 -19 19 -15 32 4 11 2 16 -4 12 -12 -7 -10 20 3 31 4
4 5 3 2 -3 -3 -6 0 -11 8 -11 11 0 12 4 4 14 -7 7 -18 12 -27 11 -8 -2 -16 5
-18 16 -2 14 0 16 9 7 6 -6 15 -11 20 -11 5 0 1 7 -7 16 -9 8 -13 21 -10 27 5
8 2 8 -7 0 -7 -7 -17 -13 -23 -13 -5 0 1 9 14 20 13 11 19 20 14 20 -6 0 -15
-5 -22 -12 -9 -9 -12 -9 -12 1 0 7 -5 9 -11 5 -7 -4 -7 1 1 16 10 18 9 24 -1
31 -11 7 -11 9 1 9 13 0 13 2 0 9 -8 6 -18 7 -24 4 -5 -3 -6 -1 -2 5 4 7 1 12
-6 12 -8 0 -6 5 5 11 9 5 17 15 17 21 0 7 -4 7 -14 -1 -11 -9 -15 -8 -20 4 -3
9 -2 14 2 11 4 -2 14 0 22 5 13 9 13 10 0 8 -27 -3 -40 1 -40 11 0 6 5 9 11 8
6 -2 14 4 16 12 4 13 3 13 -6 0 -8 -11 -11 -12 -11 -2 0 8 -5 10 -12 6 -8 -5
-7 0 2 11 9 11 10 16 3 11 -8 -4 -13 -1 -13 9 0 9 4 14 8 11 5 -3 9 1 9 9 0 7
-8 12 -19 10 -10 -2 -18 0 -18 6 0 5 6 9 13 9 6 0 4 5 -6 11 -9 6 -15 14 -12
19 3 5 1 11 -5 15 -6 4 -8 11 -5 16 3 5 0 6 -8 3 -18 -6 -27 7 -34 47 -4 27
-3 29 15 20 14 -7 19 -7 19 3 0 16 -42 13 -63 -5 -12 -10 -13 -9 -8 4 3 8 12
18 19 21 21 8 11 42 -11 37 -18 -3 -18 -2 1 19 l20 23 -21 -11 c-27 -14 -36
-5 -23 20 13 24 -7 51 -33 45 -10 -3 -16 -1 -12 4 3 5 13 9 22 10 11 1 8 4 -8
9 -14 4 -19 8 -12 9 6 1 12 5 12 11 0 5 -8 7 -17 4 -10 -3 -7 2 7 11 25 16 25
16 2 11 -18 -3 -21 -2 -12 9 8 9 8 15 0 20 -6 3 -7 11 -4 17 4 7 2 8 -5 4 -9
-6 -9 -11 1 -23 12 -15 11 -15 -10 -2 -12 8 -18 15 -12 17 5 2 10 8 10 13 0 6
-6 7 -12 3 -9 -6 -9 -3 0 9 15 17 8 38 -11 36 -9 0 -9 -2 1 -6 16 -6 16 -19
-1 -26 -9 -3 -12 12 -12 58 0 47 -3 61 -12 58 -7 -3 -10 -10 -6 -17 3 -6 3 -8
-2 -4 -4 4 -15 2 -24 -5 -14 -11 -14 -10 -2 6 22 27 22 79 0 84 -9 3 -23 18
-29 34 -7 16 -17 26 -23 22 -6 -4 -7 -1 -2 7 8 14 14 9 41 -36 8 -14 12 -15
19 -4 6 9 4 11 -5 5 -10 -6 -12 -4 -7 9 4 10 1 19 -8 22 -8 4 -12 10 -9 15 3
5 2 9 -3 8 -30 -5 -44 2 -38 20 3 11 2 22 -4 25 -5 3 -7 15 -4 26 3 11 10 17
15 14 13 -8 -23 48 -37 58 -5 4 -15 6 -20 4 -6 -2 -10 8 -9 23 0 14 -4 30 -10
34 -7 6 -6 7 4 4 8 -2 14 -10 12 -16 -1 -6 2 -11 8 -11 17 0 11 19 -10 32 -11
7 -20 16 -20 21 0 4 5 5 12 1 6 -4 8 -3 4 4 -3 5 0 13 6 16 7 3 4 4 -7 3 -11
-1 -20 3 -20 8 0 6 -4 16 -8 23 -5 7 -3 12 5 12 8 0 6 5 -5 11 -9 6 -14 15
-11 21 5 7 1 9 -9 5 -9 -3 -19 -1 -23 5 -4 6 -3 8 3 5 6 -4 16 0 23 8 11 13
10 14 -5 9 -14 -6 -16 -4 -10 7 6 11 5 12 -6 2 -19 -19 -33 -16 -15 2 17 17
11 45 -10 45 -7 0 -11 6 -8 14 3 8 0 17 -7 22 -8 5 -10 3 -4 -6 6 -9 4 -11 -4
-6 -9 6 -8 13 6 29 10 11 13 17 7 14 -12 -7 -29 21 -19 31 3 3 5 -1 5 -8 0 -7
2 -11 5 -8 3 3 2 13 -1 23 -6 15 -9 15 -21 -6 l-14 -24 7 25 c3 14 11 31 16
38 6 6 7 12 3 12 -4 0 -14 -8 -21 -17 -10 -15 -15 -16 -26 -5 -11 11 -10 12 7
6 18 -7 19 -6 5 11 -8 11 -10 16 -3 11 9 -5 11 -2 7 8 -7 19 -21 21 -26 4 -3
-8 -7 -6 -11 5 -3 9 -3 16 1 16 25 -4 32 1 20 15 -7 8 -17 11 -22 8 -5 -3 -6
0 -2 7 6 8 12 9 20 2 9 -8 13 -7 13 4 0 7 -3 14 -6 13 -18 -2 -31 3 -31 13 0
5 5 7 10 4 6 -3 10 -2 10 4 0 5 -9 13 -20 16 -11 3 -20 12 -20 18 0 7 -4 6
-10 -3 -6 -10 -8 -1 -4 30 3 29 1 40 -5 31 -11 -18 -8 40 4 59 5 8 4 11 -3 6
-6 -3 -14 -1 -18 5 -5 9 -11 7 -20 -5 -8 -11 -14 -13 -19 -7 -3 6 -1 11 4 11
6 0 11 7 11 16 0 9 5 12 12 8 7 -4 8 -3 4 4 -4 7 -13 12 -21 12 -7 0 -16 7
-19 16 -5 14 -4 15 8 5 11 -9 16 -9 22 0 4 7 3 9 -3 6 -6 -4 -15 5 -22 20 -10
23 -10 25 6 19 14 -6 15 -5 6 5 -10 10 -15 9 -27 -1 -9 -7 -13 -17 -9 -23 3
-6 1 -7 -5 -3 -9 5 -9 12 0 26 10 16 9 22 -7 37 -11 10 -21 25 -23 33 -1 8 7
4 18 -10 11 -14 19 -18 18 -10 -2 8 -11 22 -20 31 -19 17 -25 34 -9 24 5 -3
13 -1 16 5 4 6 1 9 -6 8 -7 -2 -13 2 -14 7 -1 20 -33 57 -40 46 -3 -6 -11 -11
-16 -11 -6 0 -4 7 5 15 18 19 11 42 -15 50 -10 4 -19 11 -19 16 0 6 7 6 19 -1
15 -7 19 -7 17 5 -1 8 -6 18 -11 22 -4 4 -5 3 -2 -3 4 -7 -3 -11 -18 -11 -14
0 -25 4 -25 9 0 5 -4 6 -10 3 -6 -4 -7 1 -3 11 4 11 8 13 11 6 5 -16 19 -15
19 1 0 17 -27 18 -46 3 -11 -8 -13 -8 -8 1 4 6 -5 20 -20 32 -16 12 -21 18
-12 15 21 -7 35 14 20 29 -9 9 -11 7 -6 -8 7 -20 6 -20 -9 -1 -9 11 -16 24
-16 29 0 5 -8 3 -17 -4 -9 -8 -14 -9 -11 -4 4 6 -2 22 -13 35 -10 14 -19 20
-19 15 0 -6 5 -16 12 -23 9 -9 9 -15 -1 -24 -10 -11 -12 -9 -9 7 2 14 -3 20
-14 20 -10 0 -25 10 -34 23 -8 12 -20 20 -25 17 -5 -4 -6 2 -2 12 6 16 5 16
-11 4 -15 -13 -19 -13 -26 -1 -5 8 -6 18 -3 24 4 5 1 6 -6 2 -7 -5 -10 -15 -7
-23 3 -8 1 -11 -4 -8 -6 3 -10 12 -10 20 0 7 -9 17 -20 20 -11 4 -18 10 -15
14 7 12 -39 8 -47 -4 -5 -6 -8 -6 -8 2 0 9 -57 12 -225 11 -130 0 -225 -5
-225 -10z m96 -10 c4 -7 3 -10 -1 -5 -5 4 -18 -1 -29 -10 -21 -18 -21 -18 -2
5 22 26 23 26 32 10z m3554 -4 c0 -2 -7 -4 -15 -4 -8 0 -15 4 -15 10 0 5 7 7
15 4 8 -4 15 -8 15 -10z m-3136 -10 c19 -19 21 -28 4 -17 -7 4 -17 8 -22 8 -5
0 -11 6 -13 13 -6 17 12 15 31 -4z m-40 -10 c3 -8 2 -12 -4 -9 -6 3 -10 10
-10 16 0 14 7 11 14 -7z m2826 4 c0 -6 -3 -8 -7 -5 -3 4 -12 2 -20 -4 -8 -8
-13 -8 -13 -1 0 10 15 19 33 21 4 1 7 -4 7 -11z m-3380 -28 c0 -5 -2 -10 -4
-10 -3 0 -8 5 -11 10 -3 6 -1 10 4 10 6 0 11 -4 11 -10z m3226 -2 c4 -7 4 -10
-1 -6 -4 4 -15 2 -24 -5 -14 -11 -14 -10 -2 6 16 20 18 21 27 5z m643 -11 c0
-9 -2 -8 -6 1 -2 6 -10 9 -15 6 -7 -4 -8 -2 -4 5 9 13 26 5 25 -12z m-649 -17
c0 -5 -5 -10 -11 -10 -5 0 -7 5 -4 10 3 6 8 10 11 10 2 0 4 -4 4 -10z m-3280
-14 c-7 -7 -13 -7 -20 0 -6 6 -3 10 10 10 13 0 16 -4 10 -10z m4020 -11 c0
-12 -19 -12 -23 0 -4 9 -1 12 9 8 7 -3 14 -7 14 -8z m-840 -49 c0 -3 -4 -8
-10 -11 -5 -3 -10 -1 -10 4 0 6 5 11 10 11 6 0 10 -2 10 -4z m-3340 -106 c0
-5 -5 -10 -11 -10 -5 0 -7 5 -4 10 3 6 8 10 11 10 2 0 4 -4 4 -10z m1175 -39
c3 -5 2 -12 -3 -15 -5 -3 -9 1 -9 9 0 17 3 19 12 6z m41 -76 c-1 -8 -5 -17 -9
-21 -3 -4 -5 3 -2 14 2 12 0 24 -6 27 -5 4 -9 1 -9 -6 0 -7 -3 -10 -6 -6 -3 3
-3 11 1 17 9 15 34 -5 31 -25z m-1371 -104 c3 -5 2 -12 -3 -15 -5 -3 -9 1 -9
9 0 17 3 19 12 6z m-4 -54 c-10 -9 -11 -8 -5 6 3 10 9 15 12 12 3 -3 0 -11 -7
-18z m1486 -109 c4 -28 -6 -18 -12 12 -2 12 -1 20 2 16 4 -4 8 -16 10 -28z
m1664 -111 c-10 -9 -11 -8 -5 6 3 10 9 15 12 12 3 -3 0 -11 -7 -18z m-1617
-22 c-4 -8 -10 -15 -15 -15 -4 0 -6 7 -3 15 4 8 10 15 15 15 4 0 6 -7 3 -15z
m3059 -120 c-3 -9 -8 -14 -10 -11 -3 3 -2 9 2 15 9 16 15 13 8 -4z m-59 -126
c-10 -11 -22 -19 -27 -19 -6 0 -1 8 11 18 17 15 19 21 9 32 -10 12 -9 12 6 1
16 -13 16 -15 1 -32z m-2874 -34 c0 -12 -19 -12 -23 0 -4 9 -1 12 9 8 7 -3 14
-7 14 -8z m2830 -25 c-8 -5 -19 -10 -25 -10 -5 0 -3 5 5 10 8 5 20 10 25 10 6
0 3 -5 -5 -10z m-26 -54 c-3 -9 -10 -13 -15 -10 -5 3 -3 11 4 19 15 16 19 13
11 -9z m-2768 -14 c1 -7 2 -14 3 -17 0 -3 0 -7 -1 -8 -2 -2 4 -12 12 -23 14
-18 14 -18 -6 -1 -11 9 -24 14 -29 10 -4 -5 -4 -1 1 7 14 25 14 42 -2 36 -9
-3 -12 -1 -9 5 8 13 30 6 31 -9z m-1523 -21 c-13 -9 -10 -31 7 -41 8 -5 10
-10 4 -10 -6 0 -17 7 -24 15 -7 8 -9 15 -5 15 4 0 2 6 -4 13 -13 17 -5 28 16
20 8 -3 11 -9 6 -12z m4261 8 c-2 -4 1 -9 8 -11 7 -3 8 -7 2 -11 -5 -3 -15 2
-21 12 -9 14 -8 18 3 18 7 0 11 -4 8 -8z m-1517 -114 c0 -8 -4 -12 -9 -9 -5 3
-6 10 -3 15 9 13 12 11 12 -6z m-1133 -86 c-3 -5 -11 -9 -17 -8 -9 0 -9 2 0 5
13 6 6 34 -9 34 -5 0 -6 -5 -2 -12 4 -7 3 -8 -4 -4 -6 4 -8 14 -5 23 5 14 9
13 25 -7 10 -12 15 -26 12 -31z m2582 29 c4 -6 3 -8 -4 -4 -6 3 -13 2 -17 -4
-8 -13 -25 -13 -25 1 0 5 4 8 9 4 5 -3 12 -1 16 5 8 13 12 13 21 -2z m-1508
-73 c-3 -3 -9 2 -12 12 -6 14 -5 15 5 6 7 -7 10 -15 7 -18z m-34 -63 c3 -5 -1
-9 -9 -9 -8 0 -12 4 -9 9 3 4 7 8 9 8 2 0 6 -4 9 -8z m-2474 -52 c0 -5 -2 -10
-4 -10 -3 0 -8 5 -11 10 -3 6 -1 10 4 10 6 0 11 -4 11 -10z m1512 -27 c-9 -4
-10 -8 -2 -18 8 -10 8 -15 -1 -21 -7 -4 -9 -3 -5 4 3 6 2 13 -4 17 -13 8 -3
25 13 24 8 0 8 -2 -1 -6z m892 -84 c-3 -5 -10 -7 -15 -3 -5 3 -7 10 -3 15 3 5
10 7 15 3 5 -3 7 -10 3 -15z m-854 -9 c0 -5 -2 -10 -4 -10 -3 0 -8 5 -11 10
-3 6 -1 10 4 10 6 0 11 -4 11 -10z m2206 -109 c-13 -12 -18 -13 -28 -2 -11 10
-9 11 6 5 12 -5 17 -4 13 3 -3 5 1 10 9 10 13 0 13 -2 0 -16z m-2166 -31 c0
-5 -2 -10 -4 -10 -3 0 -8 5 -11 10 -3 6 -1 10 4 10 6 0 11 -4 11 -10z m2120
-54 c0 -3 -4 -8 -10 -11 -5 -3 -10 -1 -10 4 0 6 5 11 10 11 6 0 10 -2 10 -4z
m-2058 -41 c0 -5 -5 -10 -12 -11 -7 -2 -6 -1 1 3 8 4 7 8 -2 15 -11 8 -11 9
-1 6 8 -2 14 -8 14 -13z m-1452 -26 c0 -5 5 -7 12 -3 7 4 8 3 4 -5 -6 -9 -11
-9 -22 0 -17 14 -18 19 -4 19 6 0 10 -5 10 -11z m3470 1 c0 -5 -5 -10 -11 -10
-5 0 -7 5 -4 10 3 6 8 10 11 10 2 0 4 -4 4 -10z m-1973 -63 c0 -8 -6 -14 -14
-14 -9 0 -10 4 -2 14 6 7 12 13 14 13 1 0 2 -6 2 -13z m-1413 -15 c3 -5 -1 -9
-9 -9 -8 0 -12 4 -9 9 3 4 7 8 9 8 2 0 6 -4 9 -8z m13 -54 c-3 -8 -6 -5 -6 6
-1 11 2 17 5 13 3 -3 4 -12 1 -19z m3285 -16 c-7 -2 -9 -9 -6 -14 4 -7 2 -8
-4 -4 -6 4 -9 13 -6 21 4 8 11 12 17 8 8 -5 7 -8 -1 -11z m-1342 -6 c0 -2 -7
-7 -16 -10 -8 -3 -12 -2 -9 4 6 10 25 14 25 6z m-487 -52 c-1 -5 3 -14 7 -19
5 -6 5 -17 -1 -25 -8 -12 -9 -11 -7 5 2 13 -2 19 -12 17 -8 -2 -12 0 -8 4 4 4
3 13 -3 20 -7 9 -6 12 8 10 10 -2 17 -7 16 -12z m460 3 c8 5 8 2 0 -9 -7 -8
-9 -19 -5 -24 4 -4 -1 -3 -10 5 -10 7 -14 19 -11 29 4 10 8 12 11 4 2 -7 9 -9
15 -5z m-1851 -54 c-6 -2 -9 -10 -6 -15 4 -7 2 -8 -5 -4 -13 9 -5 26 12 25 9
0 8 -2 -1 -6z m1423 -13 c-3 -5 -12 -10 -18 -10 -7 0 -6 4 3 10 19 12 23 12
15 0z m-1355 -96 c0 -8 -19 -13 -24 -6 -3 5 1 9 9 9 8 0 15 -2 15 -3z m1375
-13 c3 -5 2 -12 -3 -15 -5 -3 -9 1 -9 9 0 17 3 19 12 6z m1635 -27 c0 -8 -19
-13 -24 -6 -3 5 1 9 9 9 8 0 15 -2 15 -3z m-1353 -83 c0 -11 -5 -17 -9 -15 -4
3 -8 0 -8 -7 0 -7 -3 -10 -6 -7 -4 5 16 48 23 48 1 0 1 -9 0 -19z m1259 -54
c10 4 12 0 8 -11 -8 -20 -7 -20 -30 7 -10 12 -12 17 -5 10 7 -6 20 -9 27 -6z
m-1299 -34 c-4 -3 -1 -13 6 -22 11 -14 10 -14 -5 -2 -16 12 -16 31 -1 31 4 0
3 -3 0 -7z m-1457 -27 c0 -2 -8 -10 -17 -17 -16 -13 -17 -12 -4 4 13 16 21 21
21 13z m1370 -90 c0 -2 -8 -10 -17 -17 -16 -13 -17 -12 -4 4 13 16 21 21 21
13z m21 -39 c-10 -9 -11 -8 -5 6 3 10 9 15 12 12 3 -3 0 -11 -7 -18z m-1316
-77 c3 -6 -1 -7 -9 -4 -18 7 -21 14 -7 14 6 0 13 -4 16 -10z m125 -216 c0 -8
-19 -13 -24 -6 -3 5 1 9 9 9 8 0 15 -2 15 -3z m12 -21 c-10 -4 -8 -11 9 -29
29 -31 20 -31 -13 -1 -23 21 -24 25 -9 34 9 6 18 8 21 5 3 -2 -1 -7 -8 -9z
m2257 4 c13 4 13 3 2 -5 -16 -12 -41 -5 -41 11 0 8 3 8 11 0 6 -6 19 -9 28 -6z
m-2199 -117 c-10 -19 -6 -24 13 -21 5 1 5 -4 1 -10 -3 -6 0 -15 7 -20 9 -6 10
-9 2 -9 -18 0 -41 39 -36 61 3 10 9 19 15 19 5 0 4 -9 -2 -20z m1550 -194 c0
-3 -4 -8 -10 -11 -5 -3 -10 -1 -10 4 0 6 5 11 10 11 6 0 10 -2 10 -4z m421
-81 c0 -5 -5 -11 -13 -13 -10 -3 -10 -1 1 6 11 8 10 11 -5 15 -16 5 -16 6 -1
4 10 -1 18 -6 18 -12z m-1770 -94 c-18 -11 -5 -32 15 -24 8 3 14 2 13 -3 -1
-5 0 -11 1 -14 1 -3 3 -15 4 -28 3 -24 -10 -18 -16 8 -2 8 -12 22 -22 31 -19
16 -15 39 7 39 8 0 7 -3 -2 -9z m304 -31 c3 -5 1 -10 -4 -10 -6 0 -11 5 -11
10 0 6 2 10 4 10 3 0 8 -4 11 -10z m1380 -10 c3 -6 -1 -7 -9 -4 -18 7 -21 14
-7 14 6 0 13 -4 16 -10z m-75 -194 c0 -2 -12 -3 -27 -3 -16 0 -22 2 -15 4 6 3
9 9 6 15 -4 6 2 5 15 -1 11 -7 21 -13 21 -15z m-1463 -117 c-1 -12 -5 -15 -11
-9 -15 15 -16 39 -1 33 8 -2 13 -13 12 -24z m1433 -23 c0 -2 -7 -7 -16 -10 -8
-3 -12 -2 -9 4 6 10 25 14 25 6z m0 -96 c0 -5 -5 -10 -11 -10 -5 0 -7 5 -4 10
3 6 8 10 11 10 2 0 4 -4 4 -10z m-10 -80 c0 -5 -5 -10 -11 -10 -5 0 -7 5 -4
10 3 6 8 10 11 10 2 0 4 -4 4 -10z m9 -63 c-2 -1 -13 -9 -24 -17 -19 -14 -19
-14 -6 3 7 9 18 17 24 17 6 0 8 -1 6 -3z m6 -56 c3 -5 2 -12 -3 -15 -5 -3 -9
1 -9 9 0 17 3 19 12 6z m-1420 -70 c3 -5 2 -12 -3 -15 -5 -3 -9 1 -9 9 0 17 3
19 12 6z m5 -131 c0 -5 -5 -10 -11 -10 -5 0 -7 5 -4 10 3 6 8 10 11 10 2 0 4
-4 4 -10z m1400 -194 c0 -3 -4 -8 -10 -11 -5 -3 -10 -1 -10 4 0 6 5 11 10 11
6 0 10 -2 10 -4z m17 -80 c-7 -14 -13 -23 -15 -21 -7 6 9 45 18 45 4 0 3 -11
-3 -24z m-1422 -75 c3 -5 2 -12 -3 -15 -5 -3 -9 1 -9 9 0 17 3 19 12 6z m1405
-85 c0 -3 -4 -8 -10 -11 -5 -3 -10 -1 -10 4 0 6 5 11 10 11 6 0 10 -2 10 -4z
m38 -27 c-6 -4 -17 -5 -25 -2 -11 4 -10 8 4 18 13 10 20 10 25 2 4 -6 2 -15
-4 -18z m-28 -99 c0 -5 -5 -10 -11 -10 -5 0 -7 5 -4 10 3 6 8 10 11 10 2 0 4
-4 4 -10z m-10 -80 c0 -5 -5 -10 -11 -10 -5 0 -7 5 -4 10 3 6 8 10 11 10 2 0
4 -4 4 -10z m9 -63 c-2 -1 -13 -9 -24 -17 -19 -14 -19 -14 -6 3 7 9 18 17 24
17 6 0 8 -1 6 -3z m6 -56 c3 -5 2 -12 -3 -15 -5 -3 -9 1 -9 9 0 17 3 19 12 6z
m-1420 -70 c3 -5 2 -12 -3 -15 -5 -3 -9 1 -9 9 0 17 3 19 12 6z m5 -131 c0 -5
-5 -10 -11 -10 -5 0 -7 5 -4 10 3 6 8 10 11 10 2 0 4 -4 4 -10z m-5 -190 c3
-5 1 -10 -4 -10 -6 0 -11 5 -11 10 0 6 2 10 4 10 3 0 8 -4 11 -10z m1345 -385
c0 -1 -6 -7 -13 -13 -10 -8 -13 -6 -13 7 0 11 6 17 13 14 7 -3 13 -6 13 -8z
m-1140 -171 c0 -8 -19 -13 -24 -6 -3 5 1 9 9 9 8 0 15 -2 15 -3z m917 -56 c-3
-8 -6 -5 -6 6 -1 11 2 17 5 13 3 -3 4 -12 1 -19z m-13 -26 c2 -4 -5 -9 -17 -9
-17 -2 -19 0 -7 7 18 12 18 12 24 2z m-771 -9 c3 6 5 2 4 -9 -1 -20 -3 -21
-24 -7 -28 18 -31 28 -4 13 14 -7 21 -6 24 3z m184 -68 c0 -8 -4 -12 -9 -9 -5
3 -6 10 -3 15 9 13 12 11 12 -6z m365 -2 c-6 -3 -10 -9 -6 -14 3 -5 1 -9 -4
-9 -21 0 -19 26 2 27 11 0 15 -1 8 -4z m-198 -35 c4 3 4 -1 1 -10 -6 -15 -8
-15 -26 0 -24 21 -24 26 0 13 10 -6 21 -7 25 -3z m-44 -18 c0 -5 -2 -10 -4
-10 -3 0 -8 5 -11 10 -3 6 -1 10 4 10 6 0 11 -4 11 -10z"/>
<path d="M4765 6961 c-3 -5 -2 -12 3 -15 5 -3 9 1 9 9 0 17 -3 19 -12 6z"/>
<path d="M4790 6949 c0 -5 5 -7 10 -4 6 3 10 8 10 11 0 2 -4 4 -10 4 -5 0 -10
-5 -10 -11z"/>
<path d="M1687 6921 c12 -10 19 -22 15 -26 -4 -5 -2 -5 5 -1 7 4 10 13 7 21
-4 8 -10 12 -15 9 -5 -3 -9 0 -9 5 0 6 -6 11 -12 11 -7 -1 -3 -9 9 -19z"/>
<path d="M4940 6845 c0 -2 9 -9 20 -15 16 -9 18 -8 14 5 -5 13 -34 22 -34 10z"/>
<path d="M1830 6795 c13 -16 30 -11 30 8 0 7 -4 6 -10 -3 -6 -10 -10 -11 -10
-2 0 6 -5 12 -11 12 -8 0 -8 -5 1 -15z"/>
<path d="M3996 6795 c4 -8 11 -15 16 -15 6 0 5 6 -2 15 -7 8 -14 15 -16 15 -2
0 -1 -7 2 -15z"/>
<path d="M3971 6783 c4 -23 -3 -32 -18 -27 -15 5 -16 4 -3 -5 11 -8 18 -7 28
6 15 20 16 33 2 33 -5 0 -9 -3 -9 -7z"/>
<path d="M716 6755 c-9 -26 -7 -32 5 -12 6 10 9 21 6 23 -2 3 -7 -2 -11 -11z"/>
<path d="M5050 6745 c0 -2 10 -10 23 -16 20 -11 21 -11 8 4 -13 16 -31 23 -31
12z"/>
<path d="M3810 6525 c0 -2 6 -8 13 -14 10 -8 14 -7 14 2 0 8 -6 14 -14 14 -7
0 -13 -1 -13 -2z"/>
<path d="M5180 6506 c0 -2 7 -6 15 -10 8 -3 15 -1 15 4 0 6 -7 10 -15 10 -8 0
-15 -2 -15 -4z"/>
<path d="M530 6361 c0 -5 7 -11 14 -14 10 -4 13 -1 9 9 -6 15 -23 19 -23 5z"/>
<path d="M3732 6345 c4 -4 3 -14 -3 -22 -7 -8 -8 -13 -1 -13 15 0 23 28 9 36
-7 4 -9 4 -5 -1z"/>
<path d="M2106 6281 c-3 -5 2 -15 12 -22 15 -12 16 -12 5 2 -7 9 -10 19 -6 22
3 4 4 7 0 7 -3 0 -8 -4 -11 -9z"/>
<path d="M5213 6235 c0 -8 4 -15 9 -15 4 0 8 7 8 15 0 8 -4 15 -8 15 -5 0 -9
-7 -9 -15z"/>
<path d="M5205 6200 c-3 -5 -1 -10 4 -10 6 0 11 5 11 10 0 6 -2 10 -4 10 -3 0
-8 -4 -11 -10z"/>
<path d="M5233 6195 c0 -8 4 -12 9 -9 4 3 8 9 8 15 0 5 -4 9 -8 9 -5 0 -9 -7
-9 -15z"/>
<path d="M5200 6170 c-12 -7 -10 -9 7 -7 12 0 19 5 17 9 -6 10 -6 10 -24 -2z"/>
<path d="M5195 6120 c-3 -5 -1 -10 4 -10 6 0 11 5 11 10 0 6 -2 10 -4 10 -3 0
-8 -4 -11 -10z"/>
<path d="M575 6069 c-4 -6 -5 -12 -2 -15 2 -3 7 2 10 11 7 17 1 20 -8 4z"/>
<path d="M3620 6040 c-9 -6 -10 -10 -3 -10 6 0 15 5 18 10 8 12 4 12 -15 0z"/>
<path d="M5160 6039 c0 -5 -4 -8 -8 -5 -5 3 -9 -1 -9 -8 0 -8 6 -12 14 -9 12
5 19 33 8 33 -3 0 -5 -5 -5 -11z"/>
<path d="M594 6028 c-4 -7 -4 -10 1 -6 4 4 14 0 22 -10 13 -15 13 -15 3 6 -12
25 -16 27 -26 10z"/>
<path d="M3606 6007 c3 -10 9 -15 12 -12 3 3 0 11 -7 18 -10 9 -11 8 -5 -6z"/>
<path d="M620 5979 c0 -5 5 -7 10 -4 6 3 10 8 10 11 0 2 -4 4 -10 4 -5 0 -10
-5 -10 -11z"/>
<path d="M3575 5940 c-3 -5 -2 -10 4 -10 5 0 13 5 16 10 3 6 2 10 -4 10 -5 0
-13 -4 -16 -10z"/>
<path d="M3440 5630 c-9 -6 -10 -10 -3 -10 6 0 15 5 18 10 8 12 4 12 -15 0z"/>
<path d="M850 5600 c0 -5 5 -10 11 -10 5 0 7 5 4 10 -3 6 -8 10 -11 10 -2 0
-4 -4 -4 -10z"/>
<path d="M2385 5591 c-3 -5 0 -13 6 -16 5 -4 8 -13 5 -21 -3 -8 -1 -14 4 -14
14 0 13 27 -1 36 -8 4 -7 9 2 15 10 6 10 9 2 9 -6 0 -14 -4 -18 -9z"/>
<path d="M4816 5435 c-15 -19 -22 -35 -17 -35 6 0 11 5 11 11 0 5 5 7 12 3 6
-4 8 -3 4 4 -3 6 1 18 10 27 9 9 14 18 12 21 -3 2 -17 -11 -32 -31z"/>
<path d="M2513 5338 c3 -9 1 -19 -6 -22 -9 -3 -9 -5 0 -5 18 -1 23 13 11 29
-8 12 -9 12 -5 -2z"/>
<path d="M4776 5313 c-6 -14 -5 -15 5 -6 7 7 10 15 7 18 -3 3 -9 -2 -12 -12z"/>
<path d="M1006 5305 c4 -8 11 -15 16 -15 6 0 5 6 -2 15 -7 8 -14 15 -16 15 -2
0 -1 -7 2 -15z"/>
<path d="M3235 5180 c-3 -5 -1 -10 4 -10 6 0 11 5 11 10 0 6 -2 10 -4 10 -3 0
-8 -4 -11 -10z"/>
<path d="M1100 5120 c-6 -11 -7 -20 -2 -20 6 0 12 9 15 20 3 11 3 20 1 20 -2
0 -8 -9 -14 -20z"/>
<path d="M2609 5073 c-13 -16 -12 -17 4 -4 16 13 21 21 13 21 -2 0 -10 -8 -17
-17z"/>
<path d="M1177 4965 c3 -8 9 -12 14 -9 12 7 11 11 -5 17 -10 4 -13 1 -9 -8z"/>
<path d="M2665 4940 c6 -29 11 -34 18 -16 3 8 0 20 -8 26 -12 10 -13 8 -10
-10z"/>
<path d="M1295 4769 c-4 -6 -5 -12 -2 -15 2 -3 7 2 10 11 7 17 1 20 -8 4z"/>
<path d="M4401 4731 c-9 -6 -10 -11 -2 -15 6 -4 11 -2 11 5 0 8 5 7 18 -2 15
-13 16 -12 3 4 -7 9 -14 17 -15 17 0 0 -7 -4 -15 -9z"/>
<path d="M3045 4710 c-3 -6 1 -7 9 -4 18 7 21 14 7 14 -6 0 -13 -4 -16 -10z"/>
<path d="M2787 4669 c7 -7 15 -10 18 -7 3 3 -2 9 -12 12 -14 6 -15 5 -6 -5z"/>
<path d="M1353 4645 c0 -7 3 -14 6 -13 21 2 31 -4 25 -14 -4 -7 -3 -8 4 -4 6
4 9 13 5 22 -3 8 -8 12 -11 10 -3 -3 -10 -1 -17 4 -8 7 -12 5 -12 -5z"/>
<path d="M2816 4615 c-9 -26 -7 -32 5 -12 6 10 9 21 6 23 -2 3 -7 -2 -11 -11z"/>
<path d="M2880 4455 c-7 -8 -11 -15 -9 -16 37 -6 60 -6 65 2 3 6 0 10 -7 8
-27 -3 -40 1 -34 11 9 15 -1 12 -15 -5z"/>
<path d="M1527 4348 c-3 -11 -3 -17 0 -14 10 9 33 -15 26 -27 -3 -6 -1 -7 6
-3 8 6 9 12 2 20 -6 7 -9 15 -7 17 2 2 -2 9 -9 16 -10 9 -14 8 -18 -9z"/>
<path d="M4063 4125 c0 -8 4 -12 9 -9 5 3 6 10 3 15 -9 13 -12 11 -12 -6z"/>
<path d="M1627 4123 c-3 -5 6 -9 20 -10 19 -1 22 1 12 8 -17 11 -26 11 -32 2z"/>
<path d="M3785 3681 c-3 -5 -2 -12 3 -15 5 -3 9 1 9 9 0 17 -3 19 -12 6z"/>
<path d="M1953 3603 c0 -12 5 -19 9 -17 13 8 9 -11 -4 -26 -11 -12 -10 -12 5
-1 21 16 21 22 3 47 -14 19 -15 18 -13 -3z"/>
<path d="M3735 3581 c-6 -11 13 -26 22 -17 4 3 1 6 -6 6 -7 0 -9 5 -6 10 3 6
4 10 1 10 -3 0 -7 -4 -11 -9z"/>
<path d="M3630 3416 c0 -3 9 -10 20 -16 11 -6 20 -8 20 -6 0 3 -9 10 -20 16
-11 6 -20 8 -20 6z"/>
<path d="M4515 3379 c-18 -9 -18 -9 3 -5 14 3 22 -1 22 -10 0 -8 0 -16 0 -19
0 -3 -3 -5 -7 -6 -5 0 -13 -5 -19 -10 -7 -5 -11 -4 -11 5 0 8 8 13 19 11 10
-2 16 0 13 5 -3 4 -13 7 -23 5 -9 -2 -20 -4 -24 -4 -4 -1 -5 -8 -2 -16 4 -8 1
-15 -6 -15 -6 0 -8 5 -5 10 3 6 2 10 -4 10 -6 0 -8 8 -4 18 7 18 5 17 -17 -12
-8 -11 -10 -17 -4 -13 6 3 11 0 11 -7 0 -9 -9 -13 -24 -10 -15 3 -22 1 -18 -6
4 -6 -1 -7 -11 -3 -13 5 -15 3 -9 -7 5 -9 4 -11 -4 -6 -6 4 -9 12 -6 17 3 5 0
6 -8 3 -9 -3 -13 -13 -10 -25 7 -24 -5 -25 -23 -1 -13 16 -14 16 -7 -2 4 -13
3 -17 -5 -12 -6 3 -13 2 -16 -3 -4 -5 -1 -13 5 -17 7 -4 9 -3 6 3 -3 5 0 10 8
10 11 0 12 -4 4 -14 -6 -7 -15 -11 -19 -8 -4 3 -11 -2 -14 -11 -3 -8 -2 -12 3
-9 5 3 12 1 16 -4 3 -6 -3 -8 -15 -6 -13 3 -20 -1 -20 -12 0 -14 -3 -13 -22 3
-21 18 -21 17 2 -16 l24 -35 -24 20 c-13 11 -20 14 -15 6 12 -21 15 -62 3 -55
-5 3 -7 12 -4 20 3 7 0 16 -6 20 -7 4 -8 3 -4 -4 4 -7 3 -12 -2 -12 -6 0 -5
-10 1 -24 7 -13 16 -22 21 -19 5 4 6 1 2 -5 -4 -7 -15 -12 -24 -12 -16 -1 -16
-1 0 -11 9 -5 15 -16 12 -24 -4 -8 -11 -12 -17 -8 -5 3 -7 1 -3 -5 3 -5 0 -13
-6 -15 -10 -4 -10 -6 -1 -6 9 -1 10 -8 3 -27 -7 -17 -7 -23 0 -19 12 8 29 -35
22 -54 -4 -10 -1 -13 11 -8 9 3 19 1 23 -5 4 -7 3 -8 -4 -4 -7 4 -12 2 -12 -4
0 -6 -5 -8 -12 -4 -9 5 -9 2 1 -9 7 -9 19 -17 25 -17 6 0 4 5 -4 10 -9 6 -10
10 -3 10 21 0 24 -18 6 -30 -17 -10 -16 -10 2 -8 11 2 25 9 30 16 8 10 11 9
11 -7 0 -11 -4 -17 -8 -15 -4 3 -8 0 -8 -5 0 -6 4 -11 9 -11 5 0 11 -9 14 -20
3 -11 11 -20 19 -20 10 0 9 3 -2 10 -13 8 -13 10 1 10 18 0 33 -25 38 -59 1
-6 13 -6 32 -1 28 8 29 8 17 -7 -10 -13 -10 -15 0 -9 23 14 64 15 58 1 -5 -14
38 -14 51 -1 4 5 3 6 -3 3 -6 -3 -11 0 -11 8 0 13 3 13 16 2 20 -17 39 -16 52
3 9 12 10 12 5 -3 -5 -15 -2 -17 15 -12 16 5 19 4 14 -5 -6 -9 -4 -11 5 -5 7
5 25 9 39 10 18 1 25 6 23 18 -2 9 2 17 8 17 5 0 10 -5 10 -11 0 -5 5 -7 11
-4 6 5 4 11 -7 19 -13 10 -14 15 -4 21 9 6 11 4 5 -5 -6 -9 -4 -11 4 -6 7 5
10 14 7 22 -3 7 0 16 6 20 6 4 8 3 4 -4 -3 -6 -2 -13 3 -16 5 -3 12 1 15 9 3
8 11 14 17 13 6 -2 13 5 14 15 2 9 -1 15 -6 11 -5 -3 -6 -10 -3 -16 5 -7 2 -8
-5 -3 -10 6 -9 11 4 24 13 12 19 13 22 4 8 -21 22 -15 18 7 -3 18 6 25 28 21
5 -1 6 3 2 9 -3 6 -11 8 -16 5 -5 -4 -9 4 -9 16 0 17 3 19 14 10 11 -9 13 -6
10 15 -2 18 3 27 19 33 20 8 20 8 -2 14 -13 3 -20 10 -16 16 4 7 -1 9 -12 5
-14 -4 -15 -3 -4 4 9 7 10 11 2 17 -9 5 -9 10 0 21 9 11 9 14 0 14 -7 0 -9 5
-5 11 4 8 9 7 16 -2 7 -11 8 -9 4 4 -3 10 -6 21 -6 23 0 3 -6 2 -12 -2 -9 -5
-8 -2 1 10 11 13 16 14 22 4 5 -7 9 -9 9 -4 0 5 -7 18 -16 28 -14 15 -15 20
-3 35 11 13 11 15 1 9 -19 -11 -62 -15 -67 -6 -3 5 6 7 20 5 29 -3 31 1 10 22
-13 12 -13 18 -3 32 12 14 11 14 -4 3 -9 -8 -16 -19 -14 -25 1 -7 1 -9 -1 -4
-3 4 -10 4 -16 0 -7 -4 -6 1 2 10 7 9 10 17 5 17 -5 0 -2 5 6 10 9 6 10 10 3
10 -6 0 -15 -5 -18 -10 -5 -8 -11 -7 -21 1 -7 6 -12 14 -9 18 2 4 -7 20 -20
35 -14 16 -22 34 -18 40 4 6 -3 3 -14 -7 -11 -9 -23 -14 -27 -10 -4 4 -12 1
-17 -7 -9 -12 -10 -12 -5 3 4 13 1 17 -12 15 -9 -2 -20 -7 -24 -13 -5 -6 -8
-6 -8 2 0 15 -29 10 -41 -8 -5 -8 -9 -9 -9 -3 0 5 5 15 12 22 9 9 9 12 0 12
-7 0 -12 6 -12 14 0 20 -12 25 -35 15z m193 -70 c9 -12 9 -16 -1 -16 -7 0 -14
9 -14 20 -1 11 -1 18 0 16 2 -2 8 -11 15 -20z m139 -175 c-3 -3 -12 -4 -19 -1
-8 3 -5 6 6 6 11 1 17 -2 13 -5z m-586 -121 c10 -11 10 -14 2 -9 -7 4 -13 2
-13 -3 0 -6 4 -11 8 -11 4 0 8 -10 9 -22 2 -22 1 -22 -9 -4 -10 18 -20 66 -13
66 1 0 9 -8 16 -17z m590 -37 c-6 -7 -8 -16 -4 -19 3 -4 1 -7 -5 -7 -10 0 -11
16 -3 48 1 2 6 0 11 -3 8 -5 8 -11 1 -19z m-34 -85 c0 -11 -7 -17 -14 -14 -9
4 -9 8 0 19 16 17 16 17 14 -5z m-135 -129 c3 8 6 8 10 -3 5 -12 -1 -15 -23
-14 -16 1 -32 5 -36 10 -5 4 -2 5 5 1 7 -4 12 -2 12 5 0 9 3 9 14 0 11 -9 15
-9 18 1z"/>
<path d="M4575 3380 c-3 -5 -2 -17 2 -25 7 -12 11 -11 22 8 13 21 13 21 -4 7
-17 -14 -18 -13 -12 3 7 18 2 23 -8 7z"/>
<path d="M4611 3357 c-8 -10 -7 -14 2 -14 8 0 14 6 14 14 0 7 -1 13 -2 13 -2
0 -8 -6 -14 -13z"/>
<path d="M4410 3346 c0 -2 7 -9 15 -16 13 -11 14 -10 9 4 -5 14 -24 23 -24 12z"/>
<path d="M4380 3336 c0 -2 7 -7 16 -10 8 -3 12 -2 9 4 -6 10 -25 14 -25 6z"/>
<path d="M4754 3286 c1 -14 5 -29 10 -33 4 -4 6 4 4 19 -2 15 -6 30 -9 33 -3
3 -5 -6 -5 -19z"/>
<path d="M2105 3270 c-3 -6 1 -7 9 -4 18 7 21 14 7 14 -6 0 -13 -4 -16 -10z"/>
<path d="M3583 3225 c0 -8 7 -15 15 -15 12 0 12 3 2 15 -7 8 -13 15 -15 15 -1
0 -2 -7 -2 -15z"/>
<path d="M3600 3120 c-12 -7 -10 -9 7 -7 12 0 19 5 17 9 -6 10 -6 10 -24 -2z"/>
<path d="M4870 3079 c0 -5 5 -7 10 -4 6 3 10 8 10 11 0 2 -4 4 -10 4 -5 0 -10
-5 -10 -11z"/>
<path d="M4190 3065 c0 -7 30 -13 34 -7 3 4 -4 9 -15 9 -10 1 -19 0 -19 -2z"/>
<path d="M4847 3054 c-8 -8 1 -24 12 -24 4 0 8 7 8 15 0 16 -9 20 -20 9z"/>
<path d="M3595 3019 c1 -13 -2 -30 -8 -36 -6 -9 -6 -13 1 -13 21 0 32 36 18
55 -12 17 -13 16 -11 -6z"/>
<path d="M2120 2930 c-8 -5 -11 -10 -6 -10 6 0 1 -7 -10 -15 -19 -15 -19 -15
1 -9 16 6 18 4 8 -6 -8 -9 -9 -19 -2 -31 11 -21 9 -40 -6 -52 -6 -5 -5 -7 3
-5 8 2 12 6 11 8 -1 3 3 15 10 28 10 18 9 23 -4 28 -12 5 -13 9 -3 21 9 11 20
54 14 53 -1 0 -8 -5 -16 -10z"/>
<path d="M4770 2795 c0 -8 2 -15 4 -15 2 0 6 7 10 15 3 8 1 15 -4 15 -6 0 -10
-7 -10 -15z"/>
<path d="M4355 2771 c-3 -5 -2 -12 3 -15 5 -3 9 1 9 9 0 17 -3 19 -12 6z"/>
<path d="M4574 2714 c1 -8 4 -15 7 -16 2 -2 3 -1 2 1 -2 2 2 9 7 16 7 8 5 12
-4 12 -8 0 -13 -6 -12 -13z"/>
<path d="M2095 2700 c3 -5 8 -10 11 -10 2 0 4 5 4 10 0 6 -5 10 -11 10 -5 0
-7 -4 -4 -10z"/>
<path d="M5833 2697 c22 -18 22 -26 -2 -24 -11 0 -17 6 -14 12 4 5 -4 1 -16
-10 -16 -14 -22 -15 -19 -5 2 10 -5 15 -22 14 -14 -1 -29 4 -33 10 -4 6 -5 -2
-2 -19 l6 -30 -16 28 c-20 34 -28 35 -15 2 6 -16 6 -25 0 -25 -6 0 -10 6 -10
14 0 8 -4 18 -10 21 -6 3 -7 -1 -4 -9 8 -21 0 -20 -22 2 -17 16 -18 16 -11 -2
6 -14 4 -17 -8 -12 -9 3 -13 2 -10 -3 3 -5 1 -12 -5 -16 -6 -4 -8 -11 -4 -16
3 -5 10 -7 15 -3 5 3 7 9 4 14 -3 4 2 11 10 14 13 4 13 2 5 -14 -5 -10 -14
-21 -19 -24 -12 -8 -29 16 -26 36 2 10 -2 21 -7 25 -6 3 -8 1 -4 -5 3 -6 2
-13 -3 -17 -6 -3 -8 -12 -5 -19 4 -10 -2 -12 -22 -8 -17 3 -25 1 -21 -5 4 -6
-3 -8 -18 -5 -15 2 -22 9 -18 16 3 6 -7 -1 -23 -15 -27 -25 -56 -41 -79 -44
-5 0 -9 -6 -7 -13 3 -16 -15 -16 -21 1 -3 7 -6 4 -6 -6 -1 -10 -5 -15 -11 -12
-5 3 -10 1 -10 -5 0 -7 9 -9 23 -5 19 5 20 5 4 -5 -9 -6 -14 -17 -10 -23 3 -7
-3 -4 -14 6 -21 18 -35 14 -26 -9 3 -10 -2 -14 -18 -14 -22 0 -22 0 -3 -15 18
-13 18 -14 -5 -8 -18 5 -22 3 -16 -7 6 -10 1 -12 -26 -7 -34 6 -34 6 -9 -8 23
-13 23 -14 5 -16 -11 -1 -23 -1 -26 -1 -4 1 -4 -8 -1 -20 5 -21 6 -21 13 -2 7
15 8 14 6 -8 -2 -15 -7 -31 -12 -35 -4 -4 -5 -3 -1 4 3 6 2 14 -4 18 -9 6 -14
-8 -11 -28 1 -5 -3 -6 -9 -2 -5 3 -10 1 -10 -5 0 -6 -4 -9 -8 -6 -4 2 -14 1
-21 -3 -10 -6 -9 -10 4 -14 10 -5 14 -3 9 5 -4 7 -3 8 5 4 8 -6 9 -12 2 -20
-7 -9 -7 -17 2 -26 6 -8 2 -6 -10 4 -17 14 -25 15 -40 6 -16 -10 -16 -10 5 -5
17 5 22 2 22 -14 0 -11 -5 -23 -12 -27 -8 -5 -9 -1 -4 12 6 15 5 16 -5 7 -10
-10 -9 -16 3 -30 15 -17 15 -20 -3 -42 -10 -13 -19 -38 -19 -55 0 -18 -6 -38
-12 -45 -10 -11 -10 -13 0 -7 6 4 12 4 13 -1 0 -4 2 -15 4 -24 1 -9 -1 -35 -5
-57 -7 -40 -6 -41 14 -30 18 10 19 9 8 -4 -7 -9 -9 -24 -5 -33 4 -11 2 -16 -3
-12 -5 3 -10 -2 -10 -12 0 -10 6 -18 13 -18 7 0 10 4 7 9 -3 4 2 5 10 2 8 -3
17 -12 20 -20 3 -9 1 -12 -4 -9 -6 3 -10 -1 -10 -9 0 -9 -5 -16 -12 -16 -6 0
-8 -3 -5 -6 4 -4 13 -1 22 6 12 10 15 10 15 -2 0 -8 -5 -19 -10 -24 -7 -7 -6
-11 4 -11 8 0 12 5 9 10 -3 6 -1 7 5 3 7 -4 12 -16 12 -27 0 -10 5 -19 11 -19
5 0 7 5 3 12 -4 6 -3 8 4 4 6 -3 9 -19 6 -34 -3 -20 -2 -23 5 -12 6 8 13 11
17 7 4 -3 1 -13 -6 -22 -11 -13 -10 -14 3 -10 19 8 62 -35 46 -46 -7 -4 -6 -8
4 -12 8 -3 20 0 26 6 8 8 11 8 11 -1 0 -7 5 -12 11 -12 5 0 7 5 4 10 -3 6 -2
10 3 10 15 0 23 -28 10 -36 -7 -5 -8 -2 -3 7 5 8 4 10 0 6 -14 -13 -14 -34 1
-34 7 0 11 4 8 9 -3 4 2 8 11 8 9 0 14 -3 12 -7 -3 -5 7 -17 21 -27 14 -11 22
-15 19 -9 -4 6 0 14 9 17 25 10 27 7 13 -11 -7 -10 -9 -15 -5 -11 5 4 17 -2
27 -14 11 -11 19 -17 19 -13 0 4 10 0 22 -11 12 -10 19 -14 16 -9 -4 6 4 15
17 21 19 9 22 8 18 -6 -3 -10 3 -20 13 -24 13 -5 14 -4 6 7 -9 10 -8 14 1 14
8 0 14 -5 15 -11 4 -42 20 -73 18 -35 0 12 6 24 14 26 13 4 13 3 0 -6 -10 -7
-11 -11 -3 -11 7 0 10 -7 7 -17 -5 -15 -4 -15 4 -4 14 20 39 22 46 4 4 -8 13
-13 21 -9 8 3 15 1 15 -5 0 -6 4 -8 9 -4 5 3 13 0 17 -6 4 -7 3 -9 -2 -6 -6 3
-16 1 -24 -4 -13 -9 -13 -9 0 -7 8 1 27 -6 41 -15 32 -22 79 -33 61 -15 -7 7
-12 17 -12 23 0 5 5 2 11 -7 5 -10 16 -15 24 -12 9 4 15 0 15 -9 0 -8 6 -20
13 -26 8 -6 13 -21 12 -33 -1 -13 5 -28 13 -34 18 -13 26 -48 9 -37 -6 4 -8 0
-4 -10 7 -18 -12 -19 -26 -2 -5 6 -5 -1 -2 -14 5 -17 4 -22 -5 -16 -9 5 -11 4
-6 -4 6 -9 11 -9 21 -1 10 8 15 8 21 -1 4 -8 3 -9 -4 -5 -7 4 -12 3 -12 -1 0
-5 -7 -18 -16 -29 -14 -17 -15 -17 -10 -1 3 10 2 16 -3 12 -5 -3 -12 1 -15 7
-3 7 -3 1 -1 -14 3 -25 1 -27 -15 -18 -30 16 -34 12 -9 -11 13 -11 17 -17 9
-13 -25 14 -39 13 -33 -2 3 -8 10 -11 16 -7 6 3 7 1 3 -6 -6 -9 -11 -9 -23 1
-19 16 -41 19 -49 7 -3 -6 -12 -5 -22 3 -9 7 -13 8 -10 3 4 -6 -5 -15 -18 -22
-13 -6 -22 -8 -20 -4 3 4 -4 13 -16 20 -11 7 -18 9 -15 4 3 -5 -3 -15 -15 -22
-11 -7 -17 -8 -13 -2 6 11 -6 15 -39 11 -11 -1 -16 3 -11 10 5 8 0 7 -13 -1
-12 -7 -18 -17 -15 -23 4 -5 1 -6 -8 0 -28 17 -73 23 -82 10 -6 -7 -7 -6 -4 4
2 8 9 15 15 15 5 0 14 4 19 8 4 5 2 7 -6 5 -7 -2 -16 3 -18 10 -3 8 2 10 14 6
14 -5 15 -4 3 4 -17 13 -33 5 -27 -12 3 -6 -6 -17 -19 -23 -13 -6 -24 -8 -24
-3 0 4 7 11 16 14 17 7 11 21 -9 21 -7 1 -11 7 -9 15 3 12 0 11 -15 -1 -29
-25 -41 -30 -48 -19 -4 6 -1 9 6 8 6 -2 14 4 16 12 4 13 3 13 -6 0 -6 -8 -11
-11 -11 -6 0 5 -7 3 -15 -4 -8 -7 -15 -9 -15 -5 0 4 -6 2 -14 -4 -11 -9 -16
-9 -22 0 -5 8 -3 9 7 4 12 -8 12 -6 0 8 -15 19 -26 23 -16 7 4 -7 -3 -9 -19
-6 -18 3 -24 1 -20 -6 5 -7 2 -9 -8 -6 -11 5 -15 0 -15 -15 -1 -48 -3 -53 -14
-34 -13 22 -29 13 -29 -16 0 -17 -2 -19 -9 -7 -6 8 -8 17 -6 20 2 4 -2 7 -10
7 -9 0 -11 -5 -6 -11 13 -17 20 -55 11 -61 -5 -3 -12 0 -16 6 -5 8 -3 9 6 4 9
-5 11 -4 6 4 -11 17 -25 4 -19 -19 3 -11 10 -17 17 -13 6 4 5 -1 -2 -10 -8 -9
-11 -21 -7 -27 3 -5 -2 -10 -11 -10 -10 0 -14 -3 -10 -8 4 -4 13 -7 19 -7 7 0
12 -9 12 -20 0 -14 -6 -19 -20 -17 -18 2 -18 2 -3 -8 10 -6 23 -21 28 -33 11
-21 11 -21 -4 -3 -13 16 -18 17 -29 7 -10 -10 -9 -12 3 -9 11 2 15 -6 14 -30
0 -17 4 -32 9 -32 5 0 7 9 4 20 -3 13 0 20 10 20 9 0 13 -6 9 -15 -3 -9 3 -19
17 -25 21 -11 21 -11 3 4 -28 23 -9 20 24 -4 19 -13 27 -27 25 -44 -3 -27 12
-29 41 -6 16 13 17 13 12 -1 -5 -14 -1 -15 31 -9 21 4 43 10 49 14 8 5 10 2 6
-9 -6 -16 15 -18 26 -3 3 4 11 -1 17 -11 9 -14 8 -18 -3 -18 -7 0 -11 3 -9 7
2 4 -2 7 -9 7 -8 0 -12 -7 -9 -14 3 -8 11 -12 18 -9 7 2 18 -1 24 -7 6 -6 11
-7 11 -3 0 5 8 2 17 -5 12 -10 10 -4 -5 18 -17 24 -19 33 -10 39 7 4 10 4 6
-1 -11 -12 11 -35 28 -28 8 3 14 0 14 -7 0 -6 -5 -8 -12 -4 -7 4 -4 -2 6 -14
21 -25 36 -31 16 -7 -10 12 -10 15 3 15 8 0 18 -6 20 -12 3 -8 6 -5 6 5 1 11
6 15 12 11 6 -3 16 0 21 7 6 10 7 6 2 -11 -6 -22 -5 -23 9 -11 9 7 14 18 11
23 -4 6 3 5 15 -1 16 -9 21 -9 21 0 0 7 3 10 6 7 3 -4 0 -17 -6 -30 -10 -19
-10 -21 0 -11 9 8 19 9 31 2 15 -7 17 -6 13 6 -3 8 -10 12 -15 9 -5 -3 -6 2
-3 10 5 13 9 12 26 -7 11 -12 17 -16 13 -9 -3 6 -1 12 5 12 6 0 8 5 4 13 -5 8
-2 8 9 -2 18 -15 23 -26 7 -16 -5 3 -10 2 -10 -3 0 -6 7 -13 16 -16 8 -3 13
-2 10 3 -3 4 1 17 10 27 15 18 15 18 9 -2 -4 -17 -1 -20 26 -18 18 1 34 6 38
11 12 16 40 11 34 -6 -4 -12 -3 -13 4 -3 6 7 16 12 24 10 8 -2 14 5 14 14 0
10 7 23 15 30 12 11 12 10 0 -6 -14 -17 -13 -18 7 -12 12 4 24 2 28 -3 3 -6 0
-8 -8 -5 -20 7 -32 -15 -18 -29 9 -9 11 -8 6 6 -9 22 4 22 21 0 13 -17 14 -17
8 0 -4 11 -2 16 7 14 8 -2 11 -2 6 0 -14 8 4 22 21 17 14 -5 14 -4 2 4 -10 8
-18 8 -27 0 -9 -7 -13 -7 -13 1 0 6 5 11 11 11 5 0 7 5 4 10 -4 6 9 2 29 -9
21 -12 38 -16 41 -10 4 5 12 6 18 3 7 -4 9 -3 4 1 -4 5 0 17 10 27 18 20 33
24 33 8 0 -6 -5 -9 -11 -8 -6 2 -14 -3 -16 -10 -4 -11 -1 -12 16 -3 16 9 21 9
21 -1 0 -8 5 -6 11 5 6 9 14 15 18 13 4 -3 8 1 8 9 0 13 -3 13 -17 0 -15 -13
-17 -13 -17 0 0 8 3 13 5 10 3 -3 11 0 18 5 20 17 56 20 73 7 14 -11 15 -10 1
7 -14 18 -13 19 3 13 11 -4 16 -3 12 3 -3 5 -1 18 5 27 8 13 10 13 7 3 -3 -10
2 -16 13 -16 10 0 18 3 18 6 -2 18 4 21 20 9 15 -13 16 -12 3 4 -9 12 -17 14
-26 7 -8 -7 -12 -5 -12 4 0 13 7 14 47 4 8 -1 15 3 16 10 1 6 2 17 3 23 0 6
11 8 24 5 12 -3 17 -3 11 0 -7 3 -10 14 -7 24 3 11 9 17 14 14 5 -3 6 -10 3
-16 -4 -7 -2 -8 5 -4 6 4 9 12 6 17 -4 5 -8 18 -10 29 -4 20 7 25 45 21 10 -1
11 1 4 6 -6 4 -16 19 -23 33 -11 24 -11 24 3 6 9 -11 17 -17 17 -13 5 26 4 34
-5 47 -10 13 -9 13 8 0 18 -14 19 -13 13 3 -4 11 -3 16 3 12 6 -3 10 1 10 9 0
9 6 16 13 16 8 0 9 2 1 8 -13 8 -16 62 -3 62 4 0 6 -12 3 -27 -3 -20 -2 -24 5
-13 5 8 8 17 5 21 -2 4 6 15 18 23 12 9 17 16 10 16 -9 0 -11 8 -7 23 5 20 5
20 -9 -3 -8 -14 -12 -29 -9 -34 4 -5 1 -6 -5 -3 -5 4 -8 17 -4 29 3 12 1 19
-4 15 -6 -3 -11 4 -11 15 -2 20 -1 20 13 2 15 -18 15 -18 10 -1 -3 10 -2 16 2
14 4 -3 14 2 22 11 13 14 12 15 -2 10 -27 -11 -32 34 -5 55 13 10 15 15 6 12
-21 -8 -20 35 1 53 13 10 12 11 -4 5 -11 -4 -17 -2 -13 3 3 6 -4 11 -16 11
-17 2 -18 0 -7 -7 19 -12 22 -60 3 -53 -8 3 -11 9 -6 12 22 16 10 37 -19 32
-17 -2 -7 18 11 24 11 3 22 13 26 23 5 14 4 15 -6 5 -7 -7 -19 -13 -27 -13 -9
0 -6 7 8 18 18 14 19 19 7 19 -9 0 -14 -4 -11 -9 3 -4 0 -8 -5 -8 -14 0 -14
17 -1 25 7 4 7 13 0 26 -6 11 -15 17 -20 14 -4 -3 -7 6 -5 20 2 19 -1 23 -10
15 -9 -8 -14 -6 -19 5 -4 11 -2 14 7 10 6 -4 4 0 -6 8 -14 11 -15 16 -5 21 7
3 2 4 -11 2 -18 -4 -21 -2 -12 7 18 18 13 31 -6 16 -14 -12 -16 -12 -8 0 6 11
4 13 -8 8 -18 -7 -37 19 -30 41 3 8 -1 10 -11 6 -9 -3 -16 -1 -16 5 0 6 -7 11
-16 11 -8 0 -12 5 -9 10 4 6 12 7 18 3 8 -4 8 -1 -1 9 -7 9 -25 15 -42 14 -16
-1 -27 1 -24 5 7 13 -23 29 -42 22 -17 -6 -17 -5 -6 10 8 8 21 13 30 10 14 -4
14 -3 3 5 -10 7 -21 7 -34 0 -17 -8 -19 -8 -14 6 3 8 2 18 -4 21 -5 4 -8 1 -7
-7 2 -8 -6 -13 -22 -12 -39 2 -40 3 -40 23 0 10 -6 24 -13 30 -10 8 -14 7 -14
-4 0 -8 3 -12 7 -10 4 2 7 -2 7 -9 0 -23 -27 -6 -28 18 0 11 -3 15 -6 9 -2 -7
-9 -13 -14 -13 -6 0 -7 5 -4 10 3 6 -1 10 -10 10 -12 0 -15 -5 -10 -17 4 -13
1 -12 -15 5 -20 21 -57 32 -45 13 3 -5 1 -13 -5 -16 -6 -4 -9 -1 -8 7 2 7 -3
12 -10 10 -8 -1 -11 2 -6 9 5 9 2 10 -11 5 -15 -6 -16 -4 -4 10 12 15 14 14
25 -1 7 -9 15 -12 18 -7 3 6 -1 13 -10 16 -8 3 -12 10 -9 16 3 5 1 10 -4 10
-6 0 -11 -4 -11 -10 0 -5 -15 -9 -34 -7 -19 1 -32 5 -29 10 2 4 -1 7 -8 7 -9
0 -9 3 0 14 9 11 9 16 -1 22 -7 4 -10 4 -6 -1 11 -11 -11 -35 -31 -34 -12 0
-11 2 4 9 13 6 15 9 5 9 -13 1 -13 2 0 11 9 6 10 10 3 10 -6 0 -15 -4 -18 -10
-3 -5 -12 -10 -18 -10 -8 0 -8 3 -2 8 14 10 13 37 -2 37 -7 0 -18 6 -25 14
-11 12 -10 13 5 8 11 -4 16 -3 12 3 -3 6 -13 10 -21 10 -17 0 -17 5 -4 30 8
16 8 18 -5 14 -8 -4 -15 -1 -15 5 0 6 5 11 10 11 6 0 5 6 -2 14 -7 7 -19 11
-27 8 -9 -3 -12 -1 -7 6 4 7 14 12 22 12 9 0 12 5 8 12 -4 7 -3 8 4 4 6 -4 9
-13 5 -21 -3 -8 0 -15 7 -15 6 0 9 4 5 9 -3 6 3 15 12 21 15 10 15 11 1 6 -9
-3 -19 2 -22 11 -4 10 -2 14 8 10 14 -6 33 26 28 46 -1 5 2 6 8 2 6 -3 8 -10
5 -15 -3 -4 3 -14 13 -21 15 -13 16 -12 3 4 -12 15 -11 17 3 17 9 0 16 8 17
18 0 14 2 14 9 -3 l9 -20 0 20 c1 17 3 17 11 5 8 -13 13 -13 31 -2 11 8 18 9
14 3 -3 -6 -1 -11 4 -11 6 0 11 6 11 13 0 8 3 8 9 -2 7 -11 13 -12 23 -4 15
12 50 14 42 2 -2 -5 -12 -5 -22 -2 -9 3 -14 3 -10 -1 11 -13 99 -15 91 -3 -3
5 -1 7 5 3 5 -3 12 -3 15 1 2 5 2 2 1 -4 -5 -18 11 -16 30 3 9 8 16 12 16 7 0
-5 -5 -14 -12 -21 -9 -9 -9 -12 1 -12 11 0 11 -3 0 -17 -10 -13 -8 -13 10 2
13 11 25 19 27 18 10 -7 25 -2 20 5 -3 5 1 9 9 9 8 0 12 -4 10 -8 -3 -4 2 -10
11 -13 9 -3 12 -11 8 -18 -5 -10 -4 -10 6 -1 11 10 11 15 0 30 -11 14 -11 15
-1 6 18 -16 41 -5 34 15 -3 9 4 2 16 -15 11 -18 23 -33 26 -33 4 0 3 6 -2 13
-12 19 -12 36 -1 44 6 3 8 1 5 -4 -4 -6 0 -13 8 -17 8 -3 17 -1 20 5 4 5 11 7
16 4 5 -3 6 2 2 11 -6 16 -7 16 -19 -1 -12 -16 -13 -16 -11 3 0 11 4 19 9 16
4 -2 12 5 18 16 8 16 15 18 29 11 13 -7 18 -6 18 4 0 8 -4 12 -9 9 -4 -3 -8 2
-8 11 0 9 5 13 10 10 6 -3 10 3 10 14 0 12 3 20 8 20 19 -3 22 3 10 24 -15 28
-19 49 -7 41 5 -3 6 -10 3 -16 -4 -6 -2 -8 4 -5 5 4 8 16 5 27 -4 15 -11 19
-24 15 -11 -4 -19 -2 -19 5 0 6 5 8 10 5 6 -3 10 -2 10 4 0 6 6 8 14 5 18 -7
30 12 15 22 -8 4 -9 3 -5 -4 4 -7 3 -12 -2 -12 -9 0 -26 29 -24 41 0 3 -6 6
-13 6 -10 0 -12 -4 -5 -12 5 -6 5 -17 1 -24 -6 -9 -11 -10 -15 -2 -4 6 -2 11
5 11 8 0 9 4 0 13 -6 8 -7 17 -1 23 6 6 5 15 -1 24 -9 13 -10 12 -5 -2 3 -10
1 -18 -4 -18 -6 0 -10 4 -10 9 0 5 -12 8 -27 6 -22 -2 -24 0 -13 9 21 16 22
34 2 32 -10 0 -16 5 -14 14 3 10 -4 8 -20 -7 -20 -18 -26 -20 -41 -9 -11 9
-15 20 -11 32 4 14 3 15 -4 5 -6 -8 -12 -9 -16 -3 -3 6 -20 9 -37 7 -28 -4
-30 -3 -18 13 11 14 11 15 -1 5 -8 -7 -18 -13 -23 -13 -4 0 -5 6 -1 13 6 9 4
9 -8 -1 -13 -11 -17 -11 -21 0 -2 7 -2 3 0 -9 5 -30 -13 -29 -33 2 -9 14 -21
22 -28 18 -17 -11 -35 -12 -42 -2 -3 5 -10 7 -15 3 -5 -3 -7 -10 -4 -15 4 -5
2 -9 -4 -9 -5 0 -12 6 -14 13 -4 10 -6 10 -6 0 -1 -7 -6 -13 -12 -13 -5 0 -8
4 -5 9 3 4 -7 13 -22 20 -24 10 -25 10 -9 -2z m91 -37 c-6 -6 -10 -3 -10 10 0
13 4 16 10 10 7 -7 7 -13 0 -20z m48 13 c-6 -3 -9 -10 -5 -16 4 -7 -1 -6 -10
2 -18 14 -23 26 -8 16 5 -3 13 0 16 6 4 5 10 7 14 3 3 -4 0 -9 -7 -11z m-202
-1 c0 -13 -12 -22 -22 -16 -10 6 -1 24 13 24 5 0 9 -4 9 -8z m367 -26 c11 -10
-19 -27 -32 -17 -5 5 -18 7 -28 6 -9 -2 -15 1 -11 6 3 5 9 7 14 4 5 -3 11 -1
14 4 7 10 31 9 43 -3z m-453 -4 c3 -5 -1 -9 -9 -9 -8 0 -12 4 -9 9 3 4 7 8 9
8 2 0 6 -4 9 -8z m541 -22 c3 -5 1 -10 -4 -10 -6 0 -11 5 -11 10 0 6 2 10 4
10 3 0 8 -4 11 -10z m-728 -15 c0 -8 -4 -12 -9 -9 -4 3 -11 -2 -14 -10 -3 -9
-11 -16 -17 -16 -6 0 0 11 13 25 28 29 27 29 27 10z m33 1 c0 -3 -4 -8 -10
-11 -5 -3 -10 -1 -10 4 0 6 5 11 10 11 6 0 10 -2 10 -4z m-93 -40 c0 -15 -21
-16 -34 -1 -4 4 -3 5 4 1 6 -3 14 -2 18 4 8 14 12 13 12 -4z m893 -146 c0 -5
-2 -10 -4 -10 -3 0 -8 5 -11 10 -3 6 -1 10 4 10 6 0 11 -4 11 -10z m-16 -26
c3 -8 2 -12 -4 -9 -6 3 -10 10 -10 16 0 14 7 11 14 -7z m-214 -132 c0 -5 -7
-9 -15 -9 -8 0 -12 4 -9 9 3 4 9 8 15 8 5 0 9 -4 9 -8z m-426 -114 c-3 -5 0
-15 6 -23 10 -12 9 -15 -4 -15 -10 0 -14 5 -11 10 3 6 2 10 -3 10 -5 0 -9 6
-9 13 0 8 6 14 13 14 7 0 11 -4 8 -9z m-524 -48 c0 -5 -2 -10 -4 -10 -3 0 -8
5 -11 10 -3 6 -1 10 4 10 6 0 11 -4 11 -10z m540 -21 c0 -5 -4 -9 -8 -9 -5 0
-9 7 -9 15 0 8 4 12 9 9 4 -3 8 -9 8 -15z m41 -36 c2 1 3 0 1 -2 -7 -11 -31
-8 -36 5 -4 11 -1 12 13 5 10 -6 20 -9 22 -8z m436 -228 c0 -8 -4 -12 -9 -9
-5 3 -6 10 -3 15 9 13 12 11 12 -6z m45 -22 c-6 -2 -9 -10 -6 -15 4 -7 2 -8
-5 -4 -13 9 -5 26 12 25 9 0 8 -2 -1 -6z m-896 -72 c-4 -5 0 -11 6 -14 10 -3
10 -8 -1 -18 -8 -8 -11 -9 -7 -2 3 6 2 14 -4 18 -13 8 -13 25 1 25 5 0 8 -4 5
-9z m108 -87 c3 -8 2 -12 -4 -9 -6 3 -10 10 -10 16 0 14 7 11 14 -7z m86 -30
c0 -8 -19 -13 -24 -6 -3 5 1 9 9 9 8 0 15 -2 15 -3z m20 -24 c0 -5 -2 -10 -4
-10 -3 0 -8 5 -11 10 -3 6 -1 10 4 10 6 0 11 -4 11 -10z m885 -10 c3 -6 -1 -7
-9 -4 -18 7 -21 14 -7 14 6 0 13 -4 16 -10z m-639 -85 c-3 -8 -1 -15 3 -15 5
0 11 5 13 11 2 6 9 -1 16 -15 l12 -26 -30 15 c-19 10 -27 20 -24 30 4 8 8 15
11 15 3 0 3 -7 -1 -15z m674 -79 c0 -3 -4 -8 -10 -11 -5 -3 -10 -1 -10 4 0 6
5 11 10 11 6 0 10 -2 10 -4z m-6 -52 c3 -8 2 -12 -4 -9 -6 3 -10 10 -10 16 0
14 7 11 14 -7z m-1176 -147 c8 -9 4 -13 -19 -13 -27 -2 -28 0 -12 12 10 7 19
14 19 14 1 0 6 -6 12 -13z m137 3 c3 -5 1 -10 -4 -10 -6 0 -11 5 -11 10 0 6 2
10 4 10 3 0 8 -4 11 -10z m1018 -15 c4 -8 3 -16 -1 -19 -4 -3 -9 4 -9 15 -2
23 3 25 10 4z m-1029 -13 c3 -5 -1 -9 -9 -9 -8 0 -12 4 -9 9 3 4 7 8 9 8 2 0
6 -4 9 -8z m376 -11 c0 -14 -29 -21 -36 -9 -4 6 -3 8 4 4 6 -3 13 -2 17 4 8
12 15 13 15 1z m544 -185 c-10 -8 -21 -12 -23 -10 -3 2 4 11 15 18 10 8 21 12
23 10 3 -2 -4 -11 -15 -18z m-1052 -168 c-6 -6 -12 -6 -17 3 -5 8 -4 10 3 5 7
-4 12 0 13 11 0 12 2 13 6 5 3 -8 1 -18 -5 -24z m768 -3 c0 -12 -19 -12 -23 0
-4 9 -1 12 9 8 7 -3 14 -7 14 -8z m-235 -34 c3 -5 0 -13 -6 -17 -8 -5 -9 -3
-4 6 6 10 4 12 -9 7 -10 -4 -15 -3 -11 3 8 13 22 13 30 1z"/>
<path d="M6106 2638 c3 -5 10 -6 15 -3 13 9 11 12 -6 12 -8 0 -12 -4 -9 -9z"/>
<path d="M2117 2683 c-11 -11 -8 -21 9 -27 13 -5 14 -4 6 7 -7 8 -9 17 -5 20
3 4 4 7 1 7 -2 0 -8 -3 -11 -7z"/>
<path d="M6000 2681 c0 -6 4 -13 10 -16 6 -3 7 1 4 9 -7 18 -14 21 -14 7z"/>
<path d="M6170 2641 c0 -6 4 -13 10 -16 6 -3 7 1 4 9 -7 18 -14 21 -14 7z"/>
<path d="M5444 2614 c-18 -14 -18 -15 4 -4 12 6 22 13 22 15 0 8 -5 6 -26 -11z"/>
<path d="M6266 2603 c-6 -14 -5 -15 5 -6 7 7 10 15 7 18 -3 3 -9 -2 -12 -12z"/>
<path d="M2096 2595 c4 -8 8 -15 10 -15 2 0 4 7 4 15 0 8 -4 15 -10 15 -5 0
-7 -7 -4 -15z"/>
<path d="M4544 2558 c11 -19 13 -29 4 -34 -7 -5 -8 -3 -3 6 6 10 4 12 -9 7
-11 -5 -15 -3 -10 5 4 7 3 8 -4 4 -7 -4 -12 -1 -12 8 0 9 -5 16 -10 16 -12 0
7 -41 24 -52 6 -5 7 -8 1 -8 -18 1 -45 27 -37 36 4 4 -1 2 -11 -6 -18 -13 -18
-15 5 -33 l23 -18 -24 12 c-21 10 -27 9 -39 -7 -13 -17 -14 -17 -9 -1 4 9 2
17 -4 17 -6 0 -7 5 -3 12 4 7 3 8 -4 4 -6 -4 -8 -14 -5 -22 5 -14 3 -15 -15
-5 -15 8 -23 8 -28 -1 -4 -6 -3 -8 2 -5 6 3 16 -3 22 -14 12 -19 11 -19 -9 -9
-15 8 -19 9 -15 1 7 -10 -6 -16 -27 -12 -5 1 -5 -3 -2 -10 4 -6 -2 -17 -14
-25 -22 -16 -28 -34 -10 -34 5 0 8 4 4 9 -3 5 -1 12 4 15 5 4 8 -2 7 -11 -2
-9 -8 -19 -14 -21 -16 -5 -15 -55 1 -71 10 -11 9 -12 -3 -5 -27 15 -47 14 -26
-1 12 -9 17 -21 13 -35 -3 -12 1 -24 11 -30 10 -5 12 -10 5 -10 -6 0 -15 5
-18 10 -3 6 -11 10 -17 10 -6 0 -4 -8 5 -18 19 -21 23 -37 6 -26 -7 4 -10 -5
-8 -28 4 -41 -6 -59 -29 -52 -16 5 -16 5 0 -5 9 -6 15 -20 13 -31 -2 -11 1
-20 7 -20 5 0 7 7 4 16 -3 8 -2 12 4 9 5 -3 7 4 5 15 -2 11 0 20 6 20 5 0 7
-12 3 -27 -3 -16 -7 -49 -9 -74 -3 -55 -10 -70 -30 -62 -8 3 -15 0 -15 -7 0
-6 4 -9 9 -6 13 8 34 -21 28 -39 -4 -8 -1 -17 5 -21 7 -4 8 -3 4 4 -4 7 -2 12
3 12 14 0 14 -17 0 -26 -8 -5 -8 -9 1 -14 8 -5 8 -9 -3 -13 -11 -4 -15 0 -12
14 4 20 -9 26 -20 9 -3 -5 -2 -10 2 -10 5 0 9 -9 10 -20 1 -11 -2 -18 -7 -15
-6 3 -7 -1 -4 -9 3 -9 10 -16 16 -16 5 0 6 5 2 12 -4 7 -3 8 4 4 8 -5 10 -2 6
8 -3 9 -1 16 6 16 6 0 9 -4 5 -9 -3 -5 3 -12 12 -14 17 -4 17 -5 0 -6 -11 -1
-15 -6 -11 -13 5 -7 3 -8 -5 -3 -9 5 -12 -2 -10 -27 4 -41 -6 -59 -29 -52 -16
5 -16 5 0 -5 9 -6 15 -20 13 -31 -2 -11 0 -22 6 -25 5 -4 5 -14 -1 -26 -6 -10
-7 -19 -3 -19 4 0 1 -5 -7 -11 -12 -8 -12 -10 -1 -7 16 5 22 25 24 86 1 23 5
42 9 42 5 0 6 -11 4 -25 -3 -18 0 -25 12 -26 15 0 15 -1 1 -7 -9 -4 -15 -15
-13 -24 1 -10 -3 -18 -9 -18 -5 0 -7 -3 -4 -6 3 -4 2 -15 -3 -25 -7 -12 -6
-20 2 -25 6 -4 8 -3 4 4 -3 6 -1 14 6 18 7 4 10 3 5 -1 -4 -5 1 -17 10 -28 13
-14 14 -18 3 -12 -20 12 -60 14 -60 3 0 -4 4 -8 8 -8 4 0 8 -9 9 -20 1 -11 -2
-18 -7 -15 -6 3 -7 -1 -4 -9 3 -9 10 -16 16 -16 5 0 6 5 2 12 -4 7 -3 8 4 4 8
-5 10 -2 6 8 -3 9 -1 16 6 16 6 0 9 -4 5 -9 -3 -5 3 -12 12 -14 17 -4 17 -5 0
-6 -11 -1 -15 -6 -11 -13 5 -7 3 -8 -5 -3 -9 5 -12 -2 -10 -27 4 -41 -6 -59
-29 -52 -16 5 -16 5 0 -5 9 -6 15 -20 13 -31 -2 -11 0 -22 6 -25 5 -4 5 -14
-1 -26 -6 -10 -7 -19 -3 -19 4 0 1 -5 -7 -11 -12 -8 -12 -10 -1 -7 16 5 22 25
24 86 1 23 5 42 9 42 5 0 6 -11 4 -25 -3 -18 0 -25 12 -26 15 0 15 -1 1 -7 -9
-4 -15 -15 -13 -24 1 -10 -1 -18 -5 -18 -4 0 -8 -6 -9 -12 0 -7 -3 -22 -5 -33
-2 -11 -1 -34 3 -52 8 -35 -4 -54 -29 -46 -14 4 -14 3 1 -6 9 -6 15 -20 13
-31 -2 -11 1 -20 7 -20 5 0 7 7 4 16 -3 8 -2 12 4 9 5 -3 7 4 5 15 -2 11 0 20
6 20 5 0 7 -12 3 -28 -3 -15 -7 -48 -9 -73 -3 -52 -21 -93 -37 -83 -7 4 -8 2
-4 -5 6 -9 11 -9 23 1 13 10 14 8 11 -17 -1 -17 -9 -35 -17 -41 -11 -9 -11
-11 3 -11 15 0 20 10 17 30 0 4 4 7 10 7 7 0 8 -7 3 -17 -4 -10 -7 -30 -8 -45
0 -23 -3 -25 -21 -17 -17 9 -16 7 4 -10 13 -12 18 -21 11 -21 -10 0 -10 -3 -1
-14 9 -11 8 -17 -6 -28 -21 -15 -22 -56 -2 -70 11 -8 10 -9 -3 -4 -10 3 -20 1
-23 -4 -4 -6 -2 -10 3 -10 6 0 13 -7 16 -16 4 -10 2 -13 -6 -8 -8 5 -9 2 -5
-10 4 -11 3 -15 -4 -11 -6 4 -8 13 -5 21 3 8 0 11 -9 8 -12 -5 -12 -10 2 -30
9 -14 13 -27 9 -31 -3 -3 -6 -1 -6 6 0 7 -5 9 -10 6 -6 -4 -7 -11 -4 -17 4 -6
-2 -6 -15 1 -17 10 -20 9 -15 -4 5 -11 2 -14 -12 -9 -16 5 -16 4 -4 -5 8 -6
11 -11 5 -11 -5 0 -4 -5 2 -11 6 -6 9 -18 6 -26 -5 -11 -7 -11 -17 2 -8 11
-15 12 -26 4 -13 -9 -13 -10 2 -6 20 7 18 -14 -2 -35 -15 -14 -53 -21 -45 -8
2 4 -2 7 -10 7 -8 0 -12 -4 -9 -9 3 -4 0 -8 -5 -8 -6 0 -11 6 -11 13 0 8 -4 7
-10 -3 -8 -12 -12 -13 -19 -2 -7 11 -9 11 -14 -1 -8 -21 2 -28 25 -16 18 10
18 8 8 -11 -6 -11 -15 -18 -21 -14 -5 3 -20 -1 -33 -9 -19 -13 -23 -13 -23 -2
0 8 4 12 9 9 4 -3 8 0 8 6 0 6 4 8 10 5 6 -3 7 1 4 9 -5 14 -8 14 -21 0 -12
-12 -18 -12 -31 -2 -13 11 -14 10 -4 -9 11 -19 10 -21 -8 -18 -11 2 -22 0 -25
-6 -8 -12 -25 -12 -25 2 0 5 4 8 9 4 5 -3 12 -1 16 5 4 6 11 7 17 4 7 -4 8 -2
4 5 -6 9 -11 9 -22 0 -11 -9 -14 -8 -14 2 0 11 -2 11 -9 1 -4 -7 -12 -12 -17
-11 -20 3 -34 -2 -34 -12 0 -8 5 -8 15 1 9 7 15 8 15 2 0 -16 -26 -22 -40 -9
-10 9 -11 9 -6 0 5 -10 -23 -34 -44 -37 -2 -1 -5 -7 -6 -14 -1 -6 2 -10 7 -6
5 3 7 9 4 14 -3 5 3 7 15 5 11 -2 22 0 25 6 4 5 12 9 18 9 13 -1 -22 -24 -38
-25 -5 -1 -9 -7 -7 -14 1 -7 -2 -10 -7 -7 -5 4 -16 0 -24 -8 -8 -8 -18 -12
-21 -8 -4 3 -4 0 -1 -9 3 -8 -4 -25 -15 -37 -11 -12 -16 -22 -10 -22 6 0 8 -5
4 -12 -4 -6 2 -18 12 -26 18 -13 17 -14 -8 -8 l-27 6 24 -26 c30 -32 31 -40 8
-53 -16 -9 -15 -10 5 -8 12 1 22 6 22 12 0 5 5 2 11 -8 6 -10 8 -21 5 -24 -3
-4 -6 -1 -6 5 0 6 -7 9 -15 6 -14 -6 -13 -8 2 -19 10 -7 20 -12 23 -10 3 2 7
-6 7 -18 1 -12 -3 -25 -10 -29 -9 -6 -9 -8 1 -9 33 -4 37 -6 34 -17 -1 -7 2
-12 8 -12 15 0 12 16 -5 30 -8 7 -15 18 -15 24 0 6 5 3 11 -7 6 -9 15 -14 21
-11 7 5 8 2 3 -6 -6 -10 -4 -12 9 -7 10 4 19 1 23 -8 4 -12 8 -13 20 -4 8 7
13 8 12 3 -4 -20 2 -31 16 -31 8 0 15 5 15 11 0 6 4 4 9 -4 13 -19 3 -34 -14
-20 -9 7 -15 7 -23 -2 -8 -10 5 -13 64 -15 54 -1 72 2 68 10 -5 8 -2 8 7 0 9
-9 48 -13 117 -13 85 0 103 3 99 14 -6 15 17 16 30 1 4 -4 2 -5 -4 -1 -7 4
-13 2 -13 -4 0 -5 13 -9 29 -8 16 1 27 6 25 10 -3 5 -10 5 -16 2 -7 -4 -8 -2
-4 4 4 7 2 12 -3 12 -6 0 -11 4 -11 8 0 5 7 9 15 9 8 0 12 -3 10 -7 -2 -3 5
-11 16 -18 15 -10 19 -10 17 0 -2 7 4 12 12 13 9 0 14 8 12 18 -2 9 2 17 8 17
5 0 10 -5 10 -12 0 -6 3 -8 8 -4 4 4 7 12 7 17 0 5 5 8 10 7 6 -2 9 -6 8 -10
-1 -3 5 -12 15 -20 15 -11 16 -11 5 3 -19 23 -3 32 21 12 20 -17 20 -17 6 0
-17 22 -20 56 -7 64 6 3 7 1 3 -5 -5 -8 2 -12 19 -12 15 0 24 4 20 10 -4 6
-11 7 -17 4 -7 -4 -8 -2 -4 4 8 13 36 5 36 -11 0 -6 3 -7 6 -4 4 4 1 13 -6 22
-9 11 -9 15 -1 15 7 0 9 4 6 10 -4 6 4 6 21 -1 l28 -10 -19 22 -20 22 22 -12
c20 -10 22 -9 16 6 -3 10 -3 15 1 11 14 -12 35 15 24 30 -6 7 -8 15 -4 19 3 3
6 1 6 -5 0 -7 5 -12 11 -12 5 0 7 5 4 10 -3 6 1 10 10 10 10 0 13 -5 9 -12 -4
-7 -3 -8 5 -4 6 4 9 12 6 17 -4 5 1 12 9 15 10 4 14 16 12 35 -2 18 1 26 7 22
6 -4 8 0 4 11 -5 13 -2 15 17 12 18 -3 23 0 22 17 -1 12 -5 28 -9 35 -5 6 -4
12 2 12 5 0 14 -7 19 -16 8 -15 10 -15 15 0 5 12 3 15 -5 10 -7 -5 -9 -2 -5 9
4 12 1 15 -11 11 -14 -4 -13 -3 2 6 14 10 20 9 28 -1 7 -11 8 -9 4 4 -3 10 -6
21 -6 23 0 3 -4 3 -9 -1 -5 -3 -12 -1 -15 4 -4 6 7 8 26 6 22 -3 28 -2 19 4
-18 12 -23 39 -9 48 6 3 8 2 5 -4 -3 -5 1 -10 10 -10 12 0 11 5 -7 19 -12 10
-17 18 -10 18 9 0 9 4 -1 17 -12 14 -12 16 0 8 11 -6 13 -4 8 7 -4 12 -1 14
15 10 20 -5 20 -6 3 -19 -16 -11 -16 -13 -3 -13 20 0 30 24 16 38 -8 8 -8 15
-1 24 13 16 13 48 0 48 -5 0 1 9 14 21 21 18 22 20 4 15 -17 -5 -17 -4 4 12
18 15 21 21 11 27 -9 5 -11 4 -6 -3 5 -8 1 -10 -9 -5 -9 3 -12 9 -7 12 5 3 8
14 6 24 -1 9 2 15 7 11 5 -3 7 -10 4 -15 -4 -5 -1 -9 5 -9 7 0 9 7 6 16 -3 9
-6 25 -6 35 0 13 -4 18 -12 13 -7 -4 -8 -3 -4 5 4 6 10 9 14 7 4 -2 16 2 26 9
18 13 18 14 -2 12 -11 0 -18 -5 -16 -9 3 -4 -3 -5 -12 -1 -11 4 -13 8 -6 11 7
2 12 10 12 18 0 10 -5 12 -12 8 -10 -6 -10 -4 -2 7 6 8 10 24 9 36 -1 14 3 19
12 16 7 -3 10 -10 6 -17 -11 -16 -12 -35 -3 -41 4 -2 7 5 6 18 -1 15 4 21 14
19 10 -2 7 5 -9 22 -21 22 -22 28 -10 43 12 15 12 16 -3 10 -10 -3 -22 1 -30
11 -12 16 -11 16 6 2 18 -14 19 -13 13 3 -4 10 -3 16 1 14 4 -2 15 4 25 15 19
20 9 26 -11 6 -9 -9 -12 -9 -12 1 0 7 -5 9 -12 5 -7 -4 -8 -3 -4 5 4 6 11 9
16 6 5 -3 11 -1 15 5 6 10 -8 15 -30 10 -5 -1 -4 4 3 11 15 16 16 33 1 23 -8
-5 -8 -1 0 14 14 27 14 35 -1 26 -7 -4 -8 -3 -4 4 4 6 13 9 21 5 8 -3 15 0 15
6 0 10 -12 15 -31 13 -3 -1 -6 5 -6 13 0 11 5 11 31 -1 31 -15 31 -15 8 3 -13
10 -20 22 -16 26 4 4 12 2 19 -3 8 -7 12 -5 12 4 0 10 -10 13 -31 11 -17 -2
-25 -1 -18 2 6 2 12 11 12 19 0 9 -5 12 -12 8 -7 -5 -8 -3 -2 7 13 21 14 43 2
50 -6 4 -7 12 -4 18 13 20 24 2 21 -33 -1 -26 2 -33 12 -29 11 4 11 8 3 13 -8
5 -7 11 4 23 14 13 14 16 0 21 -8 3 -12 10 -9 16 6 9 -8 15 -29 11 -5 -1 -4 5
4 14 10 12 16 13 28 3 10 -9 13 -9 9 -1 -4 6 -4 13 0 16 5 2 2 2 -4 1 -7 -2
-13 1 -13 7 0 6 -4 7 -10 4 -5 -3 -10 -1 -10 5 0 7 7 9 16 6 10 -4 14 -1 11 6
-2 7 -11 13 -19 12 -8 -1 -15 4 -15 11 0 7 7 11 15 8 11 -5 12 -2 5 13 -13 27
-10 79 4 77 7 -2 10 4 7 12 -5 11 -2 13 10 9 9 -3 16 -1 16 5 0 6 -3 10 -7 10
-24 -4 -25 4 -3 22 23 18 23 19 3 9 -25 -12 -30 -2 -10 19 9 11 9 13 0 7 -9
-5 -12 0 -10 16 1 12 -3 23 -10 23 -6 0 -15 4 -20 8 -4 5 -2 7 6 5 7 -2 16 3
18 10 3 8 -2 10 -14 6 -10 -3 -14 -2 -8 3 15 12 19 47 4 37 -8 -5 -9 -3 -3 7
13 22 14 43 1 51 -7 4 -3 6 10 5 12 0 19 -5 17 -9 -3 -4 -7 -17 -9 -27 -3 -15
0 -18 13 -14 11 5 12 8 3 11 -9 3 -8 10 4 28 8 13 12 24 8 23 -4 -1 -18 -1
-30 0 -23 1 -23 1 -4 20 24 24 23 77 0 75 -9 -1 -16 4 -16 11 0 7 7 11 15 8
11 -5 12 -2 5 13 -13 27 -10 79 4 77 7 -2 10 4 7 12 -5 11 -1 14 12 9 16 -5
16 -4 4 5 -8 6 -24 11 -34 11 -19 0 -19 1 -2 13 20 15 31 67 14 67 -6 0 -7 -7
-4 -16 3 -9 2 -12 -5 -9 -6 4 -8 13 -5 20 2 7 0 17 -5 22 -6 6 -4 10 5 10 8 0
13 -4 10 -9 -3 -4 0 -8 6 -8 7 0 9 7 6 16 -3 9 -6 17 -6 20 0 2 -8 1 -17 -3
-12 -4 -10 1 6 14 26 21 21 48 -8 39 -14 -5 -14 -4 1 7 10 8 15 17 11 20 -3 4
0 14 8 24 8 9 10 14 4 11 -5 -3 -16 0 -23 8 -7 8 -8 14 -2 14 5 0 10 7 10 16
0 8 5 12 10 9 16 -10 11 1 -7 16 -10 8 -14 9 -10 2 4 -6 3 -14 -2 -17 -13 -9
-7 19 9 40 12 16 12 17 0 7 -23 -21 -33 -14 -17 11 15 22 15 24 -1 22 -9 -2
-24 5 -34 16 -12 14 -17 15 -21 6 -3 -7 -4 1 -3 18 2 17 6 37 10 45 5 10 4 10
-6 -1 -7 -8 -26 -16 -43 -17 -27 -2 -28 -2 -7 7 23 10 29 25 12 35 -5 3 -7 0
-4 -9 6 -16 -19 -17 -33 -1 -4 4 -2 5 5 1 11 -7 11 -4 1 13 -14 22 -32 9 -22
-16 3 -7 0 -13 -7 -13 -6 0 -8 5 -5 10 3 6 1 10 -4 10 -6 0 -11 -5 -11 -12 0
-6 -3 -8 -7 -5 -3 4 2 17 13 29 10 13 15 20 10 16 -5 -4 -15 0 -23 10 -13 15
-13 15 -4 -4 9 -18 7 -23 -7 -26 -14 -4 -18 1 -16 24 2 28 1 28 -16 13 -14
-13 -19 -13 -23 -3 -4 10 -6 10 -6 1 -1 -18 -21 -16 -38 5 -11 12 -11 9 1 -10z
m76 -1 c0 -2 -9 -14 -20 -27 -11 -13 -20 -18 -20 -12 0 7 0 15 0 20 0 4 4 7 9
7 5 0 13 3 17 8 8 7 14 9 14 4z m-220 -111 c0 -3 -4 -8 -10 -11 -5 -3 -10 -1
-10 4 0 6 5 11 10 11 6 0 10 -2 10 -4z m445 -165 c3 -5 2 -12 -3 -15 -5 -3 -9
1 -9 9 0 17 3 19 12 6z m15 -75 c0 -3 -4 -8 -10 -11 -5 -3 -10 -1 -10 4 0 6 5
11 10 11 6 0 10 -2 10 -4z m-12 -131 c-3 -3 -9 2 -12 12 -6 14 -5 15 5 6 7 -7
10 -15 7 -18z m-525 -80 c-3 -9 -8 -14 -10 -11 -3 3 -2 9 2 15 9 16 15 13 8
-4z m-13 -35 c0 -5 -7 -10 -16 -10 -8 0 -12 5 -9 10 3 6 10 10 16 10 5 0 9 -4
9 -10z m546 -87 c-2 -9 -8 -18 -15 -19 -6 -1 -7 0 -2 2 6 3 7 12 4 20 -3 8 -1
14 5 14 6 0 9 -8 8 -17z m-533 -118 c-3 -9 -8 -14 -10 -11 -3 3 -2 9 2 15 9
16 15 13 8 -4z m537 -109 c0 -3 -4 -8 -10 -11 -5 -3 -10 -1 -10 4 0 6 5 11 10
11 6 0 10 -2 10 -4z m-5 -57 c0 -16 -7 -34 -15 -41 -12 -11 -12 -10 -1 5 11
14 11 17 0 18 -10 0 -11 2 -2 6 9 3 10 10 3 22 -6 12 -5 18 3 18 7 0 12 -12
12 -28z m-545 -44 c0 -2 -6 -5 -13 -8 -8 -3 -14 1 -14 8 0 7 6 11 14 8 7 -3
13 -6 13 -8z m13 -110 c-3 -9 -8 -14 -10 -11 -3 3 -2 9 2 15 9 16 15 13 8 -4z
m-16 -162 c-4 -3 -2 -11 3 -18 7 -8 5 -12 -4 -12 -8 0 -12 7 -11 16 5 22 4 21
12 21 3 0 3 -3 0 -7z m16 -238 c-3 -9 -8 -14 -10 -11 -3 3 -2 9 2 15 9 16 15
13 8 -4z m-19 -37 c-5 -8 -1 -9 12 -4 14 5 16 4 7 -5 -6 -6 -16 -8 -22 -5 -14
9 -14 26 0 26 5 0 7 -5 3 -12z m20 -104 c3 -8 2 -12 -4 -9 -6 3 -10 10 -10 16
0 14 7 11 14 -7z m-1 -59 c4 -8 3 -16 -1 -19 -4 -3 -9 4 -9 15 -2 23 3 25 10
4z m-23 -69 c0 -2 -7 -7 -16 -10 -8 -3 -12 -2 -9 4 6 10 25 14 25 6z m510
-136 c0 -5 -5 -10 -11 -10 -5 0 -7 5 -4 10 3 6 8 10 11 10 2 0 4 -4 4 -10z
m-580 -28 c0 -5 -7 -9 -15 -9 -8 0 -12 4 -9 9 3 4 9 8 15 8 5 0 9 -4 9 -8z
m-133 -124 c-3 -8 -6 -5 -6 6 -1 11 2 17 5 13 3 -3 4 -12 1 -19z m629 -103
c-1 -8 -5 -17 -8 -21 -5 -4 -4 16 1 34 3 9 9 -1 7 -13z m-941 -35 c-3 -5 0
-10 7 -10 10 0 10 -2 -1 -9 -7 -5 -10 -15 -7 -22 4 -8 0 -5 -8 5 -12 14 -13
23 -5 33 13 15 23 18 14 3z m890 -38 c4 -24 -19 -49 -30 -32 -4 6 -3 10 2 9
20 -3 27 2 13 11 -9 6 -11 10 -3 10 7 0 10 7 6 18 -3 9 -3 14 1 11 4 -4 8 -16
11 -27z m-901 -20 c3 -5 -1 -9 -9 -9 -8 0 -15 4 -15 9 0 4 4 8 9 8 6 0 12 -4
15 -8z m831 -62 c3 -5 1 -10 -4 -10 -6 0 -11 5 -11 10 0 6 2 10 4 10 3 0 8 -4
11 -10z m-235 -174 c0 -3 -4 -8 -10 -11 -5 -3 -10 -1 -10 4 0 6 5 11 10 11 6
0 10 -2 10 -4z"/>
<path d="M2114 2524 c-10 -8 -14 -13 -7 -10 6 4 14 2 18 -4 3 -5 1 -10 -4 -10
-6 0 -11 -5 -11 -12 0 -21 23 9 25 32 2 24 3 24 -21 4z"/>
<path d="M4796 2457 c3 -10 9 -15 12 -12 3 3 0 11 -7 18 -10 9 -11 8 -5 -6z"/>
<path d="M2110 2431 c0 -5 7 -12 16 -15 14 -5 15 -4 4 9 -14 17 -20 19 -20 6z"/>
<path d="M5203 2395 c-7 -8 -9 -16 -4 -19 5 -3 12 1 15 10 8 22 4 25 -11 9z"/>
<path d="M2090 2359 c0 -5 5 -7 10 -4 6 3 10 8 10 11 0 2 -4 4 -10 4 -5 0 -10
-5 -10 -11z"/>
<path d="M6286 2315 c-6 -17 5 -26 21 -17 8 5 7 11 -2 19 -10 10 -14 9 -19 -2z"/>
<path d="M4273 2278 c-1 -10 3 -18 9 -16 18 6 21 25 5 31 -8 3 -13 -3 -14 -15z"/>
<path d="M4870 2259 c0 -5 5 -7 10 -4 6 3 10 8 10 11 0 2 -4 4 -10 4 -5 0 -10
-5 -10 -11z"/>
<path d="M4880 2240 c-9 -6 -10 -10 -3 -10 6 0 15 5 18 10 8 12 4 12 -15 0z"/>
<path d="M5127 2240 c9 -10 9 -18 1 -34 -11 -21 -11 -21 11 -2 11 11 20 20 19
20 -2 1 -12 8 -23 16 -15 11 -17 11 -8 0z"/>
<path d="M6114 2239 c-4 -7 -3 -9 4 -5 5 3 13 0 15 -6 4 -9 6 -10 6 -1 1 17
-16 25 -25 12z"/>
<path d="M6193 2243 c4 -6 2 -13 -5 -15 -8 -3 -6 -6 4 -10 17 -7 19 15 3 29
-4 4 -5 3 -2 -4z"/>
<path d="M2095 2220 c3 -5 8 -10 11 -10 2 0 4 5 4 10 0 6 -5 10 -11 10 -5 0
-7 -4 -4 -10z"/>
<path d="M4253 2217 c-4 -6 -1 -7 7 -2 9 6 12 4 8 -7 -4 -8 -2 -21 4 -29 8
-11 9 -11 4 3 -3 10 -1 20 4 23 6 4 10 10 10 14 0 11 -30 9 -37 -2z"/>
<path d="M3600 2190 c-8 -5 -10 -10 -5 -10 6 0 17 5 25 10 8 5 11 10 5 10 -5
0 -17 -5 -25 -10z"/>
<path d="M3600 2160 c-12 -7 -10 -9 7 -7 12 0 19 5 17 9 -6 10 -6 10 -24 -2z"/>
<path d="M4270 2150 c0 -5 5 -10 11 -10 5 0 7 5 4 10 -3 6 -8 10 -11 10 -2 0
-4 -4 -4 -10z"/>
<path d="M4880 2080 c-12 -7 -12 -11 -2 -20 6 -5 10 -7 7 -4 -3 4 0 13 6 21
13 15 10 16 -11 3z"/>
<path d="M3595 2059 c1 -13 -2 -30 -8 -36 -6 -9 -6 -13 1 -13 21 0 32 36 18
55 -12 17 -13 16 -11 -6z"/>
<path d="M4262 2039 c6 -16 12 -28 14 -26 5 5 -13 57 -20 57 -3 0 0 -14 6 -31z"/>
<path d="M4853 1993 c0 -8 6 -9 19 -2 10 5 18 11 18 12 0 2 -8 3 -18 3 -10 0
-19 -6 -19 -13z"/>
<path d="M5830 2000 c-9 -6 -10 -10 -3 -10 6 0 15 5 18 10 8 12 4 12 -15 0z"/>
<path d="M4270 1990 c0 -5 5 -10 11 -10 5 0 7 5 4 10 -3 6 -8 10 -11 10 -2 0
-4 -4 -4 -10z"/>
<path d="M2120 1970 c-8 -5 -11 -10 -6 -10 6 0 1 -7 -10 -15 -19 -15 -19 -15
1 -9 16 6 18 4 8 -6 -8 -9 -9 -19 -2 -31 11 -21 9 -40 -6 -52 -6 -5 -5 -7 3
-5 8 2 12 6 11 8 -1 3 3 15 10 28 10 18 9 23 -4 28 -12 5 -13 9 -3 21 9 11 20
54 14 53 -1 0 -8 -5 -16 -10z"/>
<path d="M4861 1966 c-9 -10 -7 -17 6 -27 16 -12 17 -12 6 2 -10 12 -10 18 -1
27 7 7 9 12 6 12 -3 0 -11 -6 -17 -14z"/>
<path d="M5930 1960 c0 -5 5 -10 11 -10 5 0 7 5 4 10 -3 6 -8 10 -11 10 -2 0
-4 -4 -4 -10z"/>
<path d="M4880 1920 c-9 -6 -10 -10 -3 -10 6 0 15 5 18 10 8 12 4 12 -15 0z"/>
<path d="M5150 1890 c-8 -5 -12 -12 -9 -15 4 -3 12 1 19 10 14 17 11 19 -10 5z"/>
<path d="M6065 1890 c-3 -5 -5 -10 -3 -11 33 -8 38 -7 27 7 -14 17 -16 17 -24
4z"/>
<path d="M4870 1829 c0 -5 5 -7 10 -4 6 3 10 8 10 11 0 2 -4 4 -10 4 -5 0 -10
-5 -10 -11z"/>
<path d="M4266 1787 c3 -10 9 -15 12 -12 3 3 0 11 -7 18 -10 9 -11 8 -5 -6z"/>
<path d="M4270 1750 c0 -5 5 -10 11 -10 5 0 7 5 4 10 -3 6 -8 10 -11 10 -2 0
-4 -4 -4 -10z"/>
<path d="M2095 1740 c3 -5 8 -10 11 -10 2 0 4 5 4 10 0 6 -5 10 -11 10 -5 0
-7 -4 -4 -10z"/>
<path d="M4870 1729 c-22 -18 -22 -19 -3 -10 12 6 25 16 28 21 9 15 3 12 -25
-11z"/>
<path d="M6296 1742 c-10 -16 9 -30 21 -17 10 10 9 14 -2 19 -8 3 -16 2 -19
-2z"/>
<path d="M2117 1723 c-11 -11 -8 -21 9 -27 13 -5 14 -4 6 7 -7 8 -9 17 -5 20
3 4 4 7 1 7 -2 0 -8 -3 -11 -7z"/>
<path d="M4880 1680 c-9 -6 -10 -10 -3 -10 6 0 15 5 18 10 8 12 4 12 -15 0z"/>
<path d="M4256 1657 c3 -10 9 -15 12 -12 3 3 0 11 -7 18 -10 9 -11 8 -5 -6z"/>
<path d="M2096 1635 c4 -8 8 -15 10 -15 2 0 4 7 4 15 0 8 -4 15 -10 15 -5 0
-7 -7 -4 -15z"/>
<path d="M3600 1627 c-12 -21 -12 -21 6 -7 10 8 20 15 22 16 2 1 -1 4 -5 7 -5
3 -15 -4 -23 -16z"/>
<path d="M6405 1620 c-3 -5 -1 -10 4 -10 6 0 11 5 11 10 0 6 -2 10 -4 10 -3 0
-8 -4 -11 -10z"/>
<path d="M3600 1600 c-12 -7 -10 -9 7 -7 12 0 19 5 17 9 -6 10 -6 10 -24 -2z"/>
<path d="M2093 1585 c0 -8 4 -12 9 -9 5 3 6 10 3 15 -9 13 -12 11 -12 -6z"/>
<path d="M5450 1580 c0 -5 5 -10 11 -10 5 0 7 5 4 10 -3 6 -8 10 -11 10 -2 0
-4 -4 -4 -10z"/>
<path d="M3583 1513 c2 -15 8 -28 14 -30 16 -6 13 45 -4 51 -10 4 -13 -1 -10
-21z"/>
<path d="M4853 1513 c0 -8 6 -9 19 -2 10 5 18 11 18 12 0 2 -8 3 -18 3 -10 0
-19 -6 -19 -13z"/>
<path d="M5660 1516 c0 -2 8 -10 18 -17 15 -13 16 -12 3 4 -13 16 -21 21 -21
13z"/>
<path d="M4861 1486 c-9 -10 -7 -17 6 -27 16 -12 17 -12 6 2 -10 12 -10 18 -1
27 7 7 9 12 6 12 -3 0 -11 -6 -17 -14z"/>
<path d="M4266 1467 c3 -10 9 -15 12 -12 3 3 0 11 -7 18 -10 9 -11 8 -5 -6z"/>
<path d="M4880 1440 c-9 -6 -10 -10 -3 -10 6 0 15 5 18 10 8 12 4 12 -15 0z"/>
<path d="M2116 1431 c-4 -5 3 -7 14 -4 23 6 26 13 6 13 -8 0 -17 -4 -20 -9z"/>
<path d="M4270 1430 c0 -5 5 -10 11 -10 5 0 7 5 4 10 -3 6 -8 10 -11 10 -2 0
-4 -4 -4 -10z"/>
<path d="M5850 1430 c0 -12 29 -45 35 -39 2 2 -5 15 -16 28 -10 13 -19 18 -19
11z"/>
<path d="M3599 1403 c-6 -32 -5 -53 1 -53 4 0 7 14 7 30 0 27 -5 41 -8 23z"/>
<path d="M6466 1381 c-4 -5 -2 -12 3 -15 5 -4 12 -2 15 3 4 5 2 12 -3 15 -5 4
-12 2 -15 -3z"/>
<path d="M4256 1337 c3 -10 9 -15 12 -12 3 3 0 11 -7 18 -10 9 -11 8 -5 -6z"/>
<path d="M5882 1337 c10 -8 15 -17 11 -20 -3 -4 -1 -7 5 -7 23 0 20 18 -6 29
-23 10 -25 10 -10 -2z"/>
<path d="M2148 1293 c7 -3 16 -2 19 1 4 3 -2 6 -13 5 -11 0 -14 -3 -6 -6z"/>
<path d="M4876 1255 c-11 -8 -15 -15 -9 -15 6 0 16 7 23 15 16 19 11 19 -14 0z"/>
<path d="M4260 1245 c0 -5 5 -17 10 -25 5 -8 10 -10 10 -5 0 6 -5 17 -10 25
-5 8 -10 11 -10 5z"/>
<path d="M5303 1237 c0 -8 6 -14 14 -14 9 0 10 4 2 14 -6 7 -12 13 -14 13 -1
0 -2 -6 -2 -13z"/>
<path d="M2178 1213 c6 -2 12 -12 12 -21 0 -15 2 -15 10 -2 9 15 -4 30 -25 29
-5 0 -4 -3 3 -6z"/>
<path d="M4270 1190 c0 -5 5 -10 11 -10 5 0 7 5 4 10 -3 6 -8 10 -11 10 -2 0
-4 -4 -4 -10z"/>
<path d="M5520 1189 c0 -5 -6 -7 -12 -3 -7 4 -9 3 -5 -1 13 -15 36 -14 30 1
-6 17 -13 18 -13 3z"/>
<path d="M4875 1141 c-13 -5 -20 -18 -20 -35 -1 -23 1 -25 11 -12 6 9 15 12
19 8 5 -4 5 -1 1 6 -4 7 -12 10 -17 7 -5 -4 -9 -1 -9 4 0 6 6 11 14 11 8 0 18
5 21 10 7 11 7 11 -20 1z"/>
<path d="M6414 1100 c0 -13 4 -16 10 -10 7 7 7 13 0 20 -6 6 -10 3 -10 -10z"/>
<path d="M4262 1079 c6 -16 12 -28 14 -26 5 5 -13 57 -20 57 -3 0 0 -14 6 -31z"/>
<path d="M5110 1081 c0 -6 4 -13 10 -16 6 -3 7 1 4 9 -7 18 -14 21 -14 7z"/>
<path d="M6365 1041 c-3 -5 0 -13 6 -17 7 -4 9 -3 5 4 -3 5 0 13 6 15 9 4 10
6 1 6 -6 1 -14 -3 -18 -8z"/>
<path d="M4270 1030 c0 -5 5 -10 11 -10 5 0 7 5 4 10 -3 6 -8 10 -11 10 -2 0
-4 -4 -4 -10z"/>
<path d="M4875 1019 c-4 -6 -5 -12 -2 -15 2 -3 7 2 10 11 7 17 1 20 -8 4z"/>
<path d="M2290 1001 c0 -6 4 -13 10 -16 6 -3 7 1 4 9 -7 18 -14 21 -14 7z"/>
<path d="M5100 1003 c0 -1 8 -7 18 -12 13 -7 19 -6 19 2 0 7 -9 13 -19 13 -10
0 -18 -1 -18 -3z"/>
<path d="M4874 968 l-19 -23 23 19 c21 18 27 26 19 26 -2 0 -12 -10 -23 -22z"/>
<path d="M2377 932 c1 -8 3 -17 3 -20 0 -4 5 0 10 8 6 10 10 11 10 3 0 -7 5
-13 11 -13 8 0 8 5 -1 15 -7 8 -16 13 -20 10 -5 -3 -10 -2 -13 2 -2 5 -2 2 0
-5z"/>
<path d="M4260 896 c0 -2 7 -7 16 -10 8 -3 12 -2 9 4 -6 10 -25 14 -25 6z"/>
<path d="M6150 860 c0 -5 9 -8 20 -7 21 1 18 10 -5 13 -8 1 -15 -2 -15 -6z"/>
<path d="M5210 844 c0 -8 5 -12 10 -9 6 4 8 11 5 16 -9 14 -15 11 -15 -7z"/>
<path d="M4255 840 c-3 -5 -1 -10 4 -10 6 0 11 5 11 10 0 6 -2 10 -4 10 -3 0
-8 -4 -11 -10z"/>
<path d="M4260 810 c-8 -5 -10 -10 -5 -10 6 0 17 5 25 10 8 5 11 10 5 10 -5 0
-17 -5 -25 -10z"/>
<path d="M5356 782 c-3 -5 1 -9 9 -9 8 0 12 4 9 9 -3 4 -7 8 -9 8 -2 0 -6 -4
-9 -8z"/>
<path d="M2975 769 c-10 -15 3 -25 16 -12 7 7 7 13 1 17 -6 3 -14 1 -17 -5z"/>
<path d="M2745 761 c-3 -5 -2 -12 3 -15 5 -3 9 1 9 9 0 17 -3 19 -12 6z"/>
<path d="M5590 755 c0 -8 2 -15 4 -15 2 0 6 7 10 15 3 8 1 15 -4 15 -6 0 -10
-7 -10 -15z"/>
<path d="M4833 655 c0 -8 4 -12 9 -9 4 3 8 9 8 15 0 5 -4 9 -8 9 -5 0 -9 -7
-9 -15z"/>
<path d="M4140 540 c-8 -5 -12 -11 -10 -14 3 -2 14 2 24 10 22 15 10 19 -14 4z"/>
<path d="M4700 306 c0 -2 7 -7 16 -10 8 -3 12 -2 9 4 -6 10 -25 14 -25 6z"/>
<path d="M3720 219 c-12 -8 -11 -9 5 -7 12 2 19 -2 17 -10 -1 -8 2 -11 8 -7 8
5 7 11 -1 21 -14 17 -10 16 -29 3z"/>
<path d="M4615 180 c-3 -5 -1 -10 4 -10 6 0 11 5 11 10 0 6 -2 10 -4 10 -3 0
-8 -4 -11 -10z"/>
<path d="M3773 115 c0 -7 6 -11 14 -8 7 3 13 6 13 8 0 2 -6 5 -13 8 -8 3 -14
-1 -14 -8z"/>
<path d="M3866 61 c-3 -5 1 -14 9 -21 10 -9 15 -9 15 -1 0 6 -5 11 -11 11 -5
0 -7 5 -4 10 3 6 4 10 1 10 -3 0 -7 -4 -10 -9z"/>
<path d="M3901 34 c0 -11 3 -14 6 -6 3 7 2 16 -1 19 -3 4 -6 -2 -5 -13z"/>
</g>
</svg>
