<svg width="409" height="48" viewBox="0 0 409 48" fill="none" xmlns="http://www.w3.org/2000/svg">
<path d="M148.216 40.0002C137.804 40.0002 131.056 32.4087 131.056 24.4989V23.5101C131.056 15.4662 137.804 8.00879 148.216 8.00879C158.627 8.00879 165.417 15.4662 165.417 23.5101V24.4989C165.417 32.3836 158.669 40.0002 148.216 40.0002ZM159.86 23.6023C159.86 17.8375 155.725 12.7095 148.216 12.7095C140.707 12.7095 136.638 17.8458 136.638 23.6023V24.3145C136.638 30.0793 140.773 35.3079 148.216 35.3079C155.659 35.3079 159.86 30.0793 159.86 24.3145V23.6023Z" fill="#3499CD"/>
<path d="M30.7191 38.8436L26.8323 31.47H9.54849L5.79402 38.8436H0.00518799L15.8335 9.08105H20.4232L36.5658 38.8436H30.7191ZM18.0167 14.8878L11.6242 27.3978H24.6325L18.0167 14.8878Z" fill="#010101"/>
<path d="M61.6314 39.9999C51.0957 39.9999 46.2 34.1932 46.2 26.4593V9.08105H51.6664V26.518C51.6664 32.0147 55.2389 35.2741 62.0284 35.2741C68.9998 35.2741 71.8694 32.0147 71.8694 26.518V9.08105H77.377V26.4593C77.377 33.8329 72.7046 39.9999 61.6314 39.9999Z" fill="#010101"/>
<path d="M108.083 13.7231V38.8604H102.567V13.7231H89.7321V9.08105H120.917V13.7231H108.083Z" fill="#010101"/>
<path d="M214.548 38.8436V15.29L213.092 17.8791L200.787 38.8269H198.099L185.926 17.8791L184.47 15.29V38.8436H179.087V9.08105H186.72L198.298 29.5009L199.662 32.0147L201.027 29.5009L212.497 9.08105H220.097V38.8436H214.548Z" fill="#010101"/>
<path d="M261.743 38.8436L257.865 31.47H240.614L236.868 38.8436H231.079L246.957 9.08105H251.522L267.664 38.8436H261.743ZM249.082 14.8878L242.69 27.3978H255.698L249.082 14.8878Z" fill="#010101"/>
<path d="M289.885 13.7231V38.8604H284.369V13.7231H271.534V9.08105H302.72V13.7231H289.885Z" fill="#010101"/>
<path d="M330.324 13.7231V38.8604H324.816V13.7231H311.982V9.08105H343.167V13.7231H330.324Z" fill="#010101"/>
<path d="M356.746 38.8436V11.8964C358.954 11.8964 359.831 10.6898 359.831 9.08105H362.171V38.8436H356.746Z" fill="#010101"/>
<path d="M405.339 17.4768C402.16 14.4192 397.946 12.7103 393.563 12.7007C385.707 12.7007 381.299 18.1471 381.299 23.8281V24.4063C381.299 30.037 385.748 35.2991 393.952 35.2991C398.245 35.2199 402.355 33.5163 405.471 30.523L408.779 34.0506C404.659 37.9274 399.227 40.0539 393.604 39.9914C382.49 39.9914 375.742 32.6681 375.742 24.6241V23.6354C375.742 15.5915 383.102 8 393.869 8C400.088 8 405.736 10.631 408.755 13.9408L405.339 17.4768Z" fill="#010101"/>
<path d="M148.887 19.0009L143.836 26.927C143.197 27.9301 143.481 29.2682 144.471 29.9158L144.478 29.9204C145.468 30.568 146.788 30.2799 147.428 29.2769L152.479 21.3507C153.118 20.3477 152.834 19.0096 151.844 18.3619L151.837 18.3574C150.847 17.7098 149.526 17.9978 148.887 19.0009Z" fill="#010101"/>
</svg>
