<svg width="199" height="48" viewBox="0 0 199 48" fill="none" xmlns="http://www.w3.org/2000/svg">
<g clip-path="url(#clip0_246_113)">
<path d="M1.08936 35.2946L8.14417 29.8901C11.8923 34.782 15.8745 37.0368 20.3071 37.0368C24.716 37.0368 28.5857 34.8087 32.1649 29.9553L39.3205 35.2294C34.156 42.2279 27.7382 45.9257 20.3071 45.9257C12.8997 45.9257 6.41973 42.2516 1.08936 35.2946Z" fill="url(#paint0_linear_246_113)"/>
<path d="M20.2834 11.8044L7.72632 22.6251L1.92188 15.8933L20.31 0.0473633L38.553 15.9051L32.7219 22.6133L20.2834 11.8044Z" fill="url(#paint1_linear_246_113)"/>
<path d="M66.3752 39.2501C62.0878 39.2501 58.5145 37.8605 55.6167 35.0813C52.7189 32.2635 51.2908 28.6516 51.2908 24.2427C51.2908 19.7983 52.7574 16.145 55.6552 13.2857C58.5945 10.3879 62.1678 8.95977 66.4167 8.95977C71.6582 8.95977 76.3011 11.2205 79.0034 14.7553L74.2745 19.7183C72.0108 17.2946 69.5485 16.065 66.8908 16.065C64.6271 16.065 62.7604 16.8176 61.2108 18.3672C59.7026 19.9168 58.95 21.8635 58.95 24.2042C58.95 26.4679 59.7026 28.3731 61.2108 29.9227C62.7604 31.4309 64.6271 32.1835 66.8493 32.1835C69.7471 32.1835 72.2893 30.9124 74.393 28.4116L79.3174 33.1375C77.9663 34.9242 76.1411 36.3938 73.8774 37.5435C71.6137 38.6961 69.113 39.2501 66.3722 39.2501H66.3752ZM87.6493 8.52125V38.8146H80.6626V8.52125H87.6493ZM94.2715 14.9509C91.9308 14.9509 90.2241 13.2442 90.2241 10.9035C90.2241 8.63977 92.0108 6.93311 94.2715 6.93311C96.5352 6.93311 98.2834 8.63977 98.2834 10.9035C98.2834 13.2442 96.5352 14.9538 94.2715 14.9538V14.9509ZM97.8063 16.8975V38.8146H90.7782V16.8975H97.8063ZM111.258 39.2916C107.803 39.2916 105.024 38.219 102.843 36.0738C100.698 33.9316 99.6256 31.1909 99.6256 27.8161C99.6256 24.4413 100.698 21.7035 102.882 19.5583C105.066 17.4131 107.883 16.3435 111.377 16.3435C115.943 16.3435 119.954 18.5657 121.818 22.7346L116.221 25.6738C115.11 23.8072 113.56 22.8531 111.537 22.8531C110.067 22.8531 108.876 23.3301 107.922 24.2842C107.469 24.7525 107.113 25.3055 106.875 25.9116C106.637 26.5177 106.52 27.1649 106.532 27.8161C106.532 30.7138 108.636 32.859 111.457 32.859C113.48 32.859 115.347 31.7479 116.141 30.0413L121.741 33.3746C119.833 37.0279 115.904 39.2916 111.258 39.2916ZM146.112 38.8146H137.771L131.297 30.1183L130.266 31.0724V38.8146H123.282V8.52125H130.269V23.2501L136.858 16.8975H145.394L135.987 25.7124L146.112 38.8146ZM146.58 27.419V9.47236H154.043V27.3005C154.043 30.5953 155.949 32.1835 158.689 32.1835C161.389 32.1835 163.294 30.5153 163.294 27.3005V9.47236H170.799V27.419C170.799 36.0738 164.802 39.3301 158.689 39.3301C152.615 39.3301 146.58 36.0738 146.58 27.419ZM187.386 16.3435C190.523 16.3435 193.066 17.4546 195.089 19.6768C197.113 21.8605 198.106 24.6013 198.106 27.8161C198.106 31.0338 197.074 33.7716 195.051 36.0353C193.024 38.2576 190.485 39.3716 187.427 39.3716C185.003 39.3716 182.9 38.5775 181.193 36.9894V47.8279H174.165V16.8975H181.074V18.9242C182.781 17.2146 184.885 16.3435 187.386 16.3435ZM190.959 27.8961C190.959 25.0368 188.897 22.8531 186.037 22.8531C183.178 22.8531 181.074 25.0368 181.074 27.8961C181.074 29.2857 181.549 30.4768 182.464 31.4694C183.415 32.462 184.606 32.939 186.037 32.939C187.466 32.939 188.657 32.462 189.569 31.4694C190.48 30.5042 190.979 29.2228 190.962 27.8961H190.959Z" fill="#111111"/>
</g>
<defs>
<linearGradient id="paint0_linear_246_113" x1="1.08936" y1="1120.47" x2="39.3205" y2="1120.47" gradientUnits="userSpaceOnUse">
<stop stop-color="#8930FD"/>
<stop offset="1" stop-color="#49CCF9"/>
</linearGradient>
<linearGradient id="paint1_linear_246_113" x1="1.92188" y1="1535.56" x2="38.553" y2="1535.56" gradientUnits="userSpaceOnUse">
<stop stop-color="#FF02F0"/>
<stop offset="1" stop-color="#FFC800"/>
</linearGradient>
<clipPath id="clip0_246_113">
<rect width="197.333" height="48" fill="white" transform="translate(0.970947)"/>
</clipPath>
</defs>
</svg>
