<svg width="186" height="48" viewBox="0 0 186 48" fill="none" xmlns="http://www.w3.org/2000/svg">
<g clip-path="url(#clip0_246_185)">
<path d="M45.1007 32.0276L46.2523 31.7905C47.2684 31.5196 47.5394 31.3841 47.5394 29.3518V13.3986C47.5394 11.3663 47.2346 11.197 46.2523 10.9599L45.1007 10.7228V9.77441H63.4588L63.7975 16.5147H62.7475C61.9007 14.6518 61.3588 13.6696 60.8507 12.9244C59.7668 11.3663 59.0555 11.2309 56.7184 11.2309C54.991 11.2309 54.1443 11.4341 53.6362 11.5696V20.2067H54.5507C56.9217 20.2067 57.4636 19.9357 57.8701 19.1905C58.3443 18.3438 58.6152 17.7002 58.9201 16.6163H59.9362V25.3551H58.9201C58.6152 24.3051 58.3443 23.6276 57.8701 22.6454C57.4636 21.7986 57.0233 21.6293 54.5507 21.6293H53.6362V28.1325C53.6362 31.147 53.7378 31.4857 57.0233 31.4857C59.733 31.4857 60.2749 31.147 61.3926 29.4873C62.0023 28.5728 62.6459 27.1502 63.5265 25.0164H64.6104L64.1362 32.976H45.1346L45.1007 32.0276ZM67.4555 19.326C66.6765 17.4293 66.3039 16.9551 65.4572 16.6841L64.8136 16.4809V15.6002H74.8733V16.4809L73.9588 16.718C73.2475 16.9212 72.9088 17.2599 72.9088 18.0728C72.9088 18.547 73.0781 19.1228 73.3491 19.868L76.1604 27.5905H76.3297L79.0394 19.868C79.3443 19.0551 79.4797 18.4793 79.4797 18.0051C79.4797 17.2599 79.141 16.8873 78.4297 16.718L77.5152 16.4809V15.6002H83.7136V16.4809L83.0701 16.6841C82.1894 16.9889 81.8168 17.497 81.0039 19.6986L75.8217 32.976H72.9765L67.4555 19.326ZM82.9346 24.2034C82.9346 18.3776 87.2362 15.1599 91.6733 15.1599C96.2797 15.1599 99.1588 17.4631 99.2604 23.526H88.1846C88.2862 29.0131 90.3523 30.5034 93.8072 30.5034C95.8733 30.5034 97.4652 29.8938 98.7184 29.2502V30.368C97.533 31.6551 94.9926 33.4164 91.6394 33.4164C85.8136 33.3486 82.9346 29.8938 82.9346 24.2034ZM88.1846 22.2389L93.9088 21.9341C93.9088 17.9034 93.3668 16.4131 91.3684 16.4131C89.6749 16.4131 88.3201 18.0389 88.1846 22.2389ZM108.067 17.7341C109.015 16.718 110.946 15.0583 113.181 15.0583C114.604 15.0583 115.789 16.2099 115.789 17.6664C115.789 19.1228 114.638 20.2744 113.181 20.2744C112.131 20.2744 111.183 19.6309 110.81 18.7164C110.607 18.3438 110.167 18.2422 109.862 18.2422C109.252 18.2422 108.541 18.6825 108.101 19.0889V29.9276C108.101 31.4857 108.236 31.6551 109.252 31.8244L110.37 32.0615V32.976H100.717V32.0615L101.597 31.8244C102.715 31.5196 102.851 31.3502 102.851 29.9276V19.5293C102.851 18.1067 102.681 18.0051 101.733 17.3615L100.615 16.6163V15.9389L107.66 15.126L108.033 15.397L107.965 17.7002L108.067 17.7341ZM116.806 32.0615L117.686 31.8244C118.804 31.5196 118.939 31.3502 118.939 29.9276V19.5293C118.939 18.1067 118.77 18.0051 117.822 17.3615L116.704 16.6163V15.9389L123.749 15.126L124.122 15.3631L124.054 17.497H124.189C125.951 16.2438 128.152 15.126 130.591 15.126C133.436 15.126 134.96 16.5825 134.96 19.597V29.8938C134.96 31.3502 135.096 31.5196 136.18 31.7905L137.06 32.0276V32.9422H127.746V32.0276L128.559 31.8244C129.575 31.5534 129.677 31.4518 129.677 29.8938V20.918C129.677 18.8857 128.931 18.2422 127.373 18.2422C126.188 18.2422 125.002 18.5131 124.257 18.6825V29.9276C124.257 31.5196 124.359 31.5873 125.375 31.8583L126.188 32.0615V32.976H116.873V32.0615H116.806ZM137.704 24.3051C137.704 17.9034 142.243 15.1599 146.747 15.1599C151.591 15.1599 155.825 18.0728 155.825 24.1357C155.825 30.5373 151.354 33.3486 146.747 33.3486C141.904 33.3486 137.704 30.4357 137.704 24.3051ZM150.202 24.4744C150.202 17.7341 148.915 16.447 146.612 16.447C144.512 16.447 143.259 17.9712 143.259 23.7293C143.259 30.5712 144.377 32.0615 146.815 32.0615C148.814 32.0615 150.202 30.876 150.202 24.4744ZM158.704 28.7422V17.5647H156.604V16.7518C159.212 15.7357 161.21 13.8051 162.159 11.1293H164.056V15.6002H168.493L168.052 17.5647H164.056V28.4034C164.056 30.0631 164.564 30.7405 166.223 30.7405C167.036 30.7405 168.018 30.5712 168.628 30.4357V31.3841C167.815 32.1293 166.156 33.3486 163.344 33.3486C160.33 33.3486 158.704 32.0276 158.704 28.7422ZM169.306 24.2034C169.306 18.3776 173.607 15.1599 178.044 15.1599C182.651 15.1599 185.53 17.4631 185.631 23.526H174.589C174.691 29.0131 176.757 30.5034 180.212 30.5034C182.278 30.5034 183.87 29.8938 185.123 29.2502V30.368C183.938 31.6551 181.397 33.4164 178.044 33.4164C172.185 33.3486 169.306 29.8938 169.306 24.2034ZM174.556 22.2389L180.28 21.9341C180.28 17.9034 179.738 16.4131 177.739 16.4131C176.046 16.4131 174.691 18.0389 174.556 22.2389Z" fill="black"/>
<path d="M11.1627 12.3822C11.1627 12.7886 11.1289 13.466 10.7224 13.9064C10.2821 14.3128 9.60467 14.3467 9.19822 14.3467H4.86274C3.60951 14.3467 2.86435 14.3467 2.35628 14.4144C2.08532 14.4483 1.74661 14.5838 1.57725 14.6515C1.50951 14.6854 1.50951 14.6515 1.54338 14.6176L11.4337 4.55796C11.4676 4.52409 11.5014 4.52409 11.4676 4.59183C11.3998 4.76119 11.2643 5.0999 11.2305 5.37087C11.1627 5.87893 11.1627 6.62409 11.1627 7.87732V12.3822ZM20.3756 42.7983C19.224 42.0531 18.6143 41.0709 18.3773 40.4612C18.1402 39.8854 18.0047 39.2418 18.0047 38.5983C18.0047 35.787 20.3079 33.4838 23.1531 33.4838C23.9998 33.4838 24.6773 34.1612 24.6773 35.008C24.6773 35.5838 24.3724 36.058 23.8982 36.3289C23.7289 36.4305 23.4918 36.4983 23.3224 36.5322C23.1531 36.566 22.5095 36.6338 22.2047 36.9047C21.866 37.1757 21.595 37.616 21.595 38.0902C21.595 38.5983 21.7982 39.0725 22.1369 39.4112C22.7466 40.0209 23.5595 40.3596 24.4402 40.3596C26.7434 40.3596 28.6063 38.4967 28.6063 36.1934C28.6063 34.1273 27.2176 32.2983 25.3885 31.4854C25.1176 31.3499 24.6773 31.2483 24.2708 31.1467C23.7627 31.0451 23.2885 30.9773 23.2547 30.9773C21.8321 30.808 18.2756 29.6902 18.0385 26.5402C18.0385 26.5402 16.9885 31.2822 14.8885 32.5693C14.6853 32.6709 14.4143 32.7725 14.1095 32.8402C13.8047 32.908 13.466 32.9418 13.3643 32.9418C9.94338 33.1451 6.31919 32.0612 3.81274 29.487C3.81274 29.487 2.11919 28.0983 1.23854 24.2031C1.03532 23.2547 0.628864 21.5612 0.391767 19.9693C0.290154 19.3934 0.256283 18.9531 0.222412 18.5467C0.222412 16.887 1.23854 15.7693 2.52564 15.5999C2.55951 15.5999 2.66112 15.5999 2.72886 15.5999C3.5079 15.5999 9.43532 15.5999 9.43532 15.5999C10.6208 15.5999 11.2982 15.2951 11.7385 14.8886C12.3143 14.3467 12.4498 13.5676 12.4498 12.6531C12.4498 12.6531 12.4498 6.48861 12.4498 5.70958C12.4498 5.67571 12.4498 5.54022 12.4498 5.50635C12.6192 4.25313 13.7369 3.20312 15.3966 3.20312C15.3966 3.20312 15.9047 3.20312 16.2095 3.20312C16.5482 3.20312 16.9547 3.237 17.3273 3.27087C17.5982 3.30474 17.8353 3.37248 18.2418 3.47409C20.3079 3.98216 20.7482 6.08216 20.7482 6.08216C20.7482 6.08216 24.6434 6.75958 26.6079 7.09829C28.4708 7.437 33.0773 7.74183 33.9579 12.3822C36.024 23.4241 34.7708 34.1273 34.6692 34.1273C33.2127 44.5596 24.5418 44.0515 24.5418 44.0515C22.6789 44.0515 21.2902 43.4418 20.3756 42.7983ZM28.166 20.6128C27.0482 20.5112 26.0998 20.9515 25.7611 21.7983C25.6934 21.9676 25.6256 22.1709 25.6595 22.2725C25.6934 22.3741 25.7611 22.408 25.8289 22.4418C26.2353 22.6451 26.9127 22.7467 27.895 22.8483C28.8773 22.9499 29.5547 23.0176 29.995 22.9499C30.0627 22.9499 30.1305 22.916 30.1982 22.8144C30.266 22.7128 30.2321 22.5096 30.2321 22.3402C30.0966 21.3918 29.2837 20.7483 28.166 20.6128Z" fill="#00A82D"/>
</g>
<defs>
<clipPath id="clip0_246_185">
<rect width="185.85" height="48" fill="white" transform="translate(0.12085)"/>
</clipPath>
</defs>
</svg>
