<svg width="192" height="48" viewBox="0 0 192 48" fill="none" xmlns="http://www.w3.org/2000/svg">
<path d="M27.7306 36.7338C28.5264 36.7338 29.1979 37.3805 29.1979 38.2012C29.1979 38.997 28.5513 39.6685 27.7306 39.6685C26.9347 39.6685 26.2632 39.0219 26.2632 38.2012C26.2383 37.4053 26.885 36.7587 27.6808 36.7338C27.7057 36.7338 27.7057 36.7338 27.7306 36.7338ZM51.5565 27.4571C50.7606 27.4571 50.114 26.8354 50.0891 26.0395C50.0891 26.0147 50.0891 26.0147 50.0891 25.9898C50.1389 25.2188 50.7606 24.597 51.5565 24.5224C52.3523 24.5224 52.999 25.1442 52.999 25.94C52.999 25.9649 52.999 25.9649 52.999 25.9898C52.9741 26.7856 52.3523 27.4074 51.5565 27.4571ZM51.5565 21.2644C48.9699 21.3141 46.8808 23.4033 46.8311 25.9898C46.8311 26.5369 46.8311 27.0841 47.0052 27.4571L31.5357 35.6395C30.0684 33.5255 27.1337 33.0033 25.0197 34.4706C24.3979 34.9183 23.8756 35.4903 23.5275 36.1867L9.69948 28.8996C8.25699 28.1784 7.16269 25.6167 7.33678 23.4281C7.33678 22.3338 7.88394 21.4385 8.43109 21.0654C8.82901 20.8913 9.30155 20.8913 9.69948 21.0654H9.87357C13.5047 23.0551 25.7161 29.2478 26.0642 29.6209C26.7855 29.9939 27.3326 30.168 28.601 29.4468L53.5461 16.539C53.9689 16.34 54.2674 15.9172 54.2674 15.4447C54.2674 14.7235 53.5461 14.3504 53.5461 14.3504C52.0788 13.6292 49.915 12.709 47.9005 11.6147C43.3492 9.42605 38.2508 7.06336 35.8881 5.96906C34.7192 5.27268 33.2518 5.27268 32.058 5.96906L31.5109 6.14315C21.314 11.2416 7.68497 17.9815 6.93886 18.3297C5.4715 19.2499 4.75026 20.8665 4.57616 22.881C4.40207 26.1639 6.01865 29.6209 8.58031 30.8893L23.3285 38.5245C23.6518 40.7877 25.5917 42.5038 27.8798 42.5286C30.4166 42.5286 32.6052 40.539 32.6052 37.9774L48.7959 29.2478C49.7161 29.9691 50.6114 30.168 51.7057 30.168C54.2922 30.1183 56.3813 28.0292 56.4311 25.4426C56.1078 23.254 54.1181 21.2644 51.5565 21.2644Z" fill="#3681FC"/>
<path d="M87.0466 33.625C85.9772 34.6944 84.6591 35.5152 83.2166 35.9877C81.4508 36.5846 79.6104 36.883 77.7451 36.883C74.6611 36.883 72.0995 35.9877 70.2839 33.9732C68.4684 32.1577 67.3741 29.4219 67.3741 26.139V24.1494C67.3741 21.7867 67.7472 19.7722 68.6425 18.1556C69.5378 16.34 70.6321 15.0716 72.0995 14.1514C73.6912 13.1815 75.5067 12.6841 77.372 12.6841C80.2819 12.6841 82.6446 13.4053 84.286 14.6737C85.9275 15.9421 86.8228 17.9566 87.1959 20.6675H81.7492C81.5751 19.3991 81.2021 18.4789 80.4808 17.9318C79.685 17.3349 78.7399 17.0115 77.7451 17.0115C76.2777 17.0115 75.2083 17.5587 74.4622 18.8271C73.7161 20.0955 73.3679 21.7369 73.1938 23.9255V25.3929C73.1938 27.7556 73.5668 29.5711 74.4622 30.6654C75.1834 31.7597 76.4518 32.481 78.2922 32.481C79.7596 32.481 80.829 32.1079 81.5751 31.5608V27.9297H77.5959V24.0996H87.2456V33.5504L87.0466 33.625Z" fill="black"/>
<path d="M90.3296 36.5596H95.8011V19.1005H90.3296V36.5596ZM90.1306 14.5244C90.1555 13.7534 90.4788 13.057 91.0508 12.5347C91.5979 11.9876 92.3192 11.8135 93.2394 11.8135C94.1596 11.8135 94.8808 11.9876 95.428 12.5347C95.9751 13.0819 96.3482 13.629 96.3482 14.5244C96.3233 15.2953 96 15.9917 95.428 16.514C94.8808 17.0611 94.1596 17.2352 93.2394 17.2352C92.3192 17.2352 91.5979 17.0611 91.0508 16.514C90.3296 15.9917 90.1306 15.4446 90.1306 14.5244Z" fill="black"/>
<path d="M105.6 14.6982V19.0754H108.51V22.9055H105.6V30.9138C105.6 31.4112 105.724 31.9335 105.973 32.3811C106.147 32.5552 106.694 32.7542 107.44 32.7542C107.988 32.7542 108.361 32.7542 108.709 32.5801V36.4102C107.714 36.7832 106.669 36.9573 105.625 36.9573C103.809 36.9573 102.342 36.5843 101.447 35.6889C100.551 34.7936 100.178 33.5003 100.178 31.6848V22.9552H97.9896V19.1252H100.178V14.748H105.6V14.6982Z" fill="black"/>
<path d="M116.518 26.5369V32.1825H120.149C121.244 32.1825 121.965 32.0084 122.512 31.4613C123.059 30.9141 123.432 30.367 123.432 29.4716C123.432 27.482 122.512 26.5618 120.522 26.5618L116.518 26.5369ZM116.518 22.9058H119.428C120.696 22.9058 121.617 22.7317 122.164 22.1846C122.711 21.8115 122.885 21.0903 122.885 20.195C122.885 19.3742 122.562 18.5784 121.965 18.0064C121.144 17.5089 120.199 17.2354 119.229 17.2851H116.493L116.518 22.9058ZM110.897 36.5348V13.0571H119.453C122.537 13.0571 124.725 13.6043 126.367 14.6986C128.008 15.7929 128.73 17.4343 128.73 19.6229C128.73 20.7172 128.406 21.7867 127.809 22.7069C127.262 23.6271 126.367 24.1742 125.273 24.5224C126.541 24.8955 127.461 25.4426 128.182 26.338C128.904 27.2333 129.103 28.3276 129.103 29.6209C129.103 31.9836 128.381 33.625 126.914 34.8934C125.472 35.9877 123.283 36.7089 120.373 36.7089L110.897 36.5348Z" fill="black"/>
<path d="M136.738 28.0042C136.738 29.6457 136.912 30.74 137.459 31.6353C137.956 32.3317 138.777 32.7545 139.648 32.7296C141.637 32.7296 142.558 31.2623 142.558 28.1783V27.6312C142.558 24.5472 141.463 22.9058 139.474 22.9058C137.658 22.9058 136.738 24.1742 136.564 26.9099L136.738 28.0042ZM131.266 27.6312C131.241 25.9897 131.614 24.3731 132.361 22.9058C133.082 21.6374 134.002 20.5431 135.27 19.8218C136.539 19.1006 138.006 18.7275 139.822 18.7275C142.359 18.7275 144.547 19.4488 146.014 21.0902C147.482 22.7317 148.203 24.9203 148.203 27.6312V28.0042C148.203 30.74 147.482 32.9286 145.84 34.5452C144.373 36.1866 142.209 36.9078 139.648 36.9078C137.086 36.9078 135.096 36.1866 133.629 34.7193C132.162 33.2519 131.266 31.2623 131.266 28.7255V27.6312Z" fill="black"/>
<path d="M155.465 28.0042C155.465 29.6457 155.639 30.74 156.187 31.6353C156.684 32.3317 157.505 32.7545 158.375 32.7296C160.365 32.7296 161.285 31.2623 161.285 28.1783V27.6312C161.285 24.5472 160.191 22.9058 158.201 22.9058C156.385 22.9058 155.465 24.1742 155.291 26.9099L155.465 28.0042ZM149.994 27.6312C149.969 25.9897 150.342 24.3731 151.088 22.9058C151.809 21.6374 152.73 20.5431 153.998 19.8218C155.266 19.1006 156.734 18.7275 158.549 18.7275C161.086 18.7275 163.275 19.4488 164.742 21.0902C166.209 22.7317 166.931 24.9203 166.931 27.6312V28.0042C166.931 30.74 166.209 32.9286 164.568 34.5452C163.125 36.1866 160.937 36.9078 158.375 36.9078C155.813 36.9078 153.824 36.1866 152.381 34.7193C150.939 33.2519 150.019 31.2623 150.019 28.7255V27.6312H149.994Z" fill="black"/>
<path d="M176.406 30.1679L174.765 31.6352V36.5596H169.293V11.8135H174.765V24.9202L175.312 24.199L179.49 19.1005H186.031L179.838 26.3627L186.379 36.5596H180.211L176.406 30.1679Z" fill="black"/>
</svg>
