<svg width="160" height="48" viewBox="0 0 160 48" fill="none" xmlns="http://www.w3.org/2000/svg">
<g clip-path="url(#clip0_246_220)">
<path d="M58.9305 9.01172H64.9356L75.1465 27.5276L85.3572 9.01172H91.2323V39.4368H86.3329V16.1183L77.3794 32.2653H72.7834L63.8299 16.1183V39.4368H58.9305V9.01172Z" fill="#1C2B33"/>
<path d="M107.036 39.9805C104.767 39.9805 102.772 39.477 101.052 38.4701C99.3325 37.4631 97.992 36.0687 97.031 34.2866C96.0697 32.5045 95.5892 30.4617 95.5894 28.1582C95.5894 25.8257 96.0591 23.7611 96.9985 21.9645C97.9379 20.1682 99.2423 18.7628 100.912 17.7483C102.581 16.7344 104.5 16.2273 106.667 16.2271C108.821 16.2271 110.674 16.7377 112.228 17.7591C113.781 18.7807 114.977 20.2115 115.816 22.0513C116.654 23.8914 117.073 26.0502 117.073 28.5276V29.8748H100.445C100.749 31.7296 101.497 33.1893 102.689 34.2539C103.882 35.3188 105.388 35.8512 107.209 35.8511C108.669 35.8511 109.926 35.6338 110.981 35.1992C112.036 34.7646 113.026 34.1054 113.952 33.2217L116.553 36.4162C113.966 38.7926 110.793 39.9807 107.036 39.9805ZM110.613 21.9317C109.587 20.8815 108.243 20.3563 106.581 20.3561C104.962 20.3561 103.607 20.8922 102.516 21.9645C101.424 23.0366 100.734 24.4782 100.445 26.2892H112.369C112.224 24.4346 111.639 22.9821 110.613 21.9317Z" fill="#1C2B33"/>
<path d="M123.014 20.7911H118.505V16.7706H123.014V10.1206H127.74V16.7706H134.59V20.7911H127.74V30.9834C127.74 32.6784 128.029 33.8881 128.607 34.6126C129.185 35.3373 130.175 35.6994 131.577 35.6992C132.198 35.6992 132.726 35.6738 133.16 35.6231C133.593 35.5726 134.07 35.5038 134.59 35.4166V39.3936C133.997 39.5657 133.392 39.6965 132.78 39.7849C132.08 39.8882 131.374 39.939 130.666 39.937C125.564 39.937 123.014 37.1408 123.014 31.5485V20.7911Z" fill="#1C2B33"/>
<path d="M159.218 39.437H154.579V36.2641C153.755 37.4523 152.707 38.3687 151.436 39.0132C150.164 39.6577 148.718 39.9801 147.1 39.9805C145.105 39.9805 143.339 39.4697 141.799 38.4481C140.26 37.4268 139.05 36.0215 138.168 34.2323C137.286 32.4429 136.846 30.3965 136.846 28.0929C136.846 25.7749 137.294 23.7247 138.19 21.9425C139.086 20.1607 140.325 18.7626 141.908 17.7483C143.49 16.7344 145.308 16.2273 147.36 16.2271C148.906 16.2271 150.294 16.5277 151.522 17.1291C152.734 17.7167 153.784 18.5935 154.579 19.6825V16.7705H159.218V39.437ZM154.492 24.7027C153.986 23.4132 153.188 22.3954 152.097 21.6491C151.005 20.9031 149.744 20.5301 148.314 20.5301C146.29 20.5301 144.679 21.211 143.479 22.5728C142.28 23.9347 141.68 25.7747 141.68 28.0929C141.68 30.4257 142.258 32.2729 143.414 33.6347C144.57 34.9966 146.139 35.6775 148.119 35.6774C149.578 35.6774 150.879 35.3007 152.021 34.5472C153.162 33.7942 153.986 32.7801 154.492 31.5048L154.492 24.7027Z" fill="#1C2B33"/>
<path d="M5.9704 29.1032C5.9704 30.9428 6.3732 32.3552 6.89965 33.2096C7.5899 34.3288 8.61941 34.8029 9.66899 34.8029C11.0227 34.8029 12.2612 34.4662 14.6478 31.1573C16.5598 28.5051 18.8126 24.7824 20.3285 22.4486L22.8956 18.4947C24.6789 15.7487 26.743 12.6961 29.1095 10.627C31.0416 8.93823 33.1257 8 35.2231 8C38.7446 8 42.0988 10.0456 44.666 13.8823C47.4754 18.0842 48.8392 23.3768 48.8392 28.8385C48.8392 32.0855 48.2008 34.4712 47.1144 36.356C46.0648 38.1788 44.0192 40 40.578 40V34.8029C43.5245 34.8029 44.2598 32.0888 44.2598 28.9826C44.2598 24.5562 43.2303 19.644 40.9624 16.134C39.3529 13.6444 37.2671 12.1231 34.9724 12.1231C32.4906 12.1231 30.4934 13.9996 28.2488 17.3453C27.0555 19.1229 25.8304 21.2892 24.455 23.7336L22.9408 26.4226C19.899 31.8291 19.1285 33.0605 17.6077 35.0928C14.9419 38.6513 12.6656 40 9.66899 40C6.11413 40 3.86624 38.457 2.47405 36.1315C1.33757 34.2367 0.779358 31.7504 0.779358 28.9173L5.9704 29.1032Z" fill="#0081FB"/>
<path d="M4.87238 14.2492C7.2523 10.5717 10.6868 8 14.6261 8C16.9074 8 19.1753 8.67686 21.5436 10.6153C24.1341 12.7347 26.8951 16.2245 30.3396 21.9761L31.5747 24.0402C34.5563 29.0195 36.2527 31.5812 37.2454 32.7891C38.5223 34.3405 39.4164 34.8029 40.578 34.8029C43.5245 34.8029 44.2598 32.0888 44.2598 28.9826L48.8392 28.8385C48.8392 32.0855 48.2008 34.4712 47.1144 36.356C46.0649 38.1788 44.0192 40 40.578 40C38.4387 40 36.5435 39.5342 34.4477 37.5523C32.8365 36.031 30.953 33.3286 29.504 30.8993L25.1937 23.6817C23.031 20.0595 21.0472 17.3587 19.899 16.1357C18.6639 14.8205 17.0762 13.2322 14.5425 13.2322C12.4918 13.2322 10.7503 14.6748 9.29296 16.8813L4.87238 14.2492Z" fill="url(#paint0_linear_246_220)"/>
<path d="M14.5425 13.2322C12.4918 13.2322 10.7503 14.6748 9.29295 16.8813C7.23223 19.9992 5.9704 24.6434 5.9704 29.1032C5.9704 30.9428 6.3732 32.3552 6.89965 33.2096L2.47405 36.1315C1.33757 34.2367 0.779358 31.7504 0.779358 28.9173C0.779358 23.7654 2.18993 18.3958 4.87236 14.2492C7.25229 10.5717 10.6868 8 14.626 8L14.5425 13.2322Z" fill="url(#paint1_linear_246_220)"/>
</g>
<defs>
<linearGradient id="paint0_linear_246_220" x1="10.9743" y1="27.6021" x2="44.0664" y2="29.2693" gradientUnits="userSpaceOnUse">
<stop stop-color="#0064E1"/>
<stop offset="0.4" stop-color="#0064E1"/>
<stop offset="0.83" stop-color="#0073EE"/>
<stop offset="1" stop-color="#0082FB"/>
</linearGradient>
<linearGradient id="paint1_linear_246_220" x1="8.30019" y1="31.288" x2="8.30019" y2="19.0576" gradientUnits="userSpaceOnUse">
<stop stop-color="#0082FB"/>
<stop offset="1" stop-color="#0064E0"/>
</linearGradient>
<clipPath id="clip0_246_220">
<rect width="158.439" height="48" fill="white" transform="translate(0.779358)"/>
</clipPath>
</defs>
</svg>
