<svg width="265" height="48" viewBox="0 0 265 48" fill="none" xmlns="http://www.w3.org/2000/svg">
<g clip-path="url(#clip0_246_200)">
<path d="M5.86605 37.9393C4.89443 37.9415 3.93966 37.6856 3.09927 37.198C2.25889 36.7103 1.56302 36.0083 1.08275 35.1637C0.609831 34.325 0.373974 33.3735 0.400444 32.411C0.426913 31.4486 0.714711 30.5114 1.23301 29.7L11.0834 14.2315C11.5876 13.4002 12.3034 12.7175 13.1577 12.2533C14.012 11.7892 14.9742 11.5601 15.9461 11.5894C16.9171 11.6127 17.8646 11.8936 18.6915 12.4033C19.5184 12.913 20.195 13.6332 20.6521 14.4903C21.5704 16.2266 21.4556 18.3157 20.3558 19.9456L10.5116 35.4141C10.0124 36.192 9.3249 36.8313 8.51282 37.2727C7.70073 37.7142 6.79035 37.9435 5.86605 37.9393Z" fill="#F62B54"/>
<path d="M22.7622 37.9391C20.7754 37.9391 18.9473 36.8769 17.9873 35.1698C17.5154 34.3334 17.2801 33.3843 17.3066 32.4244C17.333 31.4644 17.6203 30.5298 18.1375 29.7207L27.9692 14.2877C28.4659 13.4446 29.1792 12.7498 30.0349 12.2754C30.8907 11.8009 31.8578 11.564 32.836 11.5892C34.8395 11.6331 36.6551 12.7538 37.5734 14.5068C38.4854 16.2598 38.3518 18.3614 37.2186 19.9871L27.389 35.4202C26.8913 36.1948 26.2066 36.8316 25.398 37.2718C24.5894 37.712 23.6829 37.9415 22.7622 37.9391Z" fill="#FFCC00"/>
<path d="M39.2805 38.0684C42.0813 38.0684 44.3518 35.8456 44.3518 33.1035C44.3518 30.3615 42.0813 28.1387 39.2805 28.1387C36.4797 28.1387 34.2092 30.3615 34.2092 33.1035C34.2092 35.8456 36.4797 38.0684 39.2805 38.0684Z" fill="#00CA72"/>
<path d="M259.592 28.4264C261.124 28.4264 262.04 29.5158 262.04 31.3001V37.4149H264.121V31.1603C264.121 28.1259 262.691 26.3666 260.003 26.3666C258.952 26.3666 257.282 26.6546 256.286 28.5892C256.055 28.0186 255.674 27.5213 255.182 27.1501C254.691 26.779 254.108 26.5479 253.496 26.4814C253.111 26.4108 252.718 26.3877 252.328 26.4125C251.472 26.4814 249.948 27.0135 249.379 28.2198V26.5982H247.296V37.4149H249.379V31.5777C249.379 29.3071 250.865 28.4264 252.353 28.4264C253.747 28.4264 254.663 29.4928 254.663 31.2772V37.4149H256.733V31.5777C256.733 29.7704 257.818 28.4055 259.592 28.4264ZM239.651 35.6076C240.603 35.6285 241.521 35.2487 242.187 34.56C242.855 33.8713 243.21 32.9342 243.174 31.9721C243.174 29.7934 241.571 28.4264 239.651 28.4264C237.729 28.4264 236.129 29.7934 236.129 31.9721C236.091 32.9321 236.446 33.8671 237.109 34.5537C237.773 35.2424 238.687 35.6243 239.635 35.6076H239.651ZM239.651 37.6361C236.609 37.6361 234.069 35.3885 234.069 31.9596C234.069 28.5308 236.609 26.3541 239.651 26.3541C242.694 26.3541 245.255 28.5308 245.255 31.9596C245.255 35.3885 242.68 37.6466 239.637 37.6466L239.651 37.6361ZM223.352 31.9596L223.331 31.9721C223.331 28.5433 225.938 26.3666 229.002 26.3541C229.771 26.3392 230.535 26.486 231.245 26.7851C231.954 27.0842 232.593 27.5289 233.119 28.0904L231.541 29.4344C231.206 29.1053 230.809 28.8459 230.373 28.6711C229.937 28.4963 229.471 28.4096 229.002 28.416C227.082 28.416 225.412 29.7829 225.412 31.9596C225.412 33.4309 226.286 34.7561 227.628 35.3196C228.97 35.8831 230.515 35.5701 231.541 34.5308L233.142 35.8748C232.614 36.442 231.972 36.892 231.259 37.1954C230.546 37.4988 229.777 37.649 229.002 37.6361C225.961 37.6361 223.352 35.3885 223.352 31.9596ZM216.689 35.3384C216.686 35.1493 216.721 34.9616 216.792 34.7861C216.862 34.6105 216.966 34.4505 217.099 34.3153C217.231 34.18 217.388 34.0721 217.562 33.9977C217.736 33.9233 217.923 33.8839 218.112 33.8817C218.301 33.8839 218.488 33.9233 218.662 33.9977C218.836 34.0721 218.993 34.18 219.125 34.3153C219.257 34.4505 219.362 34.6105 219.432 34.7861C219.502 34.9616 219.537 35.1493 219.535 35.3384C219.517 35.7046 219.359 36.05 219.095 36.304C218.83 36.558 218.479 36.7016 218.112 36.7054C217.745 36.7016 217.394 36.558 217.129 36.304C216.865 36.05 216.707 35.7046 216.689 35.3384Z" fill="#333333"/>
<path fill-rule="evenodd" clip-rule="evenodd" d="M222.382 12.8473H214.971L209.777 26.2393L204.609 12.8473H197.199L206.208 34.009L200.604 48H207.961L222.382 12.8473ZM177.312 24.6177C177.312 27.9986 180.267 30.2233 183.17 30.2233C186.023 30.2233 188.826 28.153 188.826 24.6157C188.826 21.0783 186.023 19.0059 183.17 19.0059C180.267 19.0059 177.312 21.2348 177.312 24.6177ZM188.826 36.4341V33.7565C187.323 36.0313 183.817 36.8911 182.018 36.8911C176.062 36.8911 170.104 32.1955 170.104 24.6157C170.104 17.0379 176.06 12.3423 182.018 12.3423C183.519 12.3423 187.025 12.8431 188.826 15.4727V12.8557H195.733V36.4383L188.826 36.4341ZM168.138 36.4341H161.23V33.504C160.076 35.6744 157.277 36.9391 154.372 36.9391C148.364 36.9391 143.057 32.1412 143.057 24.7117C143.057 17.1423 148.364 12.3381 154.372 12.3381C157.273 12.3381 160.08 13.5485 161.23 15.721V0H168.138V36.4341ZM161.08 24.5635C161.08 21.0282 158.527 18.9558 155.674 18.9558C152.719 18.9558 150.265 21.1784 150.265 24.5635C150.265 28.057 152.719 30.2692 155.672 30.2692C158.579 30.2734 161.08 27.9485 161.08 24.5635ZM125.977 23.9541C125.977 20.3687 127.83 19.1562 130.282 19.1562C132.634 19.1562 134.337 20.7214 134.337 23.8518V36.4299H141.295V22.3388C141.295 15.623 137.989 12.3381 132.732 12.3381C129.98 12.3381 127.227 13.9033 125.975 16.2783V12.8473H119.021V36.4299H125.977V23.9541ZM104.892 36.8348C98.2851 36.8348 92.7735 31.9868 92.7735 24.5614C92.7735 17.1318 98.2789 12.3318 104.892 12.3318C111.506 12.3318 117.059 17.1318 117.059 24.5614C117.059 31.991 111.5 36.8348 104.892 36.8348ZM104.892 29.9687C107.793 29.9687 110.2 27.8442 110.2 24.5635C110.2 21.3809 107.795 19.2083 104.892 19.2083C104.193 19.1974 103.5 19.3289 102.853 19.5947C102.206 19.8606 101.621 20.2553 101.132 20.7548C100.64 21.2569 100.254 21.8529 99.9968 22.5072C99.7397 23.1615 99.6168 23.8607 99.6354 24.5635C99.6375 27.8483 102.04 29.9687 104.892 29.9687ZM80.2997 19.1583C82.3512 19.1583 84.1543 20.7757 84.1543 23.8539V36.4341H91.0622V23.04C91.0622 15.9193 87.5999 12.3339 82.0507 12.3339C80.402 12.3339 77.2966 12.8348 75.0427 16.5245C73.7404 13.7969 71.2382 12.3819 67.5401 12.3819C66.2561 12.3754 64.9975 12.7388 63.9146 13.4286C62.8317 14.1185 61.9704 15.1056 61.4336 16.272V12.8494H54.4716V36.432H61.4274V23.9541C61.4274 20.3687 63.3808 19.1562 65.4823 19.1562C67.4858 19.1562 69.2848 20.7214 69.337 23.7016V36.432H76.2949V23.9541C76.2949 20.5252 78.098 19.1583 80.2997 19.1583Z" fill="#333333"/>
</g>
<defs>
<clipPath id="clip0_246_200">
<rect width="263.722" height="48" fill="white" transform="translate(0.398682)"/>
</clipPath>
</defs>
</svg>
