<svg width="28" height="28" viewBox="0 0 28 28" fill="none" xmlns="http://www.w3.org/2000/svg">
<path fill-rule="evenodd" clip-rule="evenodd" d="M25.509 6.02637C27.0796 8.2892 28 11.0369 28 13.9999C28 16.9629 27.0796 19.7109 25.509 21.9734L21.8826 18.347C22.5948 17.0584 23.0001 15.5763 23.0001 13.9999C23.0001 12.4235 22.5948 10.9417 21.8826 9.65312L25.509 6.02637Z" fill="#99CFFF"/>
<path fill-rule="evenodd" clip-rule="evenodd" d="M21.9735 2.49099L18.3468 6.11746C17.0582 5.40527 15.5764 4.9999 14 4.9999C9.0295 4.9999 4.9999 9.0295 4.9999 14C4.9999 18.9705 9.0295 23.0001 14 23.0001C15.5764 23.0001 17.0582 22.5948 18.3468 21.8826L21.9735 25.509C19.7107 27.0795 16.963 28 14 28C6.26808 28 0 21.7319 0 14C0 6.26807 6.26808 0 14 0C16.963 0 19.7107 0.920474 21.9735 2.49099Z" fill="#1F87FF"/>
</svg>
