<svg width="170" height="48" viewBox="0 0 170 48" fill="none" xmlns="http://www.w3.org/2000/svg">
<g clip-path="url(#clip0_246_208)">
<path d="M36.7108 9.0912C36.6781 8.85277 36.4698 8.7205 36.2969 8.7061C36.1254 8.6917 32.7643 8.64063 32.7643 8.64063C32.7643 8.64063 29.9533 5.91089 29.6756 5.63319C29.398 5.35551 28.8557 5.43934 28.6448 5.50221C28.6422 5.50352 28.1169 5.66594 27.2328 5.9397C27.0848 5.4603 26.8673 4.87086 26.5569 4.27881C25.5562 2.36904 24.0904 1.35915 22.3195 1.35654C22.3169 1.35654 22.3155 1.35654 22.3129 1.35654C22.1898 1.35654 22.068 1.36832 21.9449 1.3788C21.8925 1.31592 21.8401 1.25437 21.7851 1.19411C21.0136 0.368904 20.0247 -0.0332208 18.8392 0.00214514C16.5522 0.0676377 14.2744 1.71936 12.4275 4.65343C11.1282 6.71775 10.1392 9.31129 9.85891 11.3193C7.23264 12.1327 5.39622 12.7011 5.35562 12.7143C4.03005 13.1308 3.98814 13.1714 3.81524 14.421C3.68687 15.3654 0.218384 42.1859 0.218384 42.1859L29.2853 47.2131L41.8834 44.0812C41.8834 44.0812 36.7436 9.32963 36.7108 9.0912ZM25.7775 6.39029C25.1082 6.59725 24.3471 6.83302 23.5219 7.08844C23.5049 5.93053 23.3674 4.31942 22.8277 2.92704C24.5633 3.25582 25.4173 5.21928 25.7775 6.39029ZM22.0012 7.55998C20.4778 8.0315 18.8156 8.54628 17.1482 9.0624C17.6171 7.26658 18.5065 5.47863 19.599 4.30632C20.005 3.87014 20.5735 3.38418 21.2467 3.10649C21.8794 4.42682 22.0169 6.29598 22.0012 7.55998ZM18.885 1.52419C19.4221 1.5124 19.874 1.63029 20.2604 1.8844C19.6422 2.20532 19.0448 2.66638 18.4843 3.2676C17.0316 4.82633 15.9182 7.24562 15.4742 9.57978C14.0897 10.0081 12.7353 10.4286 11.4883 10.8137C12.2756 7.13953 15.355 1.62636 18.885 1.52419Z" fill="#95BF47"/>
<path d="M36.2981 8.70743C36.1266 8.69303 32.7655 8.64196 32.7655 8.64196C32.7655 8.64196 29.9546 5.91221 29.6769 5.63453C29.5734 5.53104 29.4333 5.47734 29.2865 5.45508L29.2878 47.2119L41.8847 44.0813C41.8847 44.0813 36.7448 9.33096 36.7121 9.09253C36.6793 8.85411 36.4697 8.72183 36.2981 8.70743Z" fill="#5E8E3E"/>
<path d="M22.3037 15.1848L20.8406 20.6586C20.8406 20.6586 19.2086 19.916 17.2739 20.0378C14.4367 20.2173 14.4066 22.0065 14.4355 22.4558C14.59 24.9039 21.0305 25.4383 21.3921 31.1728C21.6763 35.684 18.9989 38.77 15.1415 39.0136C10.5111 39.3057 7.96216 36.5746 7.96216 36.5746L8.94325 32.4015C8.94325 32.4015 11.5092 34.3374 13.5631 34.2078C14.9044 34.1226 15.3838 33.0315 15.3353 32.26C15.1336 29.0666 9.88893 29.2552 9.55758 24.0079C9.27855 19.5925 12.1786 15.118 18.5772 14.7146C21.0423 14.5561 22.3037 15.1848 22.3037 15.1848Z" fill="white"/>
<path d="M58.4733 26.647C57.0247 25.861 56.2802 25.1984 56.2802 24.2877C56.2802 23.1289 57.3143 22.3844 58.9293 22.3844C60.8091 22.3844 62.4876 23.1704 62.4876 23.1704L63.8115 19.1144C63.8115 19.1144 62.5942 18.1621 59.0111 18.1621C54.0249 18.1621 50.5691 21.0176 50.5691 25.0321C50.5691 27.3082 52.1827 29.0465 54.3354 30.2872C56.0737 31.2798 56.6947 31.984 56.6947 33.0181C56.6947 34.0939 55.8256 34.963 54.212 34.963C51.8072 34.963 49.5362 33.721 49.5362 33.721L48.1293 37.777C48.1293 37.777 50.2274 39.184 53.7572 39.184C58.889 39.184 62.5722 36.6597 62.5722 32.1074C62.5708 29.6676 60.7091 27.9292 58.4733 26.647Z" fill="black"/>
<path d="M78.9171 18.1218C76.3926 18.1218 74.4062 19.3222 72.8758 21.1424L72.7926 21.1007L74.9856 9.63818H69.2745L63.7296 38.8123H69.4408L71.3441 28.8399C72.0885 25.0736 74.0333 22.7572 75.8548 22.7572C77.137 22.7572 77.6347 23.6263 77.6347 24.8683C77.6347 25.6544 77.5515 26.6067 77.3865 27.3927L75.2351 38.8137H80.9465L83.1805 27.0198C83.4291 25.7778 83.5952 24.289 83.5952 23.295C83.5928 20.0666 81.8963 18.1218 78.9171 18.1218Z" fill="black"/>
<path d="M96.504 18.1216C89.6337 18.1216 85.0831 24.3291 85.0831 31.2394C85.0831 35.6669 87.8136 39.2254 92.9457 39.2254C99.6909 39.2254 104.243 33.1842 104.243 26.1076C104.243 22.0113 101.842 18.1216 96.504 18.1216ZM93.6901 34.8406C91.7449 34.8406 90.9171 33.1855 90.9171 31.1159C90.9171 27.8472 92.6144 22.5089 95.7179 22.5089C97.7457 22.5089 98.4067 24.2472 98.4067 25.9439C98.4067 29.4608 96.7117 34.8406 93.6901 34.8406Z" fill="black"/>
<path d="M118.851 18.1216C114.996 18.1216 112.808 21.515 112.808 21.515H112.726L113.058 18.4529H108.009C107.761 20.5224 107.305 23.6664 106.851 26.0258L102.878 46.9229H108.589L110.16 38.4809H110.286C110.286 38.4809 111.457 39.2254 113.638 39.2254C120.341 39.2254 124.727 32.3567 124.727 25.4035C124.727 21.5567 123.03 18.1216 118.851 18.1216ZM113.388 34.9224C111.906 34.9224 111.028 34.0949 111.028 34.0949L111.981 28.7566C112.643 25.1982 114.505 22.8389 116.492 22.8389C118.23 22.8389 118.767 24.4525 118.767 25.9842C118.767 29.6673 116.574 34.9224 113.388 34.9224Z" fill="black"/>
<path d="M132.879 9.92773C131.059 9.92773 129.611 11.3763 129.611 13.238C129.611 14.9348 130.686 16.0936 132.3 16.0936H132.383C134.163 16.0936 135.693 14.8931 135.735 12.7833C135.735 11.1281 134.618 9.92773 132.879 9.92773Z" fill="black"/>
<path d="M124.893 38.8122H130.603L134.494 18.5776H128.741L124.893 38.8122Z" fill="black"/>
<path d="M149.019 18.5362H145.046L145.252 17.5839C145.584 15.6391 146.743 13.9008 148.646 13.9008C149.662 13.9008 150.466 14.1905 150.466 14.1905L151.584 9.72139C151.584 9.72139 150.591 9.2251 148.479 9.2251C146.452 9.2251 144.425 9.80448 142.893 11.1283C140.948 12.7836 140.038 15.1831 139.583 17.5839L139.418 18.5362H136.769L135.941 22.8404H138.591L135.57 38.8137H141.281L144.302 22.8404H148.233L149.019 18.5362Z" fill="black"/>
<path d="M162.757 18.5775C162.757 18.5775 159.187 27.5716 157.584 32.4812H157.501C157.392 30.9001 156.094 18.5775 156.094 18.5775H150.093L153.53 37.1569C153.613 37.5701 153.571 37.8195 153.405 38.1092C152.742 39.3915 151.625 40.6335 150.301 41.5443C149.225 42.3302 148.025 42.8265 147.074 43.1578L148.646 47.9998C149.805 47.7517 152.204 46.7994 154.232 44.8961C156.84 42.4549 159.239 38.6886 161.722 33.5569L168.716 18.5762H162.757V18.5775Z" fill="black"/>
</g>
<defs>
<clipPath id="clip0_246_208">
<rect width="169.18" height="48" fill="white" transform="translate(0.218384)"/>
</clipPath>
</defs>
</svg>
