<svg width="33" height="32" viewBox="0 0 33 32" fill="none" xmlns="http://www.w3.org/2000/svg">
<g clip-path="url(#clip0_207_10)">
<path d="M13.2925 4.32749C13.2925 4.32749 13.6731 5.14124 13.135 6.04249C12.8637 6.48874 5.99937 7.94999 3.32187 11.6687C1.68124 14.2369 -0.834383 21.6744 7.20249 26.5962C10.8119 28.4556 12.3431 28.3987 12.3431 28.3987C12.3431 28.3987 9.93687 26.7056 11.4681 25.555C12.9994 24.4044 15.2394 23.8619 15.8431 22.2737C16.5519 22.8206 17.7025 23.9669 18.7962 23.8575C18.6869 23.1487 18.4156 22.8731 19.2862 22.7637C20.1569 22.6544 20.5987 22.6544 20.5987 22.6544C20.5987 22.6544 19.7806 21.9981 18.8487 21.9456C17.9169 21.8931 16.1712 20.0862 16.2237 19.3206C17.37 18.6644 18.8487 17.5706 19.7237 17.8987C20.5987 18.2269 21.4737 18.7737 21.6356 19.2637C21.6356 19.5919 21.4737 20.1387 22.1825 19.7012C22.8912 19.2637 22.7294 18.9925 23.0006 18.3887C23.2719 17.785 23.3287 17.68 22.7294 17.1856C22.13 16.6912 20.7081 15.545 19.5575 15.8731C18.4069 16.2012 16.005 17.1287 14.8019 15.9825C15.2919 14.8887 16.0575 13.1387 15.6769 11.9356C16.3856 11.3887 17.2081 10.7894 17.3175 9.80499C18.1356 9.69562 19.8856 9.20562 19.5575 8.33062C19.2294 7.45562 16.9019 3.57499 13.345 4.34062" fill="white"/>
<path d="M24.6456 13.2613C25.245 11.6775 26.2294 8.99565 25.3019 8.88627C24.3744 8.7769 23.3331 11.2925 23.0619 11.9488C22.7906 12.605 21.6969 15.8863 22.2963 16.3238C22.8956 16.7613 24.6456 13.2613 24.6456 13.2613Z" fill="white"/>
<path d="M19.5575 8.99563C19.7281 8.72876 19.8725 8.96063 19.1375 9.01313C18.4025 9.06563 17.5188 9.29313 17.37 9.61688C17.09 10.2163 16.9938 11.6994 15.9263 12.0275C15.8738 12.4081 15.9263 13.2831 17.4269 13.4494C18.9275 13.6156 18.9844 12.6313 19.8594 12.6575C20.7344 12.6838 20.6513 12.36 20.3494 12.1106C20.0475 11.8613 19.0106 10.1988 19.0106 9.65188C19.0106 9.10501 19.365 9.29751 19.5575 8.99563ZM6.13063 25.485C6.13063 25.485 5.66688 24.2556 7.03188 23.5994C8.39688 22.9431 9.62625 23.4638 9.87563 23.9275C10.125 24.3913 9.46875 26.2506 7.115 26.2769C6.54188 25.8131 6.13063 25.485 6.13063 25.485Z" fill="#2D2B2C"/>
<g opacity="0.7">
<path d="M24.8208 9.77666C24.8427 9.85869 24.8317 9.94619 24.8317 10.0392C24.8317 10.1267 24.8263 10.2196 24.7989 10.3071C24.8044 10.3235 24.7989 10.3509 24.7989 10.3728C24.777 10.4001 24.7935 10.422 24.788 10.4438C24.8208 10.4767 24.87 10.5149 24.8481 10.5587C24.8372 10.586 24.8044 10.597 24.7716 10.6079C24.7552 10.6845 24.7333 10.772 24.7169 10.8595C24.7169 10.8813 24.7169 10.9142 24.7114 10.936C24.695 10.9907 24.6786 11.0399 24.6622 11.1001C24.6513 11.1493 24.6622 11.2423 24.6075 11.2532C24.5856 11.3079 24.5747 11.3517 24.5474 11.4063C24.5364 11.4118 24.5255 11.4009 24.5145 11.4063C24.4981 11.4228 24.5036 11.4501 24.4872 11.4665C24.4763 11.4774 24.4599 11.472 24.4544 11.4829C24.438 11.5103 24.4435 11.5485 24.427 11.5868C24.4023 11.6083 24.3819 11.6343 24.3669 11.6634C24.3395 11.7235 24.3341 11.8056 24.2849 11.8548C24.2739 11.8657 24.2466 11.8712 24.2302 11.8876C24.2192 11.8985 24.2083 11.9204 24.1974 11.9368C24.181 11.9587 24.1645 11.9915 24.1481 12.0188C24.0935 12.1118 24.0224 12.2212 23.9677 12.3251C23.9622 12.3415 23.9567 12.3688 23.9513 12.3853C23.9349 12.429 23.902 12.4673 23.8856 12.511C23.8583 12.5767 23.8145 12.6915 23.7489 12.7517C23.7435 12.7571 23.727 12.7626 23.7161 12.7735C23.7106 12.7845 23.7106 12.8009 23.6997 12.8173C23.6997 12.8228 23.6778 12.8228 23.6724 12.8337C23.6614 12.8446 23.656 12.8556 23.6505 12.8665C23.6286 12.8829 23.5958 12.8938 23.5794 12.9157C23.5685 12.9321 23.563 12.954 23.5466 12.9759C23.5302 12.9978 23.5083 13.0142 23.4919 13.0415C23.4427 13.1071 23.4208 13.1946 23.3442 13.222C23.3278 13.2274 23.3005 13.2274 23.2786 13.2329C23.2622 13.2165 23.2786 13.1892 23.2731 13.1728C23.2731 13.1618 23.2622 13.1563 23.2567 13.1454C23.2513 13.1235 23.2403 13.0743 23.2403 13.047C23.2403 13.0196 23.2567 12.9978 23.2567 12.9595C23.2567 12.9321 23.2513 12.8938 23.2513 12.861C23.2513 12.8446 23.2513 12.8282 23.2513 12.8118C23.2513 12.7845 23.2513 12.7681 23.2513 12.7353C23.2513 12.697 23.2513 12.6587 23.2458 12.6204C23.2622 12.5274 23.2731 12.4563 23.3005 12.3524C23.3114 12.3087 23.3388 12.2267 23.3606 12.172C23.4044 12.0735 23.4481 11.9587 23.5028 11.8493C23.5192 11.8165 23.5466 11.7892 23.563 11.7509C23.5685 11.7345 23.5739 11.7071 23.5794 11.6853C23.6669 11.5048 23.7872 11.3462 23.8802 11.1548C23.9567 11.0017 24.0333 10.8595 24.1372 10.6899C24.181 10.6134 24.2192 10.5313 24.2685 10.4712C24.3013 10.4274 24.356 10.3399 24.3942 10.2579C24.4052 10.2306 24.4052 10.2032 24.4489 10.1978C24.4872 10.1485 24.52 10.0884 24.5638 10.0446C24.5747 10.0337 24.5911 10.0282 24.602 10.0228C24.613 10.0118 24.6185 9.99541 24.6349 9.98447C24.6622 9.9626 24.7114 9.94072 24.7442 9.89697C24.7497 9.88604 24.7552 9.8751 24.7661 9.86416C24.788 9.83682 24.8263 9.76572 24.8645 9.75478C24.8645 9.75478 24.8755 9.75478 24.881 9.75478" fill="#2D2B2C"/>
</g>
<g opacity="0.7">
<path d="M24.4708 10.8921C24.5036 10.996 24.5091 11.1163 24.52 11.2312C24.52 11.346 24.5146 11.4772 24.4817 11.6085C24.4817 11.6304 24.4763 11.6687 24.4763 11.696C24.4489 11.7343 24.4653 11.7616 24.4544 11.7944C24.4927 11.8382 24.5419 11.8819 24.5146 11.9476C24.4982 11.9913 24.4544 12.0022 24.4161 12.0241C24.3833 12.128 24.3505 12.2538 24.3177 12.3687C24.3122 12.4015 24.3067 12.4397 24.2958 12.4726C24.2685 12.5437 24.2357 12.6147 24.2138 12.6968C24.1919 12.7624 24.1974 12.8827 24.1263 12.8937C24.0935 12.9647 24.0771 13.0194 24.0388 13.0905C24.0224 13.1015 24.0114 13.0851 23.995 13.0905C23.9786 13.1124 23.9732 13.1452 23.9567 13.1671C23.9458 13.178 23.9294 13.178 23.9185 13.1944C23.8966 13.2272 23.9021 13.2765 23.8802 13.3257C23.8571 13.3466 23.8369 13.3705 23.82 13.3968L23.8146 13.4077C23.7817 13.4952 23.7708 13.6046 23.7161 13.6757C23.6997 13.6976 23.6724 13.703 23.656 13.7249C23.645 13.7413 23.6341 13.7741 23.6177 13.796C23.6013 13.8288 23.5794 13.8726 23.563 13.9108C23.5083 14.0421 23.4263 14.1952 23.3716 14.3483C23.3661 14.3757 23.3607 14.4085 23.3552 14.4358C23.3333 14.496 23.3005 14.5562 23.2841 14.6163C23.2513 14.7093 23.2075 14.8733 23.12 14.9608C23.1146 14.9718 23.0927 14.9827 23.0817 14.9937C23.0708 15.0101 23.0763 15.0319 23.0599 15.0538C23.0544 15.0593 23.038 15.0647 23.0271 15.0757C23.0161 15.0921 23.0107 15.1085 22.9997 15.1249C22.9724 15.1522 22.9341 15.1687 22.9067 15.2015C22.8903 15.2233 22.8794 15.2562 22.8575 15.2835C22.8357 15.3108 22.8083 15.3437 22.781 15.371L22.6825 15.5132C22.6552 15.5569 22.6169 15.5952 22.5732 15.6116C22.5513 15.6226 22.5185 15.6171 22.4911 15.6226C22.4747 15.6007 22.4911 15.5679 22.4911 15.5405C22.4911 15.5296 22.4802 15.5132 22.4802 15.5022C22.4802 15.4694 22.4747 15.4093 22.4802 15.3765C22.4802 15.3437 22.5075 15.3163 22.5185 15.2671C22.5239 15.2288 22.5185 15.1851 22.5185 15.1413C22.5185 15.1249 22.5239 15.103 22.5239 15.0757C22.5239 15.0429 22.5239 15.0265 22.5294 14.9827C22.5349 14.9335 22.5294 14.8843 22.5239 14.8351C22.5458 14.7202 22.5567 14.6272 22.5896 14.4905C22.6005 14.4304 22.6278 14.321 22.6552 14.2499C22.6771 14.1788 22.7044 14.1077 22.7263 14.0312C22.7482 13.9546 22.7755 13.878 22.8028 13.8015C22.8192 13.7522 22.8466 13.7085 22.8685 13.6538C22.8794 13.6265 22.8794 13.5937 22.8903 13.5608C22.9122 13.4952 22.9396 13.4241 22.9724 13.364C23.0026 13.3034 23.0336 13.2433 23.0653 13.1835L23.1146 13.0851C23.131 13.0577 23.1474 13.0249 23.1638 12.9921C23.1983 12.9274 23.2312 12.8617 23.2622 12.7952C23.3161 12.6899 23.3726 12.586 23.4317 12.4835C23.4963 12.3771 23.5619 12.2714 23.6286 12.1663C23.6888 12.0679 23.7489 11.9585 23.8091 11.8765C23.8528 11.8163 23.9239 11.7069 23.9732 11.5976C23.9896 11.5593 23.9896 11.5265 24.0333 11.521C24.0825 11.4554 24.1208 11.3788 24.1646 11.3187C24.1755 11.3077 24.1919 11.2968 24.2083 11.2804C24.2192 11.264 24.2302 11.2421 24.2411 11.2257C24.2685 11.1929 24.3286 11.1601 24.3614 11.089C24.3669 11.0726 24.3669 11.0562 24.3778 11.0343C24.3942 10.9905 24.4325 10.8866 24.4708 10.8647C24.4708 10.8647 24.4817 10.8647 24.4872 10.8647" fill="#2D2B2C"/>
</g>
<path d="M23.285 12.1149C23.285 12.1149 22.8475 13.7906 23.0312 15.1774L23.285 12.1149ZM23.8012 10.9818C23.7706 10.8681 23.5519 14.2324 23.6175 14.3506C23.6787 14.4643 24.0069 11.6949 23.8012 10.9818Z" fill="white"/>
<path d="M13.3625 4.5332C13.3625 4.5332 13.6162 5.9857 11.2494 6.75133C8.88249 7.51695 5.61437 8.16883 3.20812 11.052C0.801865 13.9307 0.364365 18.7038 2.00499 21.8407C3.64562 24.9732 7.65312 28.8757 14.8719 28.8757C22.0906 28.8757 27.8262 23.337 27.8262 19.5088C27.8262 17.5051 26.7281 17.9513 26.3475 19.8282C26.0062 21.5257 22.8256 27.8607 14.8412 27.8607C6.85687 27.8607 2.77499 23.0132 2.26312 18.857C1.75562 14.7007 2.91062 11.122 7.10624 8.96945C11.2975 6.82133 13.9575 7.67883 13.3756 4.54195" fill="#2D2B2C"/>
<path d="M11.3719 15.7595C11.3719 15.7595 10.8994 17.947 8.60251 19.0013C6.30563 20.0557 5.32126 20.642 4.99313 22.462C5.86813 21.0051 8.41876 20.712 9.84063 19.2901C11.2625 17.8682 11.3719 15.7551 11.3719 15.7551M11.9888 10.6888C11.9888 10.6888 13.9575 13.2395 16.2894 12.0013C18.6213 10.7632 17.4181 7.88447 17.3831 7.70072C17.3481 7.52135 17.6369 10.9076 15.8913 11.4895C14.1413 12.0713 11.9931 10.6888 11.9931 10.6888M6.85251 25.9313C6.85251 25.9313 8.09063 26.0013 9.00063 24.9863C9.91063 23.967 9.39876 22.3613 10.895 21.7795C12.3869 21.1976 13.4106 21.5607 13.4106 21.5607C13.4106 21.5607 10.7506 21.9238 10.5319 23.4551C10.3131 24.9863 9.95001 25.6776 9.36813 26.1501C8.78626 26.6226 8.02063 26.697 8.02063 26.697L6.85688 25.9313H6.85251Z" fill="#2D2B2C"/>
<path d="M12.4744 17.9952C12.4744 17.9952 14.6881 17.6277 15.6987 15.3702C16.5256 13.524 15.97 11.9271 15.97 11.9271L14.85 12.089C14.85 12.089 15.3137 13.4277 14.9594 14.6308C14.605 15.834 13.7869 17.2252 12.4744 17.9908M24.4006 12.8721C23.6131 14.8452 22.445 16.2627 22.3094 16.1883C22.0644 16.0527 22.2919 14.329 23.0794 12.3515C23.8669 10.3783 24.8512 8.87333 25.2144 9.0177C25.5775 9.1577 25.1881 10.8946 24.4006 12.8721ZM25.5469 8.90833C24.65 8.4227 23.5431 10.2427 22.6375 12.369C21.7319 14.4952 21.6269 16.2058 22.3269 16.5121C23.2587 16.919 24.1381 15.2958 25.0437 13.1696C25.9494 11.0433 26.3562 9.34145 25.5469 8.90395" fill="#2D2B2C"/>
<path d="M9.22375 19.627C9.22375 19.627 9.78813 21.3201 12.6144 20.9745C15.2744 20.6464 16.4163 19.6226 18.0438 18.6076C19.2075 17.8814 19.1375 18.2095 19.2819 18.2445C19.4263 18.2795 20.0825 18.682 20.7738 18.6076C20.8088 18.9708 20.45 18.6776 20.3013 19.0058C20.2313 19.2245 20.8525 20.2526 21.7581 20.0995C23.25 19.8458 22.83 19.2245 23.1231 18.5333C23.4119 17.842 23.6131 17.4789 22.1606 16.4945C21.0319 15.4751 20.4106 15.7333 19.8638 15.7333C19.3169 15.7333 17.895 16.4945 16.9106 16.3152C15.9263 16.1358 15.3094 15.7683 15.3094 15.7683L14.6575 16.4945C14.6575 16.4945 15.8563 17.4045 17.2431 17.0764C18.6256 16.7483 19.6494 15.6939 20.8525 16.2408C22.0556 16.7876 22.2875 17.1508 22.655 17.422C23.0706 17.7283 23.11 18.0564 22.8169 18.3495C22.5281 18.6383 22.8169 18.857 22.6375 19.1851C22.4581 19.5133 21.5438 19.6576 21.5438 19.6576C21.5438 19.6576 22.5413 18.3758 21.325 18.2751C20.45 18.2051 19.9031 17.037 18.665 17.6583C16.8888 18.5464 14.3644 20.0645 12.6144 20.2439C10.9125 20.4189 10.2825 19.8808 9.84501 18.8614C9.33751 19.2989 9.22813 19.627 9.22813 19.627" fill="#2D2B2C"/>
<path d="M15.4931 19.9902C15.4931 19.9902 16.7312 20.6465 16.3681 22.0684C16.005 23.4902 14.3644 24.4746 13.3056 24.9471C12.2512 25.4196 11.4637 26.0452 12.2512 26.439C12.9075 26.7671 13.2706 25.9315 14.22 25.7827C15.165 25.6384 16.005 26.0015 16.0794 26.5484C15.6812 26.3296 15.3881 26.3296 15.3881 26.3296C15.3881 26.3296 15.7162 26.5484 15.7512 26.9115C15.7862 27.2746 15.7162 27.0909 15.4975 27.0909C14.9506 27.0909 14.8806 26.6184 14.4037 26.6927C13.2006 26.8021 13.1306 27.3096 12.4744 27.384C11.8181 27.454 10.7244 27.0952 10.8731 26.2552C11.0175 25.4196 12.1462 24.8334 13.205 24.3959C14.2594 23.9584 15.865 22.5759 15.6462 21.3334C15.4275 20.0952 14.4825 20.349 14.4825 20.349L15.5019 19.9859L15.4931 19.9902ZM18.5994 9.66961C18.5994 9.66961 19.1156 9.92773 19.4437 11.2402C19.6625 11.7127 19.9512 12.0934 20.2094 12.2027C20.4631 12.3121 20.1 12.4215 19.9206 12.3821C19.7412 12.3471 19.3562 12.1852 19.1025 12.3996C18.8487 12.614 18.2275 13.2002 17.3525 13.0559C16.4775 12.9115 15.7337 12.3559 15.7337 12.3559C15.7337 12.3559 16.0619 13.804 18.0087 13.7121C19.3606 13.6509 19.0631 12.9465 19.9775 12.8021C20.8875 12.6577 20.7912 12.1984 20.5944 11.8177C20.2881 11.2184 19.3212 11.074 19.2119 9.31523C19.1025 9.13586 18.42 9.33711 18.6037 9.66523M21.7187 18.8134C21.7975 18.8921 21.0756 20.5327 21.0756 20.5327C21.0756 20.5327 20.9312 20.9309 20.5419 20.7909C20.1437 20.6465 20.2487 20.3577 20.2487 20.3577L21.1762 18.6734C21.1762 18.6734 21.6837 18.774 21.7231 18.8134M22.7469 16.4815L22.5675 17.0284L21.9725 16.5734L22.13 16.2277L22.7469 16.4815Z" fill="#2D2B2C"/>
<path d="M16.075 19.6619C15.9656 20.06 17.3481 22.3963 18.2975 22.2475C19.2425 22.1031 19.3869 22.3919 19.0981 22.5756C18.8094 22.755 18.2975 22.8294 18.3719 23.0831C18.4419 23.3369 18.6431 23.5906 18.175 23.5206C17.7025 23.4506 16.7356 22.9388 16.1537 21.9544C15.9744 22.5363 15.9 22.72 15.9 22.72C15.9 22.72 17.7594 24.6494 19.6537 23.8488C19.3256 23.595 18.4156 23.6694 19.1812 23.2319C19.9469 22.7944 20.5287 22.65 20.8919 23.3413C21.0712 23.3063 21.0712 21.7006 18.6694 21.81C17.8337 21.7006 16.7006 20.06 16.7006 19.2244C16.4819 19.4431 16.1931 19.2594 16.0837 19.6619M23.495 11.5988C23.495 11.5988 23.0181 13.0338 23.2194 14.2238L23.495 11.5988ZM23.985 10.75C23.9631 10.6625 23.7662 13.2525 23.81 13.34C23.8537 13.4275 24.1294 11.3013 23.985 10.75ZM17.615 9.31501C17.615 9.31501 19.6712 9.13564 19.3081 8.31314C18.21 5.84126 16.1187 4.39751 12.2556 4.54189C14.4431 3.66689 16.3025 3.77626 18.0875 5.30751C18.98 6.07314 19.3912 7.00501 19.7106 7.71814C20.2181 8.85564 20.0694 8.96064 19.5094 9.28001C18.8225 9.66501 17.6412 9.42001 17.615 9.31501Z" fill="#2D2B2C"/>
<path d="M17.8163 9.62116C17.8163 9.62116 18.3806 10.0105 18.8269 9.69116C19.0281 9.48116 19.1638 9.36741 18.5906 9.39366L17.8863 9.36741C17.4006 9.27116 17.4094 9.41554 17.8206 9.62116H17.8163Z" fill="#2D2B2C"/>
</g>
<defs>
<clipPath id="clip0_207_10">
<rect width="32" height="32" fill="white" transform="translate(0.5)"/>
</clipPath>
</defs>
</svg>
