<svg width="33" height="32" viewBox="0 0 33 32" fill="none" xmlns="http://www.w3.org/2000/svg">
<g clip-path="url(#clip0_207_21)">
<g clip-path="url(#clip1_207_21)">
<path d="M24.2488 22.906L24.3328 22.8572V9.1104L24.2488 9.06159L12.5833 2.28618L12.5 2.23779L12.4167 2.28618L0.75121 9.06159L0.667252 9.1104V22.8572L0.75121 22.906L12.4167 29.6814L12.5 29.7298L12.5833 29.6814L24.2488 22.906Z" fill="#2D2B2C" stroke="white" stroke-width="0.5"/>
<path d="M3.87932 18.5833C3.60989 18.5833 3.36386 18.53 3.14134 18.4234C2.92459 18.3167 2.73719 18.1656 2.57906 17.9701C2.42669 17.7686 2.30669 17.5258 2.21881 17.2414C2.13685 16.957 2.09579 16.634 2.09579 16.2726C2.09579 15.9111 2.14555 15.5883 2.24515 15.3039C2.35051 15.0195 2.48531 14.7795 2.6493 14.584C2.81914 14.3825 3.01248 14.2284 3.22915 14.1218C3.45175 14.0151 3.6772 13.9618 3.90566 13.9618C4.15168 13.9618 4.35372 14.0033 4.51193 14.0862C4.66998 14.1692 4.82527 14.2817 4.97755 14.4239L4.92487 13.7485V12.2465H6.21635V18.4767H5.16202L5.07422 18.0412H5.0391C4.88674 18.1952 4.70812 18.3256 4.50307 18.4322C4.29811 18.533 4.09014 18.5833 3.87932 18.5833ZM4.21315 17.5169C4.35372 17.5169 4.47966 17.4872 4.59096 17.428C4.70812 17.3687 4.81942 17.265 4.92487 17.1169V15.3127C4.80771 15.2061 4.68763 15.132 4.56462 15.0905C4.44169 15.0491 4.32152 15.0283 4.20437 15.0283C3.9994 15.0283 3.81777 15.129 3.65964 15.3305C3.50159 15.526 3.42248 15.8341 3.42248 16.2548C3.42248 16.6933 3.4898 17.0132 3.62452 17.2146C3.76509 17.4161 3.96127 17.5169 4.21315 17.5169ZM8.45889 18.5833C8.2597 18.5833 8.07815 18.5478 7.91416 18.4767C7.75595 18.4115 7.62131 18.3197 7.51001 18.2011C7.39805 18.0757 7.30883 17.9313 7.24643 17.7745C7.18789 17.6146 7.15862 17.4398 7.15862 17.2502C7.15862 16.788 7.35179 16.4266 7.73839 16.1659C8.12498 15.9052 8.74881 15.7305 9.6098 15.6415C9.59809 15.4461 9.53947 15.292 9.43411 15.1794C9.33451 15.0609 9.16467 15.0017 8.92451 15.0017C8.7371 15.0017 8.54962 15.0372 8.36222 15.1083C8.18067 15.1794 7.98441 15.2772 7.77351 15.4016L7.30789 14.5395C7.58544 14.3694 7.87995 14.2294 8.18653 14.1218C8.49694 14.0151 8.82491 13.9618 9.17053 13.9618C9.73281 13.9618 10.1604 14.1247 10.4532 14.4507C10.7519 14.7706 10.9013 15.2712 10.9013 15.9526V18.4767H9.84704L9.75915 18.0234H9.72403C9.53655 18.1893 9.34037 18.3256 9.1354 18.4322C8.93036 18.533 8.70483 18.5833 8.45889 18.5833ZM8.89816 17.5702C9.04459 17.5702 9.17053 17.5376 9.27598 17.4724C9.38134 17.4072 9.49265 17.3154 9.6098 17.1969V16.4237C9.15297 16.4888 8.83662 16.5837 8.66092 16.7081C8.48523 16.8325 8.39734 16.9806 8.39734 17.1524C8.39734 17.2946 8.44133 17.4013 8.52913 17.4724C8.62279 17.5376 8.74589 17.5702 8.89816 17.5702ZM13.5175 18.5833C13.248 18.5833 13.0166 18.5419 12.8234 18.4589C12.6359 18.376 12.4807 18.2604 12.3577 18.1123C12.2405 17.9642 12.1527 17.7864 12.0941 17.579C12.0414 17.3657 12.0151 17.1317 12.0151 16.8769V15.0905H11.4176V14.1218L12.0853 14.0685L12.2347 12.8953H13.3066V14.0685H14.3521V15.0905H13.3066V16.8592C13.3066 17.108 13.3564 17.2887 13.4559 17.4013C13.5614 17.5079 13.699 17.5613 13.8688 17.5613C13.9392 17.5613 14.0094 17.5524 14.0797 17.5346C14.1558 17.5169 14.2232 17.4961 14.2818 17.4724L14.4839 18.4234C14.3667 18.4589 14.2291 18.4945 14.071 18.53C13.9128 18.5656 13.7283 18.5833 13.5175 18.5833ZM15.9838 15.7038C15.7612 15.7038 15.5738 15.6267 15.4215 15.4727C15.2751 15.3127 15.2018 15.1172 15.2018 14.8861C15.2018 14.6491 15.2751 14.4536 15.4215 14.2995C15.5738 14.1395 15.7612 14.0596 15.9838 14.0596C16.2064 14.0596 16.3908 14.1395 16.5373 14.2995C16.6896 14.4536 16.7657 14.6491 16.7657 14.8861C16.7657 15.1172 16.6896 15.3127 16.5373 15.4727C16.3908 15.6267 16.2064 15.7038 15.9838 15.7038ZM15.9838 18.5833C15.7612 18.5833 15.5738 18.5063 15.4215 18.3523C15.2751 18.1923 15.2018 17.9968 15.2018 17.7657C15.2018 17.5287 15.2751 17.3331 15.4215 17.1791C15.5738 17.0191 15.7612 16.9391 15.9838 16.9391C16.2064 16.9391 16.3908 17.0191 16.5373 17.1791C16.6896 17.3331 16.7657 17.5287 16.7657 17.7657C16.7657 17.9968 16.6896 18.1923 16.5373 18.3523C16.3908 18.5063 16.2064 18.5833 15.9838 18.5833ZM17.4142 19.8987L19.1801 12.1665H20.0235L18.2576 19.8987H17.4142ZM20.3914 19.8987L22.1573 12.1665H23.0008L21.2348 19.8987H20.3914Z" fill="white"/>
<path d="M3.78273 18.4857C3.51337 18.4857 3.26735 18.4323 3.04475 18.3257C2.82808 18.219 2.64059 18.068 2.48246 17.8724C2.33018 17.671 2.2101 17.428 2.12221 17.1436C2.04026 16.8592 1.99928 16.5363 1.99928 16.1749C1.99928 15.8134 2.04904 15.4905 2.14863 15.2061C2.254 14.9217 2.38872 14.6817 2.5527 14.4862C2.72263 14.2848 2.91588 14.1307 3.13263 14.0241C3.35516 13.9174 3.58069 13.8641 3.80915 13.8641C4.05509 13.8641 4.25721 13.9056 4.41534 13.9885C4.57347 14.0715 4.72868 14.1841 4.88096 14.3263L4.82827 13.6508V12.1488H6.11976V18.379H5.06551L4.97771 17.9435H4.9425C4.79022 18.0976 4.61152 18.2279 4.40647 18.3346C4.2016 18.4353 3.99362 18.4857 3.78273 18.4857ZM4.11663 17.4191C4.25712 17.4191 4.38314 17.3895 4.49445 17.3302C4.61152 17.271 4.72282 17.1673 4.82827 17.0192V15.215C4.7112 15.1083 4.59103 15.0343 4.46802 14.9929C4.34509 14.9513 4.22501 14.9306 4.10785 14.9306C3.90281 14.9306 3.72126 15.0313 3.56313 15.2328C3.405 15.4283 3.32589 15.7364 3.32589 16.1571C3.32589 16.5955 3.39329 16.9155 3.52801 17.117C3.6685 17.3184 3.86476 17.4191 4.11663 17.4191ZM8.36229 18.4857C8.16318 18.4857 7.98155 18.4501 7.81757 18.379C7.65944 18.3138 7.52472 18.222 7.41341 18.1035C7.30149 17.978 7.21227 17.8336 7.14983 17.6769C7.0913 17.5169 7.06203 17.3421 7.06203 17.1525C7.06203 16.6904 7.25528 16.3289 7.64187 16.0682C8.02847 15.8075 8.65222 15.6327 9.51321 15.5439C9.5015 15.3483 9.44296 15.1943 9.33751 15.0817C9.23792 14.9632 9.06808 14.904 8.82791 14.904C8.64059 14.904 8.45311 14.9395 8.26562 15.0106C8.08416 15.0817 7.8879 15.1795 7.677 15.3039L7.21138 14.4418C7.48887 14.2717 7.78335 14.1317 8.08993 14.0241C8.40034 13.9174 8.7284 13.8641 9.07393 13.8641C9.63622 13.8641 10.0638 14.0271 10.3567 14.3529C10.6554 14.6728 10.8048 15.1735 10.8048 15.8549V18.379H9.75045L9.66264 17.9258H9.62744C9.44004 18.0916 9.24377 18.2279 9.03881 18.3346C8.83385 18.4353 8.60831 18.4857 8.36229 18.4857ZM8.80157 17.4724C8.94799 17.4724 9.07393 17.4399 9.17938 17.3747C9.28483 17.3095 9.39613 17.2177 9.51321 17.0992V16.3259C9.05637 16.3912 8.7401 16.4859 8.56433 16.6103C8.38872 16.7348 8.30083 16.8829 8.30083 17.0547C8.30083 17.1969 8.34473 17.3036 8.43262 17.3747C8.52628 17.4399 8.64929 17.4724 8.80157 17.4724ZM13.4209 18.4857C13.1514 18.4857 12.9201 18.4441 12.7268 18.3612C12.5394 18.2782 12.3842 18.1627 12.2612 18.0146C12.144 17.8665 12.0561 17.6887 11.9976 17.4813C11.9448 17.268 11.9185 17.034 11.9185 16.7792V14.9929H11.3211V14.0241L11.9888 13.9707L12.1382 12.7976H13.21V13.9707H14.2555V14.9929H13.21V16.7614C13.21 17.0103 13.2598 17.191 13.3594 17.3036C13.4648 17.4102 13.6024 17.4635 13.7723 17.4635C13.8426 17.4635 13.9129 17.4547 13.9831 17.4369C14.0593 17.4191 14.1266 17.3984 14.1853 17.3747L14.3873 18.3257C14.2701 18.3612 14.1325 18.3968 13.9744 18.4323C13.8162 18.4679 13.6318 18.4857 13.4209 18.4857ZM15.8873 15.6061C15.6646 15.6061 15.4772 15.529 15.3249 15.375C15.1785 15.215 15.1053 15.0195 15.1053 14.7884C15.1053 14.5514 15.1785 14.3559 15.3249 14.2018C15.4772 14.0419 15.6646 13.9619 15.8873 13.9619C16.1098 13.9619 16.2943 14.0419 16.4408 14.2018C16.593 14.3559 16.6691 14.5514 16.6691 14.7884C16.6691 15.0195 16.593 15.215 16.4408 15.375C16.2943 15.529 16.1098 15.6061 15.8873 15.6061ZM15.8873 18.4857C15.6646 18.4857 15.4772 18.4086 15.3249 18.2546C15.1785 18.0946 15.1053 17.899 15.1053 17.668C15.1053 17.431 15.1785 17.2355 15.3249 17.0814C15.4772 16.9214 15.6646 16.8415 15.8873 16.8415C16.1098 16.8415 16.2943 16.9214 16.4408 17.0814C16.593 17.2355 16.6691 17.431 16.6691 17.668C16.6691 17.899 16.593 18.0946 16.4408 18.2546C16.2943 18.4086 16.1098 18.4857 15.8873 18.4857ZM17.3176 19.801L19.0835 12.0688H19.9269L18.1611 19.801H17.3176ZM20.2948 19.801L22.0608 12.0688H22.9042L21.1382 19.801H20.2948Z" fill="white"/>
</g>
</g>
<defs>
<clipPath id="clip0_207_21">
<rect width="32" height="32" fill="white" transform="translate(0.5)"/>
</clipPath>
<clipPath id="clip1_207_21">
<rect width="24" height="28" fill="white" transform="translate(0.5 2)"/>
</clipPath>
</defs>
</svg>
