<svg width="33" height="32" viewBox="0 0 33 32" fill="none" xmlns="http://www.w3.org/2000/svg">
<g clip-path="url(#clip0_207_19)">
<g clip-path="url(#clip1_207_19)">
<path d="M11.5026 3C5.58841 3 0.793732 4.74777 0.793732 6.9048V10.1089C0.793732 12.2662 5.58841 14.0134 11.5026 14.0134C17.4165 14.0134 22.2112 12.2659 22.2112 10.1089V6.9048C22.2112 4.74777 17.4165 3 11.5026 3Z" fill="black"/>
<path d="M11.5026 15.8807C5.85604 15.8807 1.2008 14.2864 0.793722 12.2646C0.774312 12.3612 0.793722 17.5561 0.793722 17.5561C0.793722 19.7136 5.5884 21.4609 11.5026 21.4609C17.4165 21.4609 22.2112 19.7131 22.2112 17.5561C22.2112 17.5561 22.2232 12.3609 22.2041 12.2646C21.7965 14.2866 17.1489 15.8807 11.5026 15.8807Z" fill="black"/>
<path d="M22.2011 19.8037C21.7943 21.8243 17.1492 23.4195 11.5026 23.4195C5.85605 23.4195 1.19971 21.824 0.792633 19.8037L0.793727 25.0954C0.793727 27.2527 5.5884 28.9999 11.5026 28.9999C17.4165 28.9999 22.2112 27.2522 22.2112 25.0954L22.2011 19.8037Z" fill="black"/>
</g>
</g>
<defs>
<clipPath id="clip0_207_19">
<rect width="32" height="32" fill="white" transform="translate(0.5)"/>
</clipPath>
<clipPath id="clip1_207_19">
<rect width="26" height="26" fill="white" transform="translate(0.5 3)"/>
</clipPath>
</defs>
</svg>
