<svg width="33" height="32" viewBox="0 0 33 32" fill="none" xmlns="http://www.w3.org/2000/svg">
<g clip-path="url(#clip0_207_13)">
<path d="M10.58 8.47998L2.82043 21.68H18.3397L10.58 8.47998Z" fill="#2D2B2C" fill-opacity="0.1"/>
<path d="M22.42 8.47998L14.6604 21.68H30.1797L22.42 8.47998Z" fill="#2D2B2C" fill-opacity="0.8"/>
<path fill-rule="evenodd" clip-rule="evenodd" d="M22.9747 7.8407C23.4339 8.10578 23.5912 8.69292 23.3261 9.15207L15.8007 22.1864C15.5356 22.6456 14.9485 22.8029 14.4893 22.5378C14.0301 22.2727 13.8728 21.6856 14.1379 21.2264L21.6634 8.19207C21.9285 7.7329 22.5155 7.57559 22.9747 7.8407Z" fill="#2D2B2C"/>
<path fill-rule="evenodd" clip-rule="evenodd" d="M30.6114 22.5373C31.0706 22.2721 31.2278 21.6851 30.9627 21.2259L23.4374 8.19159C23.1723 7.73242 22.5851 7.57511 22.1261 7.8402C21.6669 8.1053 21.5096 8.69242 21.7747 9.15159L29.3 22.1859C29.5651 22.6451 30.1522 22.8024 30.6114 22.5373Z" fill="#2D2B2C"/>
<path fill-rule="evenodd" clip-rule="evenodd" d="M9.41074 8.64018C9.41074 8.10998 9.84054 7.68018 10.3707 7.68018H22.42C22.9502 7.68018 23.38 8.10998 23.38 8.64018C23.38 9.17037 22.9502 9.60018 22.42 9.60018H10.3707C9.84054 9.60018 9.41074 9.17037 9.41074 8.64018Z" fill="#2D2B2C"/>
<path fill-rule="evenodd" clip-rule="evenodd" d="M1.97206 21.6641C1.97206 21.1339 2.40187 20.7041 2.93207 20.7041H14.8116C15.3418 20.7041 15.7716 21.1339 15.7716 21.6641C15.7716 22.1943 15.3418 22.6241 14.8116 22.6241H2.93207C2.40187 22.6241 1.97206 22.1943 1.97206 21.6641Z" fill="#2D2B2C"/>
<path fill-rule="evenodd" clip-rule="evenodd" d="M10.7655 7.84069C11.2247 8.10578 11.382 8.6929 11.1169 9.15207L3.59154 22.1864C3.32643 22.6456 2.73931 22.8029 2.28014 22.5378C1.82098 22.2727 1.66366 21.6856 1.92876 21.2264L9.45413 8.19207C9.71923 7.73292 10.3064 7.57559 10.7655 7.84069Z" fill="#2D2B2C"/>
<path fill-rule="evenodd" clip-rule="evenodd" d="M30.26 21.1201C30.7902 21.1201 31.22 21.5499 31.22 22.0801V23.6801C31.22 24.2104 30.7902 24.6401 30.26 24.6401C29.7298 24.6401 29.3 24.2104 29.3 23.6801V22.0801C29.3 21.5499 29.7298 21.1201 30.26 21.1201Z" fill="#2D2B2C"/>
<path fill-rule="evenodd" clip-rule="evenodd" d="M2.74 21.1201C3.27019 21.1201 3.7 21.5499 3.7 22.0801V23.6801C3.7 24.2104 3.27019 24.6401 2.74 24.6401C2.20981 24.6401 1.78 24.2104 1.78 23.6801V22.0801C1.78 21.5499 2.20981 21.1201 2.74 21.1201Z" fill="#2D2B2C"/>
<path fill-rule="evenodd" clip-rule="evenodd" d="M15.06 21.1201C15.5902 21.1201 16.02 21.5499 16.02 22.0801V23.6801C16.02 24.2104 15.5902 24.6401 15.06 24.6401C14.5298 24.6401 14.1 24.2104 14.1 23.6801V22.0801C14.1 21.5499 14.5298 21.1201 15.06 21.1201Z" fill="#2D2B2C"/>
<path fill-rule="evenodd" clip-rule="evenodd" d="M10.58 12.3202C10.58 11.9667 10.8665 11.6802 11.22 11.6802H16.98C17.3334 11.6802 17.62 11.9667 17.62 12.3202C17.62 12.6736 17.3334 12.9602 16.98 12.9602H11.22C10.8665 12.9602 10.58 12.6736 10.58 12.3202Z" fill="#2D2B2C" fill-opacity="0.8"/>
<path fill-rule="evenodd" clip-rule="evenodd" d="M8.82 15.2001C8.82 14.8466 9.10654 14.5601 9.46 14.5601H15.22C15.5735 14.5601 15.86 14.8466 15.86 15.2001C15.86 15.5535 15.5735 15.8401 15.22 15.8401H9.46C9.10654 15.8401 8.82 15.5535 8.82 15.2001Z" fill="#2D2B2C" fill-opacity="0.8"/>
<path fill-rule="evenodd" clip-rule="evenodd" d="M7.22 18.0799C7.22 17.7265 7.50655 17.4399 7.86 17.4399H13.62C13.9735 17.4399 14.26 17.7265 14.26 18.0799C14.26 18.4334 13.9735 18.7199 13.62 18.7199H7.86C7.50655 18.7199 7.22 18.4334 7.22 18.0799Z" fill="#2D2B2C" fill-opacity="0.8"/>
</g>
<defs>
<clipPath id="clip0_207_13">
<rect width="32" height="32" fill="white" transform="translate(0.5)"/>
</clipPath>
</defs>
</svg>
