<svg width="33" height="32" viewBox="0 0 33 32" fill="none" xmlns="http://www.w3.org/2000/svg">
<g clip-path="url(#clip0_209_152)">
<g clip-path="url(#clip1_209_152)">
<path d="M19.5434 3.07625C19.1331 3.07219 18.7309 3.22007 18.4262 3.49957C18.4091 3.51663 18.388 3.53369 18.3709 3.55075L9.7422 13.0936L4.70226 8.96363L4.26189 8.58257C3.95314 8.32825 3.52576 8.26082 3.15282 8.41763C3.14876 8.41763 3.1447 8.42169 3.13982 8.42169L1.17195 9.23419C1.14676 9.24719 1.1167 9.25938 1.09151 9.27238C1.07039 9.28538 1.05332 9.2935 1.03626 9.30163C1.02326 9.30975 1.01107 9.31869 0.998074 9.32682C0.981012 9.33982 0.959887 9.352 0.942824 9.365C0.934699 9.37313 0.921699 9.38207 0.913574 9.39019C0.896512 9.40319 0.879449 9.41538 0.867262 9.42838C0.850199 9.44138 0.838012 9.45357 0.825012 9.46657C0.816887 9.47469 0.803887 9.48769 0.790887 9.50475C0.777887 9.51775 0.765699 9.52994 0.756762 9.54294C0.743762 9.56 0.731574 9.57707 0.718574 9.59413C0.710449 9.60225 0.701512 9.61525 0.693387 9.62825C0.680387 9.64532 0.668199 9.66644 0.655199 9.6835C0.651137 9.6965 0.642199 9.70869 0.634074 9.72169C0.625949 9.73875 0.617012 9.75582 0.608887 9.77694C0.600762 9.794 0.595887 9.80619 0.587762 9.82325C0.583699 9.84032 0.574762 9.85738 0.570699 9.87444C0.562574 9.8915 0.557699 9.90857 0.553637 9.92563C0.545512 9.94269 0.540637 9.96382 0.536574 9.98494C0.532512 9.99794 0.528449 10.0101 0.523574 10.0272C0.523574 10.0443 0.519512 10.0654 0.515449 10.0865C0.515449 10.1036 0.511387 10.1206 0.511387 10.1418C0.507324 10.171 0.507324 10.2011 0.507324 10.2303V21.7743C0.507324 22.2098 0.769762 22.6039 1.17195 22.7688L3.13982 23.5984C3.51682 23.7552 3.95232 23.6829 4.26107 23.4204L4.70145 23.0394L9.74139 18.9094L18.3701 28.4523C18.3953 28.4774 18.4254 28.5034 18.4506 28.5246C18.4717 28.5416 18.4928 28.5628 18.5139 28.5798C18.531 28.5969 18.5521 28.6091 18.5733 28.6261C18.5984 28.6432 18.6196 28.6554 18.6407 28.6724C18.6659 28.6854 18.6919 28.7017 18.713 28.7147C18.7382 28.7277 18.7593 28.7399 18.7853 28.7529C18.8113 28.7659 18.8316 28.774 18.8576 28.787C18.8828 28.8 18.9088 28.8081 18.934 28.8163C18.9592 28.8293 18.9893 28.8374 19.0144 28.8455C19.0356 28.8536 19.0608 28.8585 19.0868 28.8666C19.1128 28.8748 19.142 28.8837 19.1713 28.8878C19.1964 28.8918 19.2224 28.9008 19.2476 28.9048C19.2728 28.9089 19.2988 28.9129 19.3281 28.9129C19.3533 28.917 19.3833 28.9211 19.4085 28.9211C19.4337 28.9211 19.4597 28.9251 19.4889 28.9251C19.5141 28.9251 19.5442 28.9251 19.5694 28.9251C19.5986 28.9251 19.6287 28.9211 19.6539 28.9211C19.6791 28.917 19.7051 28.9129 19.7262 28.9129C19.7603 28.9089 19.7896 28.9048 19.8237 28.8959C19.8448 28.8918 19.8659 28.8878 19.8871 28.8829C19.9163 28.8748 19.9464 28.8699 19.9756 28.8577C19.9968 28.8536 20.0219 28.8447 20.0479 28.8366C20.0739 28.8284 20.0991 28.8195 20.1243 28.8073C20.1584 28.7943 20.1877 28.7821 20.2218 28.7691L25.5754 26.1919C25.7704 26.0984 25.9475 25.9676 26.0873 25.8027C26.1254 25.7645 26.1547 25.7223 26.1888 25.68C26.1888 25.68 26.1888 25.6759 26.1929 25.6719C26.2221 25.6296 26.2522 25.5833 26.2774 25.5362C26.3026 25.4939 26.3237 25.4517 26.3448 25.4094C26.3489 25.4013 26.3489 25.3964 26.3529 25.3883C26.37 25.3501 26.3871 25.3119 26.3993 25.2738C26.4033 25.2608 26.4074 25.2486 26.4123 25.2315C26.4253 25.1933 26.4374 25.1551 26.4464 25.1169C26.4504 25.1039 26.4545 25.0918 26.4545 25.0788C26.4626 25.0406 26.4675 25.0024 26.4756 24.9691C26.4756 24.952 26.4797 24.9309 26.4838 24.9138C26.4838 24.8797 26.4878 24.8504 26.4878 24.8163C26.4919 24.7871 26.4919 24.757 26.4919 24.7318V7.27607C26.4919 7.26307 26.4919 7.25088 26.4919 7.23788C26.4919 7.18669 26.4878 7.13225 26.4838 7.077C26.4163 6.52694 26.0734 6.04838 25.5738 5.81194L20.2202 3.23875C20.0089 3.13719 19.7798 3.08194 19.5474 3.07788L19.5434 3.07625ZM19.9959 10.4984V21.5013L13.2847 15.9999L19.9959 10.4984ZM3.75407 12.2884L7.1097 15.9999L3.75407 19.7114V12.2884Z" fill="black"/>
</g>
</g>
<defs>
<clipPath id="clip0_209_152">
<rect width="32" height="32" fill="white" transform="translate(0.5)"/>
</clipPath>
<clipPath id="clip1_209_152">
<rect width="26" height="26" fill="white" transform="translate(0.5 3)"/>
</clipPath>
</defs>
</svg>
