<svg width="33" height="32" viewBox="0 0 33 32" fill="none" xmlns="http://www.w3.org/2000/svg">
<g clip-path="url(#clip0_207_9)">
<path d="M14.1742 12.4643C13.2647 23.7438 15.5977 26.3654 15.5977 26.3654C15.5977 26.3654 8.33525 27.1048 4.69744 24.5639C0.67739 21.7541 1.27051 15.4892 1.28369 11.8459C1.29687 8.02783 4.65789 5.68859 7.86075 5.75581C11.6963 5.82303 14.4773 8.6597 14.1742 12.4643Z" fill="black"/>
<path d="M5.6069 18.7561C7.21492 23.233 8.57251 24.4967 10.8791 26.1772C14.2137 28.5971 15.7031 28.5299 20.9358 31.6892C15.8877 26.8494 9.65331 24.8866 5.59372 18.7427L5.6069 18.7561Z" fill="white"/>
<path d="M5.60689 18.7561C6.0023 20.5441 7.9662 22.7758 9.61376 24.3488C12.8825 27.4678 15.1496 27.3602 20.949 31.7026C18.5501 24.7387 18.471 23.3674 15.2155 17.4386C11.9599 11.5232 6.30546 14.7095 6.30546 14.7095C6.30546 14.7095 5.1983 16.9412 5.60689 18.7292V18.7561Z" fill="black"/>
<path d="M9.13925 10.219C9.13925 10.219 8.61203 8.65949 6.76677 8.67294C2.81262 8.69983 2.97079 15.6772 8.99427 15.6638C14.2137 15.6504 14.161 9.02248 11.1163 8.99559C9.77192 8.96871 9.13925 10.219 9.13925 10.219Z" fill="white"/>
<path d="M9.20517 12.7734C10.6287 12.7734 9.46878 14.7766 9.12608 15.5832C8.88884 14.4539 7.78168 12.7734 9.20517 12.7734ZM7.05675 10.7703C6.31864 10.7703 5.71234 11.3753 5.71234 12.1416C5.71234 12.8944 6.30546 13.5128 7.05675 13.5128C7.79486 13.5128 8.40116 12.9079 8.40116 12.1416C8.40116 11.3887 7.80804 10.7703 7.05675 10.7703ZM11.0768 10.7568C10.4441 10.7568 9.91691 11.3618 9.91691 12.1281C9.91691 12.881 10.431 13.4994 11.0768 13.4994C11.7095 13.4994 12.2367 12.8944 12.2367 12.1281C12.2367 11.3753 11.7226 10.7568 11.0768 10.7568Z" fill="black"/>
</g>
<defs>
<clipPath id="clip0_207_9">
<rect width="32" height="32" fill="white" transform="translate(0.5)"/>
</clipPath>
</defs>
</svg>
