<svg width="33" height="32" viewBox="0 0 33 32" fill="none" xmlns="http://www.w3.org/2000/svg">
<g clip-path="url(#clip0_207_16)">
<g clip-path="url(#clip1_207_16)">
<path d="M22.7633 11.8609C23.1852 11.8609 23.5272 11.491 23.5272 11.0347C23.5272 10.5784 23.1852 10.2085 22.7633 10.2085C22.3414 10.2085 21.9994 10.5784 21.9994 11.0347C21.9994 11.491 22.3414 11.8609 22.7633 11.8609Z" fill="#1D1E30"/>
<path d="M19.6214 13.7994C19.6214 14.481 19.6214 16.2588 19.6214 16.7507C19.6214 17.3776 19.5174 19.673 17.3594 19.673C15.1034 19.673 15.151 17.3808 15.151 16.4967C15.151 15.7444 15.151 14.2334 15.151 13.8026H13.9917V16.8278C13.9917 16.8278 13.751 20.9589 17.3 20.9589C20.849 20.9589 20.7301 16.9564 20.7301 16.9564V13.7994H19.6214ZM24.7696 8.45312H25.914V20.6214H24.7696V8.45312ZM15.4809 22.1966C13.1208 22.1966 9.68769 21.8109 7.50594 21.7851C7.14331 21.7851 6.82229 21.8334 6.53694 21.9105L6.92335 21.5376C7.34841 21.1229 8.04098 20.8657 8.21338 20.8303C11.0193 20.2324 13.1119 17.818 13.1119 13.9891C13.1119 9.67476 10.2881 7 6.80446 7C3.32081 7 0.5 9.47223 0.5 13.9859C0.5 18.0623 3.02357 20.6728 6.2397 20.9461C6.2397 20.9461 6.40913 20.9493 6.42994 21.0618C6.44777 21.1615 6.28726 21.3061 6.28726 21.3061L4.37304 23.2222L4.74161 23.653L5.44904 22.9682C5.84437 22.6274 6.49236 22.2095 7.2949 22.2095C9.94926 22.2095 12.889 25.0739 15.6206 25.0032C19.6155 24.9003 20.5459 22.0134 20.6469 21.6405C20.6529 21.6276 18.9943 22.1966 15.4809 22.1966ZM1.67113 13.9859C1.67113 10.3113 3.96879 8.29559 6.80743 8.29559C9.6431 8.29559 11.9437 10.472 11.9437 13.9859C11.9437 17.6058 9.64607 19.6762 6.80743 19.6762C3.96879 19.673 1.67113 17.4965 1.67113 13.9859ZM27.3556 8.45312H28.5V20.6214H27.3556V8.45312ZM22.1837 13.7866H23.328V20.6181H22.1837V13.7866Z" fill="#1D1E30"/>
</g>
</g>
<defs>
<clipPath id="clip0_207_16">
<rect width="32" height="32" fill="white" transform="translate(0.5)"/>
</clipPath>
<clipPath id="clip1_207_16">
<rect width="28" height="18" fill="white" transform="translate(0.5 7)"/>
</clipPath>
</defs>
</svg>
