<svg width="33" height="32" viewBox="0 0 33 32" fill="none" xmlns="http://www.w3.org/2000/svg">
<g clip-path="url(#clip0_207_14)">
<g clip-path="url(#clip1_207_14)">
<path d="M4.59342 27.9998H20.4066C23.1442 27.9998 24.5 26.6455 24.5 23.9631V8.06279C24.5 5.3802 23.1442 4.02588 20.4066 4.02588H4.59342C1.86882 4.02588 0.5 5.36717 0.5 8.06279V23.9631C0.5 26.6587 1.86882 27.9998 4.59342 27.9998ZM12.3762 22.2962C9.92532 22.2962 8.29578 21.1111 7.81342 19.8349C7.70913 19.5875 7.65698 19.3661 7.65698 19.1578C7.65698 18.5718 8.04808 18.1941 8.63472 18.1941C9.11706 18.1941 9.40387 18.4285 9.65156 18.9234C10.1209 19.9912 11.0986 20.5381 12.5065 20.5381C13.9796 20.5381 15.1138 19.887 15.1138 18.702C15.1138 17.7644 14.5663 17.3607 12.9758 16.9179L11.0204 16.358C8.93456 15.785 7.8395 14.8214 7.8395 13.1284C7.8395 10.9798 9.75586 9.45617 12.5196 9.45617C14.7879 9.45617 16.4044 10.498 16.9128 11.9304C17.0041 12.1648 17.0432 12.3992 17.0432 12.5685C17.0432 13.1936 16.6391 13.5061 16.0915 13.5061C15.5701 13.5061 15.2833 13.2587 15.1008 12.8159C14.6315 11.696 13.7841 11.1621 12.4283 11.1621C11.0074 11.1621 10.0818 11.8783 10.0818 12.9982C10.0818 13.8186 10.6162 14.3135 11.9069 14.6521L13.7059 15.1339C16.0655 15.759 17.3691 16.7487 17.3691 18.5197C17.3691 20.8377 15.3876 22.2962 12.3762 22.2962Z" fill="black"/>
</g>
</g>
<defs>
<clipPath id="clip0_207_14">
<rect width="32" height="32" fill="white" transform="translate(0.5)"/>
</clipPath>
<clipPath id="clip1_207_14">
<rect width="24" height="24" fill="white" transform="translate(0.5 4)"/>
</clipPath>
</defs>
</svg>
