<svg width="33" height="32" viewBox="0 0 33 32" fill="none" xmlns="http://www.w3.org/2000/svg">
<g clip-path="url(#clip0_207_6)">
<path d="M18.4144 7.4441C16.4586 5.85893 14.0166 4.99582 11.4992 5.00002C8.88085 5.00002 6.47459 5.91564 4.58556 7.4441H18.4144ZM1.12634 12.3331C1.43128 11.4704 1.84302 10.6493 2.35197 9.88899H20.6472C21.1515 10.6432 21.566 11.4632 21.8736 12.3331H1.12634ZM0.567346 17.222C0.477551 16.4098 0.477551 15.5902 0.567346 14.778H22.4326C22.5225 15.5902 22.5225 16.4098 22.4326 17.222H0.567346ZM2.35197 22.111C1.84302 21.3507 1.43128 20.5296 1.12634 19.6669H21.8744C21.5692 20.5296 21.1572 21.3507 20.648 22.111H2.35197ZM18.4144 24.5559C16.4586 26.1411 14.0166 27.0042 11.4992 27C8.88085 27 6.47459 26.0844 4.58556 24.5559H18.4144Z" fill="black"/>
</g>
<defs>
<clipPath id="clip0_207_6">
<rect width="32" height="32" fill="white" transform="translate(0.5)"/>
</clipPath>
</defs>
</svg>
