<svg width="33" height="32" viewBox="0 0 33 32" fill="none" xmlns="http://www.w3.org/2000/svg">
<g clip-path="url(#clip0_207_17)">
<path d="M9.0849 27.8748C12.3167 27.8748 14.9367 25.4077 14.9367 22.3644C14.9367 19.3211 12.3167 16.854 9.0849 16.854C5.85307 16.854 3.23315 19.3211 3.23315 22.3644C3.23315 25.4077 5.85307 27.8748 9.0849 27.8748Z" fill="#2D2B2C" fill-opacity="0.5"/>
<path d="M20.6483 20.1668C23.8801 20.1668 26.5 17.6997 26.5 14.6564C26.5 11.6131 23.8801 9.146 20.6483 9.146C17.4164 9.146 14.7965 11.6131 14.7965 14.6564C14.7965 17.6997 17.4164 20.1668 20.6483 20.1668Z" fill="#2D2B2C" fill-opacity="0.7"/>
<path d="M6.35175 20.0442C9.58358 20.0442 12.2035 17.5771 12.2035 14.5338C12.2035 11.4905 9.58358 9.02344 6.35175 9.02344C3.11992 9.02344 0.5 11.4905 0.5 14.5338C0.5 17.5771 3.11992 20.0442 6.35175 20.0442Z" fill="#2D2B2C"/>
<path d="M18.0483 27.8748C21.2801 27.8748 23.9 25.4077 23.9 22.3644C23.9 19.3211 21.2801 16.854 18.0483 16.854C14.8164 16.854 12.1965 19.3211 12.1965 22.3644C12.1965 25.4077 14.8164 27.8748 18.0483 27.8748Z" fill="#2D2B2C" fill-opacity="0.6"/>
<path d="M13.5 15.1458C16.7318 15.1458 19.3517 12.6787 19.3517 9.6354C19.3517 6.59209 16.7318 4.125 13.5 4.125C10.2681 4.125 7.64822 6.59209 7.64822 9.6354C7.64822 12.6787 10.2681 15.1458 13.5 15.1458Z" fill="#2D2B2C" fill-opacity="0.8"/>
<path d="M8.22293 21.6882H7.30487C6.49894 21.6882 5.84018 21.0745 5.84018 20.3156V12.5152C5.84018 11.7563 6.49894 11.1426 7.30487 11.1426H18.7771C19.583 11.1426 20.2418 11.7629 20.2418 12.5152V20.309C20.2418 21.0679 19.583 21.6816 18.7771 21.6816H14.8666L7.02455 25.298L8.22293 21.6882Z" fill="white"/>
</g>
<defs>
<clipPath id="clip0_207_17">
<rect width="32" height="32" fill="white" transform="translate(0.5)"/>
</clipPath>
</defs>
</svg>
