<svg width="33" height="32" viewBox="0 0 33 32" fill="none" xmlns="http://www.w3.org/2000/svg">
<g clip-path="url(#clip0_207_20)">
<path d="M21.5481 22.0707H25.0241V12.5378L21.1079 8.0646L18.65 10.8721L21.5481 14.1825V22.0707ZM25.0332 24.0611H19.9707H12.9088L10.0106 20.7508L11.2396 19.347L13.6333 22.0812H18.5583L13.7067 16.529L14.9448 15.1148L19.7964 20.6565V15.031L17.4119 12.3073L18.6317 10.914L12.6061 4H6.66312H0.5L3.96675 7.95984V7.97032H3.9851H11.1571L13.6975 10.8721L9.98313 15.1148L7.44268 12.213V9.96072H3.96675V13.8577L9.98313 20.7298L7.53439 23.5268L11.4505 28H17.3935H28.5L25.0332 24.0611Z" fill="#231F20"/>
</g>
<defs>
<clipPath id="clip0_207_20">
<rect width="32" height="32" fill="white" transform="translate(0.5)"/>
</clipPath>
</defs>
</svg>
